<svg width="12" height="17" viewBox="0 0 12 17" fill="none" xmlns="http://www.w3.org/2000/svg">
<path fill-rule="evenodd" clip-rule="evenodd" d="M2.90332 2.02197C2.90332 1.71156 3.02663 1.41386 3.24612 1.19437C3.46562 0.974873 3.76332 0.851563 4.07373 0.851562H7.19481C7.50522 0.851562 7.80292 0.974873 8.02241 1.19437C8.24191 1.41386 8.36522 1.71156 8.36522 2.02197V2.80224C8.36522 3.11265 8.24191 3.41035 8.02241 3.62984C7.80292 3.84934 7.50522 3.97265 7.19481 3.97265H4.07373C3.76332 3.97265 3.46562 3.84934 3.24612 3.62984C3.02663 3.41035 2.90332 3.11265 2.90332 2.80224V2.02197ZM4.07373 1.63183C3.97026 1.63183 3.87102 1.67294 3.79786 1.7461C3.72469 1.81927 3.68359 1.9185 3.68359 2.02197V2.80224C3.68359 2.90571 3.72469 3.00494 3.79786 3.07811C3.87102 3.15127 3.97026 3.19238 4.07373 3.19238H7.19481C7.29828 3.19238 7.39751 3.15127 7.47068 3.07811C7.54384 3.00494 7.58495 2.90571 7.58495 2.80224V2.02197C7.58495 1.9185 7.54384 1.81927 7.47068 1.7461C7.39751 1.67294 7.29828 1.63183 7.19481 1.63183H4.07373Z" fill="#535353"/>
<path fill-rule="evenodd" clip-rule="evenodd" d="M3.85058 1.9668H1.8999C1.58949 1.9668 1.29179 2.09011 1.0723 2.3096C0.852802 2.52909 0.729492 2.82679 0.729492 3.1372V15.2314C0.729492 15.5418 0.852802 15.8395 1.0723 16.059C1.29179 16.2785 1.58949 16.4018 1.8999 16.4018H10.4829C10.7933 16.4018 11.091 16.2785 11.3105 16.059C11.53 15.8395 11.6533 15.5418 11.6533 15.2314V3.1372C11.6533 2.82679 11.53 2.52909 11.3105 2.3096C11.091 2.09011 10.7933 1.9668 10.4829 1.9668H8.5322V2.74707C8.5322 2.95401 8.45 3.15247 8.30367 3.2988C8.15734 3.44513 7.95887 3.52734 7.75193 3.52734H4.63085C4.42391 3.52734 4.22544 3.44513 4.07911 3.2988C3.93278 3.15247 3.85058 2.95401 3.85058 2.74707V1.9668ZM2.68017 7.42869C2.68017 7.32522 2.72127 7.22599 2.79444 7.15283C2.8676 7.07966 2.96684 7.03856 3.07031 7.03856H5.80125C5.90472 7.03856 6.00396 7.07966 6.07712 7.15283C6.15029 7.22599 6.19139 7.32522 6.19139 7.42869C6.19139 7.53216 6.15029 7.6314 6.07712 7.70456C6.00396 7.77773 5.90472 7.81883 5.80125 7.81883H3.07031C2.96684 7.81883 2.8676 7.77773 2.79444 7.70456C2.72127 7.6314 2.68017 7.53216 2.68017 7.42869ZM3.07031 5.08788C2.96684 5.08788 2.8676 5.12898 2.79444 5.20215C2.72127 5.27531 2.68017 5.37455 2.68017 5.47802C2.68017 5.58149 2.72127 5.68072 2.79444 5.75388C2.8676 5.82705 2.96684 5.86815 3.07031 5.86815H9.11741C9.22088 5.86815 9.32011 5.82705 9.39327 5.75388C9.46644 5.68072 9.50754 5.58149 9.50754 5.47802C9.50754 5.37455 9.46644 5.27531 9.39327 5.20215C9.32011 5.12898 9.22088 5.08788 9.11741 5.08788H3.07031ZM3.46044 10.5498V11.33H4.24071V10.5498H3.46044ZM3.07031 9.76951C2.96684 9.76951 2.8676 9.81061 2.79444 9.88378C2.72127 9.95694 2.68017 10.0562 2.68017 10.1596V11.7202C2.68017 11.8237 2.72127 11.9229 2.79444 11.9961C2.8676 12.0692 2.96684 12.1103 3.07031 12.1103H4.63085C4.73432 12.1103 4.83355 12.0692 4.90672 11.9961C4.97988 11.9229 5.02098 11.8237 5.02098 11.7202V10.1596C5.02098 10.0562 4.97988 9.95694 4.90672 9.88378C4.83355 9.81061 4.73432 9.76951 4.63085 9.76951H3.07031ZM8.92234 10.5498C8.92234 10.8602 8.79903 11.1579 8.57953 11.3774C8.36004 11.5969 8.06234 11.7202 7.75193 11.7202C7.44152 11.7202 7.14382 11.5969 6.92433 11.3774C6.70484 11.1579 6.58153 10.8602 6.58153 10.5498C6.58153 10.2394 6.70484 9.94167 6.92433 9.72218C7.14382 9.50268 7.44152 9.37937 7.75193 9.37937C8.06234 9.37937 8.36004 9.50268 8.57953 9.72218C8.79903 9.94167 8.92234 10.2394 8.92234 10.5498ZM7.75193 12.2344C6.97049 12.2344 5.41112 12.6503 5.41112 13.4758V14.4511H10.0927V13.4758C10.0927 12.6503 8.53337 12.2344 7.75193 12.2344Z" fill="#535353"/>
</svg>
