<svg width="30" height="30" viewBox="0 0 30 30" fill="none" xmlns="http://www.w3.org/2000/svg">
<rect width="30" height="30" rx="5" fill="white"/>
<path fill-rule="evenodd" clip-rule="evenodd" d="M11.9033 8.02197C11.9033 7.71156 12.0266 7.41386 12.2461 7.19437C12.4656 6.97487 12.7633 6.85156 13.0737 6.85156H16.1948C16.5052 6.85156 16.8029 6.97487 17.0224 7.19437C17.2419 7.41386 17.3652 7.71156 17.3652 8.02197V8.80224C17.3652 9.11265 17.2419 9.41035 17.0224 9.62984C16.8029 9.84934 16.5052 9.97265 16.1948 9.97265H13.0737C12.7633 9.97265 12.4656 9.84934 12.2461 9.62984C12.0266 9.41035 11.9033 9.11265 11.9033 8.80224V8.02197ZM13.0737 7.63183C12.9703 7.63183 12.871 7.67294 12.7979 7.7461C12.7247 7.81927 12.6836 7.9185 12.6836 8.02197V8.80224C12.6836 8.90571 12.7247 9.00494 12.7979 9.07811C12.871 9.15127 12.9703 9.19238 13.0737 9.19238H16.1948C16.2983 9.19238 16.3975 9.15127 16.4707 9.07811C16.5438 9.00494 16.5849 8.90571 16.5849 8.80224V8.02197C16.5849 7.9185 16.5438 7.81927 16.4707 7.7461C16.3975 7.67294 16.2983 7.63183 16.1948 7.63183H13.0737Z" fill="#535353"/>
<path fill-rule="evenodd" clip-rule="evenodd" d="M12.8506 7.9668H10.8999C10.5895 7.9668 10.2918 8.09011 10.0723 8.3096C9.8528 8.52909 9.72949 8.82679 9.72949 9.1372V21.2314C9.72949 21.5418 9.8528 21.8395 10.0723 22.059C10.2918 22.2785 10.5895 22.4018 10.8999 22.4018H19.4829C19.7933 22.4018 20.091 22.2785 20.3105 22.059C20.53 21.8395 20.6533 21.5418 20.6533 21.2314V9.1372C20.6533 8.82679 20.53 8.52909 20.3105 8.3096C20.091 8.09011 19.7933 7.9668 19.4829 7.9668H17.5322V8.74707C17.5322 8.95401 17.45 9.15247 17.3037 9.2988C17.1573 9.44513 16.9589 9.52734 16.7519 9.52734H13.6308C13.4239 9.52734 13.2254 9.44513 13.0791 9.2988C12.9328 9.15247 12.8506 8.95401 12.8506 8.74707V7.9668ZM11.6802 13.4287C11.6802 13.3252 11.7213 13.226 11.7944 13.1528C11.8676 13.0797 11.9668 13.0386 12.0703 13.0386H14.8013C14.9047 13.0386 15.004 13.0797 15.0771 13.1528C15.1503 13.226 15.1914 13.3252 15.1914 13.4287C15.1914 13.5322 15.1503 13.6314 15.0771 13.7046C15.004 13.7777 14.9047 13.8188 14.8013 13.8188H12.0703C11.9668 13.8188 11.8676 13.7777 11.7944 13.7046C11.7213 13.6314 11.6802 13.5322 11.6802 13.4287ZM12.0703 11.0879C11.9668 11.0879 11.8676 11.129 11.7944 11.2021C11.7213 11.2753 11.6802 11.3745 11.6802 11.478C11.6802 11.5815 11.7213 11.6807 11.7944 11.7539C11.8676 11.827 11.9668 11.8682 12.0703 11.8682H18.1174C18.2209 11.8682 18.3201 11.827 18.3933 11.7539C18.4664 11.6807 18.5075 11.5815 18.5075 11.478C18.5075 11.3745 18.4664 11.2753 18.3933 11.2021C18.3201 11.129 18.2209 11.0879 18.1174 11.0879H12.0703ZM12.4604 16.5498V17.33H13.2407V16.5498H12.4604ZM12.0703 15.7695C11.9668 15.7695 11.8676 15.8106 11.7944 15.8838C11.7213 15.9569 11.6802 16.0562 11.6802 16.1596V17.7202C11.6802 17.8237 11.7213 17.9229 11.7944 17.9961C11.8676 18.0692 11.9668 18.1103 12.0703 18.1103H13.6308C13.7343 18.1103 13.8336 18.0692 13.9067 17.9961C13.9799 17.9229 14.021 17.8237 14.021 17.7202V16.1596C14.021 16.0562 13.9799 15.9569 13.9067 15.8838C13.8336 15.8106 13.7343 15.7695 13.6308 15.7695H12.0703ZM17.9223 16.5498C17.9223 16.8602 17.799 17.1579 17.5795 17.3774C17.36 17.5969 17.0623 17.7202 16.7519 17.7202C16.4415 17.7202 16.1438 17.5969 15.9243 17.3774C15.7048 17.1579 15.5815 16.8602 15.5815 16.5498C15.5815 16.2394 15.7048 15.9417 15.9243 15.7222C16.1438 15.5027 16.4415 15.3794 16.7519 15.3794C17.0623 15.3794 17.36 15.5027 17.5795 15.7222C17.799 15.9417 17.9223 16.2394 17.9223 16.5498ZM16.7519 18.2344C15.9705 18.2344 14.4111 18.6503 14.4111 19.4758V20.4511H19.0927V19.4758C19.0927 18.6503 17.5334 18.2344 16.7519 18.2344Z" fill="#535353"/>
</svg>
