<svg width="30" height="30" viewBox="0 0 30 30" fill="none" xmlns="http://www.w3.org/2000/svg">
<rect width="30" height="30" rx="5" fill="#F4F4F4"/>
<g clip-path="url(#clip0_7363_35201)">
<path d="M18 16.5C18.9946 16.5 19.9484 16.8951 20.6517 17.5983C21.3549 18.3016 21.75 19.2554 21.75 20.25V21C21.75 21.3978 21.592 21.7794 21.3107 22.0607C21.0294 22.342 20.6478 22.5 20.25 22.5H9.75C9.35218 22.5 8.97064 22.342 8.68934 22.0607C8.40804 21.7794 8.25 21.3978 8.25 21V20.25C8.25 19.2554 8.64509 18.3016 9.34835 17.5983C10.0516 16.8951 11.0054 16.5 12 16.5H18ZM21 12C21.1989 12 21.3897 12.079 21.5303 12.2197C21.671 12.3603 21.75 12.5511 21.75 12.75V13.5H22.5C22.6989 13.5 22.8897 13.579 23.0303 13.7197C23.171 13.8603 23.25 14.0511 23.25 14.25C23.25 14.4489 23.171 14.6397 23.0303 14.7803C22.8897 14.921 22.6989 15 22.5 15H21.75V15.75C21.75 15.9489 21.671 16.1397 21.5303 16.2803C21.3897 16.421 21.1989 16.5 21 16.5C20.8011 16.5 20.6103 16.421 20.4697 16.2803C20.329 16.1397 20.25 15.9489 20.25 15.75V15H19.5C19.3011 15 19.1103 14.921 18.9697 14.7803C18.829 14.6397 18.75 14.4489 18.75 14.25C18.75 14.0511 18.829 13.8603 18.9697 13.7197C19.1103 13.579 19.3011 13.5 19.5 13.5H20.25V12.75C20.25 12.5511 20.329 12.3603 20.4697 12.2197C20.6103 12.079 20.8011 12 21 12ZM15 7.5C15.9946 7.5 16.9484 7.89509 17.6517 8.59835C18.3549 9.30161 18.75 10.2554 18.75 11.25C18.75 12.2446 18.3549 13.1984 17.6517 13.9017C16.9484 14.6049 15.9946 15 15 15C14.0054 15 13.0516 14.6049 12.3483 13.9017C11.6451 13.1984 11.25 12.2446 11.25 11.25C11.25 10.2554 11.6451 9.30161 12.3483 8.59835C13.0516 7.89509 14.0054 7.5 15 7.5Z" fill="black"/>
</g>
<defs>
<clipPath id="clip0_7363_35201">
<rect width="18" height="18" fill="white" transform="translate(6 6)"/>
</clipPath>
</defs>
</svg>
