<svg width="18" height="18" viewBox="0 0 18 18" fill="none" xmlns="http://www.w3.org/2000/svg">
<path d="M12 10.5C12.9946 10.5 13.9484 10.8951 14.6517 11.5983C15.3549 12.3016 15.75 13.2554 15.75 14.25V15C15.75 15.3978 15.592 15.7794 15.3107 16.0607C15.0294 16.342 14.6478 16.5 14.25 16.5H3.75C3.35218 16.5 2.97064 16.342 2.68934 16.0607C2.40804 15.7794 2.25 15.3978 2.25 15V14.25C2.25 13.2554 2.64509 12.3016 3.34835 11.5983C4.05161 10.8951 5.00544 10.5 6 10.5H12ZM15 6C15.1989 6 15.3897 6.07902 15.5303 6.21967C15.671 6.36032 15.75 6.55109 15.75 6.75V7.5H16.5C16.6989 7.5 16.8897 7.57902 17.0303 7.71967C17.171 7.86032 17.25 8.05109 17.25 8.25C17.25 8.44891 17.171 8.63968 17.0303 8.78033C16.8897 8.92098 16.6989 9 16.5 9H15.75V9.75C15.75 9.94891 15.671 10.1397 15.5303 10.2803C15.3897 10.421 15.1989 10.5 15 10.5C14.8011 10.5 14.6103 10.421 14.4697 10.2803C14.329 10.1397 14.25 9.94891 14.25 9.75V9H13.5C13.3011 9 13.1103 8.92098 12.9697 8.78033C12.829 8.63968 12.75 8.44891 12.75 8.25C12.75 8.05109 12.829 7.86032 12.9697 7.71967C13.1103 7.57902 13.3011 7.5 13.5 7.5H14.25V6.75C14.25 6.55109 14.329 6.36032 14.4697 6.21967C14.6103 6.07902 14.8011 6 15 6ZM9 1.5C9.99456 1.5 10.9484 1.89509 11.6517 2.59835C12.3549 3.30161 12.75 4.25544 12.75 5.25C12.75 6.24456 12.3549 7.19839 11.6517 7.90165C10.9484 8.60491 9.99456 9 9 9C8.00544 9 7.05161 8.60491 6.34835 7.90165C5.64509 7.19839 5.25 6.24456 5.25 5.25C5.25 4.25544 5.64509 3.30161 6.34835 2.59835C7.05161 1.89509 8.00544 1.5 9 1.5Z" fill="black"/>
</svg>
