<svg width="199" height="58" viewBox="0 0 199 58" fill="none" xmlns="http://www.w3.org/2000/svg">
<path fillRule="evenodd" clipRule="evenodd" d="M24.4976 0.990948C24.3028 2.53588 24.338 5.70854 24.5671 7.23061C25.2664 11.8811 26.9621 16.2085 30.7964 23.1278C35.352 31.3489 36.5007 34.5828 36.3018 38.627C36.1845 41.0085 35.8452 42.3618 34.8644 44.3584C33.4285 47.2813 31.2526 49.3937 28.0174 51.0047C25.7117 52.1531 23.6175 52.6799 20.8051 52.8191C15.0122 53.1055 8.75286 50.5394 4.69449 46.2143C2.65744 44.0435 1.23933 41.5739 0.389592 38.7182L0.00537109 37.4271L0.0973536 39.2067C0.403267 45.136 4.14017 50.5788 10.3484 54.1375C13.7554 56.0904 17.283 57.0033 21.4227 57.0033C24.1491 57.0033 26.1315 56.7101 28.2253 55.9975C33.0128 54.3679 37.0681 50.8938 39.2343 46.5667C40.7045 43.6295 41.4204 39.6809 41.0482 36.5622C40.4853 31.8461 38.9351 28.4793 33.8131 20.8482C28.9282 13.5703 27.4243 10.8207 26.0706 6.69185C25.4558 4.81684 25.2029 3.65069 24.6712 0.241619C24.6473 0.0870695 24.569 0.424268 24.4976 0.990948Z" fill="#87C2A5"/>
<path fillRule="evenodd" clipRule="evenodd" d="M21.9794 12.8C21.9794 16.768 22.7911 19.5559 25.4038 24.5601C29.4519 32.3138 29.9852 33.6139 30.1681 36.1747C30.4371 39.9418 28.2185 43.7371 24.7604 45.4258C22.8874 46.3405 21.4481 46.6845 19.4504 46.6955C17.3678 46.7069 15.6446 46.3148 13.6634 45.3789C8.48136 42.9314 5.99209 38.616 6.6249 33.1774C7.11833 28.9385 9.45456 24.109 13.6935 18.5655C14.3632 17.6897 15.0052 16.8484 15.12 16.6957C15.6135 16.041 13.5045 17.875 11.7698 19.6093C7.626 23.752 5.24632 27.5164 4.08073 31.7724C3.60079 33.5253 3.50019 37.3772 3.89134 39.0332C4.86472 43.1551 7.86766 46.7174 12.1445 48.8238C14.7261 50.0952 16.3398 50.4652 19.3568 50.4774C22.4176 50.4895 23.8033 50.1907 26.1944 49.0031C30.8768 46.6771 33.594 42.3593 33.594 37.245C33.594 33.8065 32.3179 30.8466 28.1248 24.5601C24.2577 18.7624 23.0721 16.2523 22.4254 12.4948C22.2642 11.5578 22.0978 10.7562 22.0558 10.7131C22.0139 10.6702 21.9794 11.6093 21.9794 12.8Z" fill="#428464"/>
<path fillRule="evenodd" clipRule="evenodd" d="M14.5561 22.8879C12.2528 26.1403 10.7691 30.0035 10.581 33.238C10.3821 36.657 11.3958 39.4426 13.7599 41.9742C15.5255 43.8648 15.8393 44.0113 15.1877 42.6402C12.8103 37.6392 12.4716 30.9432 14.3046 25.1827C14.6162 24.2039 15.0665 22.9604 15.3056 22.4195C15.5446 21.8787 15.7051 21.436 15.6622 21.436C15.6193 21.436 15.1216 22.0895 14.5561 22.8879Z" fill="#428464"/>
<path d="M71.2775 15.272C70.3191 14.7937 70.351 14.789 75.053 14.7054C77.6612 14.6592 80.0781 14.5929 80.4243 14.5585C81.0082 14.5004 81.0535 14.6069 81.0535 16.0341C81.0535 16.88 80.9277 17.5722 80.7739 17.5722C80.6201 17.5722 80.4942 17.3295 80.4942 17.0327C80.4942 15.8889 79.7858 15.6146 76.8306 15.6146H74.0462L74.124 19.46L74.2017 23.3054L76.2248 23.3873C78.4426 23.4774 79.3755 23.1602 79.3755 22.3167C79.3755 22.0144 79.5014 21.7672 79.6552 21.7672C79.8149 21.7672 79.9349 22.6062 79.9349 23.7249C79.9349 25.5567 79.5238 26.4525 79.3252 25.0533C79.2407 24.4593 79.0903 24.4196 76.6488 24.3435L74.0619 24.2632V27.9092V31.5555H76.4667C79.4611 31.5555 80.523 31.1041 81.5167 29.4091C81.9146 28.7298 82.2916 28.2255 82.3543 28.2885C82.4172 28.3511 82.1356 29.3009 81.7287 30.3985L80.9887 32.3945L75.6375 32.3565C72.6943 32.3355 70.5566 32.2656 70.8866 32.201C72.3638 31.9121 72.399 31.6959 72.3185 23.4181L72.2441 15.7544L71.2775 15.272Z" fill="white"/>
<path d="M119.38 15.272C118.422 14.7937 118.454 14.789 123.156 14.7054C125.764 14.6592 128.181 14.5929 128.527 14.5585C129.111 14.5004 129.156 14.6069 129.156 16.0341C129.156 16.88 129.03 17.5722 128.876 17.5722C128.723 17.5722 128.597 17.3295 128.597 17.0327C128.597 15.8889 127.888 15.6146 124.933 15.6146H122.149L122.227 19.46L122.304 23.3054L124.327 23.3873C126.545 23.4774 127.478 23.1602 127.478 22.3167C127.478 22.0144 127.604 21.7672 127.758 21.7672C127.917 21.7672 128.037 22.6062 128.037 23.7249C128.037 25.5567 127.626 26.4525 127.428 25.0533C127.343 24.4593 127.193 24.4196 124.751 24.3435L122.164 24.2632V27.9092V31.5555H124.569C127.564 31.5555 128.626 31.1041 129.619 29.4091C130.017 28.7298 130.394 28.2255 130.457 28.2885C130.52 28.3511 130.238 29.3009 129.831 30.3985L129.091 32.3945L123.74 32.3565C120.797 32.3355 118.659 32.2656 118.989 32.201C120.466 31.9121 120.502 31.6959 120.421 23.4181L120.347 15.7544L119.38 15.272Z" fill="white"/>
<path d="M135.711 31.5745C136.121 31.1212 136.163 30.1555 136.09 22.7804C136.045 18.2236 136.09 14.4956 136.19 14.4956C136.29 14.4959 139.374 17.7112 143.042 21.6411L149.712 28.786L149.787 22.5561C149.828 19.1297 149.799 16.161 149.721 15.9588C149.644 15.7566 149.169 15.4126 148.667 15.1942C147.801 14.8181 147.898 14.7982 150.551 14.8105C152.594 14.82 153.128 14.8894 152.532 15.0675C152.084 15.2015 151.614 15.4739 151.488 15.6727C151.362 15.8713 151.256 19.7886 151.254 24.3773C151.252 28.9664 151.146 32.6789 151.018 32.6275C150.891 32.5763 147.839 29.3954 144.237 25.5592L137.686 18.5838L137.61 24.8536C137.569 28.3019 137.594 31.2784 137.667 31.468C137.74 31.6573 138.214 31.9319 138.722 32.0782C139.451 32.2885 139.06 32.3414 136.847 32.3313C135.309 32.324 134.32 32.2656 134.65 32.201C134.98 32.1364 135.458 31.8545 135.711 31.5745Z" fill="white"/>
<path d="M168.025 18.9705C168.033 17.1605 168.695 15.8825 170.055 15.0538C170.992 14.4822 172.561 14.3496 174.532 14.6754L175.581 14.8488L175.57 16.4203C175.559 17.9895 175.558 17.9903 175.179 17.1186C174.686 15.9868 173.732 15.3349 172.568 15.3349C170.516 15.3349 169.18 16.8602 169.542 18.7893C169.682 19.5352 170.399 20.3706 172.924 22.7281C175.517 25.1486 176.187 25.9362 176.433 26.8515C177.024 29.0452 176.092 31.2672 174.163 32.2648C172.967 32.8831 170.129 32.7925 168.677 32.09C167.54 31.5393 167.471 31.4383 167.474 30.3421C167.479 28.9384 167.726 27.9199 168.062 27.9199C168.198 27.9199 168.309 28.3094 168.309 28.7857C168.309 29.8786 169.042 31.1374 169.907 31.5317C170.273 31.6987 171.146 31.8352 171.846 31.8352C172.93 31.8352 173.266 31.6886 174.105 30.8494C175.028 29.927 175.083 29.7729 174.956 28.4563C174.823 27.0761 174.756 26.9863 171.419 23.7788L168.018 20.5087L168.025 18.9705Z" fill="white"/>
<path d="M54.3454 15.7544L53.3666 15.2655C52.3881 14.7767 52.3892 14.7764 56.3031 14.7775C60.9072 14.7789 61.8774 14.9957 63.1493 16.3078C63.9645 17.1491 64.1145 17.5199 64.2182 18.9518C64.313 20.2657 64.2093 20.8843 63.7268 21.881C63.1236 23.1272 61.7216 24.2842 60.8147 24.2842C60.5635 24.2842 60.3583 24.3592 60.3583 24.4509C60.3583 24.7566 68.1925 33.1692 69.3881 34.1472C71.0292 35.4899 72.7444 36.3098 73.9109 36.3098C74.4554 36.3098 74.9009 36.4357 74.9009 36.5895C74.9009 37.1005 71.2208 36.9002 69.9419 36.3196C68.0664 35.4683 67.0605 34.5368 62.1548 29.1084C59.6183 26.3012 57.4209 24.0045 57.2724 24.0045C57.1239 24.0045 57.0023 23.8787 57.0023 23.7249C57.0023 23.5711 57.5809 23.4452 58.2884 23.4452C60.8572 23.4452 62.3159 22.0843 62.3159 19.6876C62.3159 16.7715 61.0885 15.6146 57.9951 15.6146H56.1633V23.1426C56.1633 27.2831 56.2449 30.8838 56.345 31.1441C56.4449 31.4048 56.9167 31.7876 57.3938 31.9952C58.1892 32.3414 58.0183 32.3705 55.3243 32.3456C53.7092 32.3305 52.6579 32.2656 52.9879 32.201C54.4651 31.9121 54.5004 31.6959 54.4198 23.4181L54.3454 15.7544Z" fill="white"/>
<path d="M88.4647 15.7544L87.4859 15.2655C86.5081 14.777 86.5118 14.7764 90.5012 14.7761C94.6294 14.7756 95.8862 15.0312 97.0829 16.114C98.576 17.4654 98.9511 20.3784 97.8592 22.1448C96.6919 24.0339 94.4059 24.8872 92.2147 24.2518L90.9817 23.8943L92.38 23.7271C95.2114 23.389 96.4352 22.1224 96.4352 19.5299C96.4352 16.7318 95.2021 15.6146 92.1143 15.6146H90.2825L90.2864 22.9558C90.2884 26.9936 90.3698 30.594 90.4668 30.9568C90.5667 31.3304 91.02 31.7807 91.5117 31.9946C92.309 32.3417 92.1398 32.3705 89.4435 32.3456C87.8285 32.3305 86.7772 32.2656 87.1072 32.201C88.5844 31.9121 88.6196 31.6959 88.5391 23.4181L88.4647 15.7544Z" fill="white"/>
<path d="M104.406 15.7544L103.427 15.2655L102.448 14.7764L105.384 14.7982C107.593 14.8144 108.14 14.886 107.592 15.0871C106.325 15.5522 106.223 16.2259 106.223 24.1575V31.5555H108.628C111.623 31.5555 112.685 31.1041 113.678 29.4091C114.076 28.7298 114.453 28.2255 114.516 28.2885C114.579 28.3511 114.297 29.3009 113.89 30.3985L113.15 32.3945L107.799 32.3565C104.856 32.3355 102.718 32.2656 103.048 32.201C104.525 31.9121 104.561 31.6959 104.48 23.4181L104.406 15.7544Z" fill="white"/>
<path d="M158.941 15.7544L157.962 15.2655L156.983 14.7764L159.919 14.7982C162.128 14.8144 162.675 14.886 162.127 15.0871C161.726 15.2342 161.255 15.6708 161.078 16.057C160.733 16.816 160.609 30.2819 160.94 31.1441C161.04 31.4048 161.512 31.7876 161.989 31.9952C162.784 32.3414 162.613 32.3705 159.919 32.3456C158.304 32.3305 157.253 32.2656 157.583 32.201C159.06 31.9121 159.095 31.6959 159.015 23.4181L158.941 15.7544Z" fill="white"/>
<path d="M182.712 15.7544L181.733 15.2655L180.755 14.7764L183.691 14.7982C185.9 14.8144 186.447 14.886 185.899 15.0871C184.795 15.4923 184.53 16.4359 184.53 19.9625V23.1655H189.704H194.878L194.873 19.7396C194.871 17.8552 194.757 16.1359 194.619 15.9186C194.481 15.7012 194.011 15.3654 193.574 15.1721C192.87 14.8609 193.114 14.8183 195.717 14.7988L198.653 14.7764L197.674 15.2655L196.695 15.7544L196.621 23.4181C196.541 31.6959 196.576 31.9121 198.053 32.201C198.383 32.2656 197.332 32.3305 195.717 32.3456C192.971 32.3707 192.839 32.3472 193.679 31.9817C194.812 31.4892 194.92 31.0367 194.819 27.2207L194.738 24.1444H189.704H184.67L184.588 27.2207C184.487 31.0367 184.596 31.4892 185.728 31.9817C186.569 32.3472 186.436 32.3707 183.691 32.3456C182.076 32.3305 181.025 32.2656 181.355 32.201C182.832 31.9121 182.867 31.6959 182.787 23.4181L182.712 15.7544Z" fill="white"/>
<path fillRule="evenodd" clipRule="evenodd" d="M65.2537 42.3836C64.5838 42.5746 64.2285 42.9403 64.2291 43.438C64.2297 44.0195 64.5884 44.3164 65.7598 44.7054C66.7302 45.0275 67.0137 45.5693 66.4861 46.0935C66.2352 46.3428 66.2288 46.3443 65.426 46.3443C64.9817 46.3443 64.5082 46.3171 64.3738 46.2838C64.1538 46.2293 64.1321 46.2405 64.1575 46.3958C64.1934 46.6168 64.4249 46.6725 65.3481 46.6822C66.3045 46.6922 66.7325 46.524 67.0005 46.0327C67.4042 45.2926 67.0311 44.8047 65.7 44.3323C64.9652 44.0716 64.8609 44.01 64.7195 43.753C64.5857 43.51 64.5768 43.4234 64.6623 43.1936C64.718 43.044 64.8501 42.8712 64.9561 42.8096C65.257 42.6347 65.8634 42.5987 66.3917 42.7243C66.8475 42.8327 66.9915 42.8051 66.9968 42.6082C67.0011 42.4443 65.651 42.2703 65.2537 42.3836ZM96.6818 42.3807C95.5271 42.5998 94.9252 43.3378 94.9206 44.5397C94.9153 45.9532 95.6785 46.6858 97.1578 46.6871C97.9912 46.6879 98.2396 46.6372 98.2396 46.4662C98.2396 46.3524 98.1446 46.3409 97.4329 46.3685C96.742 46.3953 96.5755 46.3768 96.2727 46.2398C95.8245 46.0369 95.5904 45.7722 95.4268 45.2831C95.1897 44.5746 95.3094 43.7581 95.7268 43.2381C96.1191 42.7491 96.9928 42.5336 97.8055 42.7252C98.3046 42.8429 98.4127 42.8312 98.4127 42.6597C98.4127 42.4532 97.2702 42.2689 96.6818 42.3807ZM101.712 42.3897C100.752 42.5908 100.364 43.5713 101.015 44.1495C101.153 44.2717 101.549 44.4659 101.894 44.5811C102.784 44.8773 103.059 45.0414 103.171 45.3426C103.299 45.687 103.112 46.0967 102.751 46.2624C102.455 46.3982 101.397 46.4268 100.943 46.3113C100.685 46.2455 100.663 46.2538 100.663 46.4169C100.663 46.6347 100.91 46.6899 101.889 46.6899C102.993 46.6899 103.605 46.2933 103.605 45.5764C103.605 44.9857 103.251 44.6879 102.093 44.3036C101.374 44.0648 101.095 43.827 101.095 43.4518C101.095 43.2176 101.153 43.0942 101.342 42.9268C101.674 42.6324 102.116 42.5684 102.806 42.7147C103.287 42.8168 103.365 42.8177 103.407 42.7209C103.479 42.5533 103.353 42.487 102.789 42.3957C102.215 42.303 102.128 42.3025 101.712 42.3897ZM110.551 42.363C110.444 42.3834 110.24 42.504 110.096 42.631C109.879 42.8243 109.836 42.9229 109.836 43.2342C109.836 43.5391 109.889 43.6682 110.13 43.9477L110.423 44.2889L109.992 44.5743C109.491 44.9064 109.278 45.2793 109.343 45.7109C109.442 46.3636 109.928 46.6892 110.804 46.6895C111.45 46.6899 111.718 46.6202 112.198 46.3274L112.526 46.1271L112.851 46.4085C113.043 46.575 113.26 46.6899 113.384 46.6899C113.588 46.6899 113.585 46.6829 113.289 46.4019C112.738 45.8794 112.747 45.9212 113.081 45.3516C113.427 44.7638 113.454 44.6165 113.218 44.6165C113.107 44.6165 113.02 44.6997 112.958 44.866C112.907 45.0033 112.784 45.2332 112.685 45.3768L112.506 45.638L111.783 44.9998L111.06 44.3617L111.378 44.1547C111.846 43.8505 112.001 43.6697 112.058 43.3602C112.12 43.0221 111.967 42.6687 111.689 42.5071C111.467 42.3781 110.869 42.3024 110.551 42.363ZM154.937 42.4231C154.229 42.6269 153.883 43.1322 154.06 43.7017C154.184 44.101 154.537 44.3519 155.392 44.6499C155.812 44.7962 156.227 44.9731 156.314 45.043C156.7 45.3528 156.549 46.038 156.045 46.2696C155.829 46.3687 155.6 46.3901 155.021 46.365C154.611 46.3474 154.207 46.3058 154.124 46.2728C154.006 46.226 153.972 46.2488 153.972 46.3764C153.972 46.6083 154.283 46.6899 155.168 46.6897C156.044 46.6896 156.415 46.5627 156.718 46.1601C156.853 45.981 156.915 45.7858 156.915 45.537C156.915 44.9553 156.601 44.7014 155.384 44.2972C154.723 44.078 154.405 43.7946 154.405 43.4262C154.405 42.7265 155.46 42.4302 156.586 42.8136C156.673 42.8432 156.735 42.8047 156.765 42.7025C156.803 42.5747 156.753 42.5317 156.495 42.4674C155.932 42.3272 155.329 42.31 154.937 42.4231ZM160.3 42.3973C159.626 42.5784 159.338 42.9118 159.338 43.511C159.338 43.8301 159.377 43.9051 159.67 44.1529C159.883 44.3322 160.241 44.5106 160.664 44.6476C161.029 44.7654 161.423 44.9291 161.541 45.0113C161.995 45.3286 161.872 46.0179 161.315 46.2735C161.109 46.3682 160.871 46.3897 160.3 46.365C159.89 46.3474 159.486 46.3058 159.403 46.2728C159.285 46.226 159.251 46.2488 159.251 46.3764C159.251 46.6071 159.562 46.6899 160.428 46.6899C161.634 46.6899 162.113 46.4001 162.175 45.6329C162.229 44.9674 161.956 44.7267 160.663 44.2972C160.002 44.078 159.684 43.7946 159.684 43.4262C159.684 42.7265 160.739 42.4302 161.865 42.8136C161.951 42.843 162.014 42.8052 162.043 42.7056C162.078 42.5882 162.029 42.534 161.837 42.4746C161.442 42.3524 160.621 42.3111 160.3 42.3973ZM53.8012 44.4398C53.2903 45.5718 52.853 46.5411 52.8295 46.5939C52.8023 46.6549 52.8642 46.6899 52.9995 46.6899C53.1888 46.6899 53.2494 46.6052 53.5495 45.9219L53.8867 45.154H54.8403H55.7939L56.1243 45.9219C56.4161 46.6 56.4791 46.6899 56.6625 46.6899H56.8703L56.6995 46.2867C55.8329 44.2416 54.9723 42.4244 54.861 42.4049C54.764 42.3878 54.4909 42.9122 53.8012 44.4398ZM59.1228 44.5397V46.6899H60.4642C61.7479 46.6899 61.8056 46.6832 61.8056 46.5363C61.8056 46.3906 61.7479 46.3827 60.6806 46.3827H59.5555V45.4996V44.6165H60.594C61.5748 44.6165 61.6325 44.6079 61.6325 44.4629C61.6325 44.3178 61.5748 44.3093 60.594 44.3093H59.5555V43.503V42.6967H60.6806C61.7479 42.6967 61.8056 42.6888 61.8056 42.5431C61.8056 42.3961 61.7479 42.3895 60.4642 42.3895H59.1228V44.5397ZM69.1345 42.4391C69.1018 42.4681 69.0751 42.5379 69.0751 42.5943C69.0751 42.672 69.2624 42.6967 69.8525 42.6967H70.6299L70.653 44.6741C70.6754 46.5934 70.6812 46.6515 70.8492 46.6515C71.0172 46.6515 71.023 46.5934 71.0454 44.6741L71.0685 42.6967H71.8522C72.5521 42.6967 72.6329 42.6823 72.6068 42.5623C72.5805 42.4406 72.4176 42.4259 70.8859 42.4071C69.9554 42.3957 69.1673 42.4101 69.1345 42.4391ZM74.8936 44.515C74.916 46.5935 74.9213 46.6515 75.0897 46.6515C75.2528 46.6515 75.2642 46.5931 75.2869 45.634L75.3111 44.6165H76.6475H77.9838L78.008 45.634C78.0307 46.5931 78.0421 46.6515 78.2052 46.6515C78.3736 46.6515 78.3789 46.5935 78.4013 44.5205L78.4243 42.3895H78.2066H77.9889V43.3494V44.3093H76.6501H75.3114L75.2871 43.3686C75.2636 42.457 75.2567 42.4271 75.0667 42.4032L74.8706 42.3785L74.8936 44.515ZM81.364 44.5397V46.6899H82.6621C83.9025 46.6899 83.9602 46.683 83.9602 46.5363C83.9602 46.3906 83.9025 46.3827 82.8352 46.3827H81.7101V45.502V44.6212L82.7692 44.5997C83.6977 44.5808 83.8319 44.5615 83.8573 44.4437C83.8837 44.3214 83.7879 44.3093 82.7982 44.3093H81.7101V43.503V42.6967H82.8352C83.9025 42.6967 83.9602 42.6888 83.9602 42.5431C83.9602 42.3963 83.9025 42.3895 82.6621 42.3895H81.364V44.5397ZM86.0372 42.5431C86.0372 42.6853 86.0949 42.6967 86.8161 42.6967H87.595V44.6933C87.595 46.6386 87.5994 46.6899 87.768 46.6899C87.9367 46.6899 87.9411 46.6386 87.9411 44.6933V42.6967H88.72C89.4412 42.6967 89.4989 42.6853 89.4989 42.5431C89.4989 42.3946 89.4412 42.3895 87.768 42.3895C86.0949 42.3895 86.0372 42.3946 86.0372 42.5431ZM91.8355 44.5397C91.8355 46.6386 91.8397 46.6899 92.0086 46.6899C92.1775 46.6899 92.1817 46.6386 92.1817 44.5397C92.1817 42.4407 92.1775 42.3895 92.0086 42.3895C91.8397 42.3895 91.8355 42.4407 91.8355 44.5397ZM118.926 42.4855C118.928 42.5383 119.214 43.4972 119.562 44.6165C120.104 46.3562 120.219 46.6515 120.358 46.6515C120.496 46.6515 120.602 46.3887 121.069 44.8852C121.371 43.9138 121.639 43.0672 121.665 43.0038C121.691 42.9405 121.985 43.7439 122.319 44.7893C122.835 46.4056 122.95 46.6899 123.088 46.6899C123.177 46.6899 123.25 46.6721 123.25 46.6505C123.25 46.6184 124.357 43.0116 124.518 42.5176C124.555 42.4063 124.523 42.3823 124.368 42.4024C124.189 42.4257 124.125 42.5831 123.646 44.1747C123.357 45.1354 123.101 45.9213 123.077 45.9212C123.053 45.921 122.781 45.135 122.471 44.1744C121.938 42.5199 121.898 42.4279 121.701 42.4279C121.473 42.4279 121.522 42.3051 120.697 44.9506L120.366 46.0142L119.916 44.5282C119.669 43.7109 119.42 42.8953 119.364 42.7159C119.289 42.4735 119.219 42.3895 119.093 42.3895C118.999 42.3895 118.924 42.4327 118.926 42.4855ZM126.992 44.5205L127.015 46.6515L128.334 46.6727C129.61 46.6932 129.654 46.6886 129.654 46.5383C129.654 46.39 129.601 46.3827 128.529 46.3827H127.404V45.4996V44.6165H128.443C129.423 44.6165 129.481 44.6079 129.481 44.4629C129.481 44.3178 129.423 44.3093 128.443 44.3093H127.404V43.503V42.6967H128.529C129.596 42.6967 129.654 42.6888 129.654 42.5431C129.654 42.3961 129.596 42.3895 128.311 42.3895H126.969L126.992 44.5205ZM132.337 44.5417V46.6938L133.656 46.6727C134.832 46.6538 134.977 46.6369 135.003 46.5171C135.03 46.3944 134.93 46.3827 133.858 46.3827H132.683V44.3861C132.683 42.4407 132.679 42.3895 132.51 42.3895C132.341 42.3895 132.337 42.4407 132.337 44.5417ZM137.443 44.5397V46.6899H138.741C139.981 46.6899 140.039 46.683 140.039 46.5363C140.039 46.3906 139.981 46.3827 138.914 46.3827H137.789V44.3861C137.789 42.4407 137.785 42.3895 137.616 42.3895C137.447 42.3895 137.443 42.4407 137.443 44.5397ZM142.462 44.5397C142.462 46.6323 142.467 46.6899 142.634 46.6899C142.799 46.6899 142.806 46.6262 142.829 44.8355L142.852 42.981L144.236 44.8357C145.344 46.3192 145.656 46.6865 145.794 46.6709C145.962 46.6521 145.968 46.586 145.99 44.515L146.013 42.3785L145.817 42.4032L145.621 42.4279L145.621 44.2517C145.621 45.2548 145.618 46.0755 145.613 46.0755C145.608 46.0755 144.985 45.247 144.228 44.2344C143.115 42.7455 142.814 42.3929 142.657 42.3913L142.462 42.3895V44.5397ZM148.953 44.5397V46.6899H150.251C151.491 46.6899 151.549 46.683 151.549 46.5363C151.549 46.3906 151.491 46.3827 150.424 46.3827H149.299V45.502V44.6212L150.358 44.5997C151.287 44.5808 151.421 44.5615 151.446 44.4437C151.473 44.3214 151.377 44.3093 150.387 44.3093H149.299V43.503V42.6967H150.424C151.491 42.6967 151.549 42.6888 151.549 42.5431C151.549 42.3963 151.491 42.3895 150.251 42.3895H148.953V44.5397ZM111.335 42.7082C111.596 42.8302 111.651 42.9223 111.652 43.243C111.654 43.5561 111.454 43.8204 111.066 44.0211L110.806 44.1553L110.538 43.8853C110.221 43.5642 110.137 43.3176 110.246 43.0263C110.378 42.6727 110.92 42.5144 111.335 42.7082ZM55.4326 44.3285L55.6534 44.8468H54.8364H54.0194L54.1816 44.4821C54.2708 44.2815 54.4454 43.8954 54.5698 43.6242C54.6941 43.3529 54.7984 43.0764 54.8018 43.0098C54.8075 42.8944 54.9368 43.1647 55.4326 44.3285ZM111.507 45.2161C112.222 45.8531 112.257 45.8997 112.111 46.0132C111.475 46.5082 110.377 46.5592 109.944 46.1137C109.7 45.8623 109.678 45.2763 109.903 45.0268C110.038 44.8774 110.591 44.5407 110.703 44.54C110.728 44.5398 111.09 44.8441 111.507 45.2161Z" fill="white"/>
</svg>
