<svg width="96" height="152" viewBox="0 0 96 152" fill="none" xmlns="http://www.w3.org/2000/svg">
<g opacity="0.5">
<path fillRule="evenodd" clipRule="evenodd" d="M82.1919 32.0756C81.8785 34.548 81.9351 39.6253 82.3036 42.0612C83.4285 49.5036 86.156 56.4288 92.3234 67.502C99.6508 80.6585 101.499 85.8339 101.179 92.3058C100.99 96.1171 100.444 98.2828 98.8665 101.478C96.5569 106.156 93.0571 109.536 87.8533 112.114C84.1447 113.952 80.7763 114.795 76.2526 115.018C66.9349 115.476 56.8669 111.37 50.3392 104.448C47.0626 100.974 44.7817 97.0219 43.4149 92.4518L42.7969 90.3856L42.9448 93.2337C43.4369 102.722 49.4476 111.433 59.4333 117.128C64.9133 120.253 70.5875 121.714 77.246 121.714C81.6314 121.714 84.8199 121.245 88.1878 120.105C95.8883 117.497 102.411 111.937 105.895 105.012C108.26 100.312 109.412 93.9925 108.813 89.0015C107.908 81.4542 105.414 76.0663 97.1755 63.8538C89.3183 52.2068 86.8993 47.8064 84.722 41.199C83.7331 38.1983 83.3263 36.3321 82.4712 30.8764C82.4326 30.6291 82.3067 31.1687 82.1919 32.0756Z" fill="white"/>
<path fillRule="evenodd" clipRule="evenodd" d="M78.134 50.9728C78.134 57.3231 79.4396 61.7846 83.6421 69.793C90.1533 82.2015 91.0112 84.2821 91.3052 88.3803C91.7379 94.4088 88.1694 100.483 82.6071 103.185C79.5945 104.649 77.2795 105.199 74.0662 105.217C70.7165 105.235 67.9446 104.608 64.7579 103.11C56.4228 99.1933 52.4189 92.2872 53.4367 83.5836C54.2304 76.7998 57.9882 69.0711 64.8064 60.1996C65.8836 58.7981 66.9162 57.4517 67.1009 57.2074C67.8946 56.1596 64.5024 59.0946 61.7122 61.8701C55.047 68.4997 51.2193 74.5241 49.3445 81.3351C48.5726 84.1403 48.4108 90.3047 49.0399 92.9548C50.6056 99.5512 55.4357 105.252 62.3148 108.623C66.4673 110.658 69.0628 111.25 73.9156 111.269C78.8388 111.289 81.0676 110.811 84.9137 108.91C92.4451 105.188 96.8158 98.2777 96.8158 90.093C96.8158 84.5903 94.7632 79.8535 88.0188 69.793C81.7986 60.5147 79.8916 56.4977 78.8515 50.4845C78.592 48.9849 78.3244 47.7021 78.2569 47.6331C78.1895 47.5645 78.134 49.0673 78.134 50.9728Z" fill="white"/>
<path fillRule="evenodd" clipRule="evenodd" d="M66.2113 67.1174C62.5065 72.3224 60.1201 78.5047 59.8176 83.681C59.4976 89.1525 61.128 93.6105 64.9306 97.6619C67.7706 100.687 68.2753 100.922 67.2273 98.7277C63.4033 90.7244 62.8585 80.0085 65.8069 70.7898C66.308 69.2234 67.0323 67.2334 67.4168 66.3679C67.8013 65.5024 68.0595 64.7939 67.9905 64.7939C67.9215 64.7939 67.1209 65.8396 66.2113 67.1174Z" fill="white"/>
<rect x="1" y="1.28516" width="150" height="150" rx="75" stroke="white"/>
</g>
</svg>
