<svg width="20" height="20" viewBox="0 0 20 20" fill="none" xmlns="http://www.w3.org/2000/svg">
<g clip-path="url(#clip0_3099_12544)">
<path d="M19.999 20.0008V20H20.004V12.665C20.004 9.07667 19.2315 6.3125 15.0365 6.3125C13.0198 6.3125 11.6665 7.41917 11.114 8.46833H11.0556V6.6475H7.07812V20H11.2198V13.3883C11.2198 11.6475 11.5498 9.96417 13.7056 9.96417C15.8298 9.96417 15.8615 11.9508 15.8615 13.5V20.0008H19.999Z" fill="#EBEBEB"/>
<path d="M0.328125 6.64844H4.47479V20.0009H0.328125V6.64844Z" fill="#EBEBEB"/>
<path d="M2.40167 0C1.07583 0 0 1.07583 0 2.40167C0 3.7275 1.07583 4.82583 2.40167 4.82583C3.7275 4.82583 4.80333 3.7275 4.80333 2.40167C4.8025 1.07583 3.72667 0 2.40167 0V0Z" fill="#EBEBEB"/>
</g>
<defs>
<clipPath id="clip0_3099_12544">
<rect width="20" height="20" fill="white"/>
</clipPath>
</defs>
</svg>
