<svg width="21" height="20" viewBox="0 0 21 20" fill="none" xmlns="http://www.w3.org/2000/svg">
<g clip-path="url(#clip0_3099_12548)">
<path d="M18.9216 5.9275C19.7349 5.35 20.4191 4.62917 20.9766 3.79917V3.79833C20.2324 4.12417 19.4407 4.34083 18.6141 4.44583C19.4641 3.93833 20.1132 3.14083 20.4182 2.18C19.6257 2.6525 18.7507 2.98583 17.8182 3.1725C17.0657 2.37083 15.9932 1.875 14.8232 1.875C12.5532 1.875 10.7257 3.7175 10.7257 5.97583C10.7257 6.30083 10.7532 6.61333 10.8207 6.91083C7.4124 6.74417 4.39573 5.11083 2.36906 2.62167C2.01573 3.23583 1.8074 3.93833 1.8074 4.69417C1.8074 6.11417 2.53823 7.3725 3.62906 8.10167C2.9699 8.08917 2.32406 7.8975 1.77656 7.59667V7.64167C1.77656 9.63417 3.1974 11.2892 5.06156 11.6708C4.7274 11.7625 4.36406 11.8058 3.98656 11.8058C3.72406 11.8058 3.45906 11.7908 3.21073 11.7358C3.74156 13.3592 5.2499 14.5533 7.04156 14.5925C5.64656 15.6833 3.8749 16.3408 1.9574 16.3408C1.62156 16.3408 1.29906 16.3258 0.976562 16.285C2.79323 17.4558 4.9449 18.125 7.26656 18.125C14.5024 18.125 19.2182 12.0883 18.9216 5.9275V5.9275Z" fill="#EBEBEB"/>
</g>
<defs>
<clipPath id="clip0_3099_12548">
<rect width="20" height="20" fill="white" transform="translate(0.976562)"/>
</clipPath>
</defs>
</svg>
