<svg width="25" height="25" viewBox="0 0 25 25" fill="none" xmlns="http://www.w3.org/2000/svg">
<path d="M9.22365 4.45011V7.57511C9.22365 7.74087 9.1578 7.89985 9.04059 8.01706C8.92338 8.13427 8.76441 8.20011 8.59865 8.20011H4.84865C4.7202 8.20006 4.59489 8.16043 4.48977 8.08662C4.38465 8.01281 4.30482 7.90841 4.26115 7.78761C4.21723 7.66674 4.21166 7.53525 4.24522 7.4111C4.27878 7.28694 4.34982 7.17616 4.44865 7.09386L8.19865 3.96886C8.28998 3.89279 8.40112 3.84434 8.51901 3.82919C8.63691 3.81405 8.75668 3.83283 8.86428 3.88335C8.97187 3.93387 9.06283 4.01402 9.12648 4.11441C9.19014 4.21479 9.22384 4.33125 9.22365 4.45011ZM21.7237 11.9501V19.4501C21.7237 19.9474 21.5261 20.4243 21.1745 20.7759C20.8228 21.1276 20.3459 21.3251 19.8487 21.3251H14.8487C14.3514 21.3251 13.8745 21.1276 13.5228 20.7759C13.1712 20.4243 12.9737 19.9474 12.9737 19.4501V11.9501C12.9737 11.4528 13.1712 10.9759 13.5228 10.6243C13.8745 10.2727 14.3514 10.0751 14.8487 10.0751H19.8487C20.3459 10.0751 20.8228 10.2727 21.1745 10.6243C21.5261 10.9759 21.7237 11.4528 21.7237 11.9501ZM16.7237 17.5751H15.4737V18.8251H16.7237V17.5751ZM16.7237 15.0751H15.4737V16.3251H16.7237V15.0751ZM19.2237 17.5751H17.9737V18.8251H19.2237V17.5751ZM19.2237 15.0751H17.9737V16.3251H19.2237V15.0751ZM19.2237 12.5751H15.4737V13.8251H19.2237V12.5751ZM17.9737 5.70011V9.45011H14.8487C14.1856 9.45011 13.5497 9.71351 13.0809 10.1823C12.612 10.6512 12.3487 11.2871 12.3487 11.9501V19.4501C12.3468 19.6612 12.3741 19.8715 12.4299 20.0751H6.09865C5.60137 20.0751 5.12446 19.8776 4.77283 19.5259C4.42119 19.1743 4.22365 18.6974 4.22365 18.2001V8.82511H8.59865C8.93017 8.82511 9.24811 8.69342 9.48253 8.459C9.71695 8.22458 9.84865 7.90663 9.84865 7.57511V3.82511H16.0987C16.5959 3.82511 17.0728 4.02266 17.4245 4.37429C17.7761 4.72592 17.9737 5.20283 17.9737 5.70011ZM11.0987 14.4501H6.09865V15.7001H11.0987V14.4501ZM11.0987 11.3251H6.09865V12.5751H11.0987V11.3251Z" fill="#448666"/>
</svg>
