<svg width="19" height="19" viewBox="0 0 19 19" fill="none" xmlns="http://www.w3.org/2000/svg">
<path d="M15.8978 0.714355C16.6128 0.714355 17.2998 0.998595 17.8048 1.50454C18.3108 2.01048 18.5958 2.69669 18.5958 3.4122V16.2787C18.5958 16.9942 18.3108 17.6805 17.8048 18.1864C17.2998 18.6923 16.6128 18.9766 15.8978 18.9766H3.03076C2.31576 18.9766 1.62976 18.6923 1.12376 18.1864C0.617764 17.6805 0.332764 16.9942 0.332764 16.2787V3.4122C0.332764 2.69669 0.617764 2.01048 1.12376 1.50454C1.62976 0.998595 2.31576 0.714355 3.03076 0.714355H15.8978ZM15.8978 1.95952H3.03076C2.64576 1.95952 2.27577 2.11257 2.00377 2.385C1.73177 2.65743 1.57877 3.02692 1.57877 3.4122V10.6755H6.55876C6.70976 10.6756 6.85477 10.73 6.96777 10.8289C7.08177 10.9278 7.15477 11.0644 7.17577 11.2135L7.18176 11.2981C7.18176 11.9036 7.42176 12.4842 7.84976 12.9123C8.27776 13.3404 8.85877 13.5809 9.46477 13.5809C10.0698 13.5809 10.6508 13.3404 11.0788 12.9123C11.5068 12.4842 11.7468 11.9036 11.7468 11.2981C11.7468 11.1477 11.8018 11.0023 11.9008 10.8889C11.9998 10.7756 12.1358 10.7018 12.2848 10.6814L12.3698 10.6755H17.3508V3.4122C17.3508 3.02692 17.1968 2.65743 16.9248 2.385C16.6528 2.11257 16.2828 1.95952 15.8978 1.95952Z" fill="#DBDBDB"/>
</svg>
