<svg width="840" height="183" viewBox="0 0 840 183" fill="none" xmlns="http://www.w3.org/2000/svg">
<path fillRule="evenodd" clipRule="evenodd" d="M687.071 1.37667C681.286 2.76257 677.143 6.15476 674.223 11.8948C672.212 15.8479 671.769 17.8599 671.446 24.5065L671.061 32.4151L689.33 49.8734C699.379 59.476 708.523 68.8904 709.651 70.7956C711.071 73.1956 711.849 76.0049 712.182 79.9506C712.602 84.8975 712.427 86.0241 710.852 88.5473C708.578 92.1906 702.161 97.8809 698.671 99.35C695.554 100.662 688.835 100.768 683.615 99.5872C677.884 98.2902 669.615 89.3593 669.615 84.4646C669.615 83.6999 669.393 83.2939 669.12 83.563C668.716 83.964 668.5 90.1623 668.737 94.5385C668.82 96.063 674.908 98.8201 681.026 100.104C691.731 102.35 703.304 100.951 708.888 96.7347C711.828 94.5148 715.341 89.1139 716.624 84.8404C717.073 83.3453 717.444 79.6466 717.449 76.6212C717.464 67.3145 716.241 65.5357 696.832 46.6597C687.38 37.4679 678.874 28.6634 677.929 27.0941C675.903 23.732 675.613 17.0137 677.321 13.0052C678.906 9.28364 686.08 2.94111 689.889 1.89435C696.839 -0.0157427 702.374 1.24542 707.805 5.97704L711.615 9.29749V5.65911V2.01989L705.405 1.10601C697.643 -0.0369525 692.663 0.0364203 687.071 1.37667ZM117.612 1.6351L104.603 1.86336L107.145 3.98053L109.686 6.09769L109.448 50.2614C109.228 90.9302 109.094 94.5996 107.749 96.6295L106.289 98.8348H112.2C117.875 98.8348 118.057 98.7752 116.748 97.3437C115.558 96.0426 115.385 93.3238 115.385 75.9218C115.385 59.0456 115.585 55.7072 116.691 54.1444C117.971 52.3354 118.226 52.3085 129.662 52.7601C143.648 53.312 146.639 53.7335 148.532 55.4153C149.887 56.6186 149.973 56.423 149.973 52.1422V47.5899L146.217 49.6679C142.655 51.6384 141.857 51.7419 130.809 51.6522C121.517 51.578 118.901 51.3049 117.889 50.3054C116 48.4386 115.097 6.19064 116.901 4.06369C117.963 2.8123 119.737 2.63947 131.366 2.65659C146.444 2.67942 151.075 3.45715 154.297 6.50531L156.561 8.64857V4.83653V1.0245L143.591 1.21525C136.457 1.32042 124.767 1.50955 117.612 1.6351ZM400.202 1.61635L387.315 1.86255L389.736 4.25852L392.157 6.65532L391.916 50.0951C391.707 88.0305 391.51 93.8569 390.357 96.0686L389.038 98.6016L397.692 99.1258C406.974 99.6883 439.853 99.8546 439.853 99.3394C439.853 99.169 440.806 96.5089 441.969 93.4289L444.086 87.8291L440.528 91.2547C434.208 97.3404 430.793 98.3318 414.921 98.6888C404.837 98.9163 400.777 98.7304 399.891 98.0024C398.147 96.57 398.076 54.6906 399.814 53.2615C400.611 52.6069 404.371 52.465 412.373 52.7886C425.332 53.312 427.973 53.6789 430.588 55.3183C432.437 56.4776 432.441 56.4678 432.441 51.428V46.3752L430.588 48.0464C426.861 51.4076 425.104 51.7826 413.581 51.6824C397.667 51.5438 398.813 53.4685 398.597 26.512C398.461 9.57467 398.656 4.86669 399.537 3.81586C400.507 2.65822 402.592 2.52615 415.928 2.77724C431.749 3.0748 433.184 3.35687 437.176 6.95695L439.029 8.62819V4.81696V1.00656L426.059 1.18836C418.925 1.28782 407.289 1.4802 400.202 1.61635ZM2.26383 3.74901L4.5269 5.67622L4.5738 48.7907C4.6158 86.3951 4.45361 92.3373 3.30644 95.2836L1.99209 98.6619L4.95347 99.147C6.58322 99.4136 9.93413 99.6361 12.4006 99.641L16.8855 99.65L14.0476 96.7518L11.2098 93.8529L10.919 49.6704C10.6391 7.18929 10.6877 5.4341 12.184 4.09385C13.3798 3.02182 15.6345 2.63784 21.9452 2.43159C26.9011 2.26935 24.1811 2.09571 15.0754 1.99217L0 1.82179L2.26383 3.74901ZM202.427 3.78895L204.737 5.75612V49.2383C204.737 87.9163 204.587 93.0482 203.378 95.6839L202.018 98.6472L205.025 99.1396C206.678 99.4103 210.042 99.6361 212.498 99.641L216.966 99.65L215.278 97.8157C211.443 93.6482 211.484 94.1227 211.086 48.7035C210.64 -2.14106 209.499 2.85469 221.648 2.43159C226.193 2.27343 223.33 2.09 214.779 1.99135L200.116 1.82179L202.427 3.78895ZM295.741 4.06369L298.242 6.30558L298.252 49.4266C298.261 89.8337 298.166 92.7401 296.73 95.6121L295.199 98.6766L307.615 99.2187C314.444 99.5171 325.911 99.6443 333.099 99.5016L346.167 99.2424L347.608 95.5738C350.411 88.4397 350.357 88.284 346.346 91.9811C340.594 97.2842 337.088 98.2135 321.259 98.6318C308.459 98.9701 307.577 98.8959 306.173 97.36C304.766 95.8208 304.701 93.38 305.004 53.8705C305.339 10.2872 305.494 8.34774 308.985 3.95444L310.679 1.82179H301.96H293.24L295.741 4.06369ZM561.564 4.11097C565.057 7.34012 565.36 11.678 564.648 48.2054C564.135 74.4486 563.862 79.0694 562.746 80.3077C562.029 81.1034 561.179 81.6537 560.858 81.5306C560.536 81.4075 556.649 77.4552 552.22 72.7472C547.792 68.0392 538.231 57.9507 530.974 50.3283C523.718 42.7058 514.64 33.1676 510.802 29.1322C506.963 25.0968 499.528 17.4621 494.279 12.1671L484.735 2.5392L484.323 48.1736L483.911 93.8088L482.034 96.3214L480.156 98.8348H485.635C490.647 98.8348 491.017 98.7198 489.982 97.479C489.057 96.3687 488.88 89.5631 489.008 59.8469C489.154 25.753 489.255 23.4801 490.687 22.0624C492.169 20.595 493.033 21.4135 522.649 52.3916C539.389 69.9029 556.5 87.7908 560.672 92.1433L568.256 100.058L568.373 97.2043C568.438 95.635 568.731 74.478 569.024 50.1897L569.557 6.02841L571.554 3.9251L573.551 1.82179H566.32H559.089L561.564 4.11097ZM615.834 3.78977L618.145 5.75693V49.6467C618.145 88.4919 617.992 93.83 616.812 96.0956L615.479 98.6562L618.459 99.1437C620.099 99.4127 623.423 99.6361 625.848 99.641L630.257 99.65L627.788 96.8668C625.413 94.1879 625.296 93.6874 624.702 83.6192C624.014 71.9459 624.814 23.8861 625.871 13.4136C626.392 8.25073 626.968 6.22569 628.319 4.80147C629.291 3.77754 630.086 2.68839 630.086 2.38105C630.086 2.07289 626.36 1.82179 621.805 1.82179H613.524L615.834 3.78977ZM755.454 3.73026L757.535 5.63954L758.156 35.7282C758.919 72.7334 758.442 90.684 756.577 95.1018C755.841 96.8439 755.435 98.463 755.673 98.6994C755.912 98.935 759.335 99.2962 763.28 99.5008L770.454 99.8733L767.864 96.9532C765.874 94.7088 765.136 92.939 764.678 89.3079C763.865 82.8692 764.981 54.7656 766.102 53.4278C766.803 52.5922 773.256 52.3664 796.411 52.3664C823.865 52.3664 825.921 52.4658 827.192 53.8574C828.374 55.1496 828.555 57.7445 828.555 73.3701C828.555 91.9762 828.194 94.5075 825.062 97.8157L823.327 99.65L827.794 99.641C830.251 99.6361 833.636 99.4071 835.317 99.1315L838.374 98.6318L836.964 96.0833C835.693 93.786 835.531 89.2696 835.309 50.1016L835.063 6.66755L837.51 4.24467L839.958 1.82179H831.361H822.764L825.322 4.08325C827.756 6.2371 827.913 6.75396 828.593 14.8851C829.829 29.6751 829.58 46.8285 828.096 48.9236L826.815 50.7359H796.93C768.35 50.7359 766.983 50.6666 765.594 49.1462C764.273 47.7024 764.172 45.8926 764.485 29.3767C764.843 10.491 765.412 7.21294 769.009 3.27862C770.279 1.88864 769.95 1.82179 761.857 1.82179H753.374L755.454 3.73026ZM35.3389 4.04168C41.0838 5.71699 47.2191 11.1342 49.2384 16.315C51.4726 22.0478 51.3013 34.5013 48.9271 38.915C44.8053 46.5757 37.0313 51.3139 27.2528 52.1259L21.5252 52.6011L34.102 65.7313C41.0196 72.9527 52.7803 85.4347 60.2381 93.4689C74.4768 108.808 82.2262 115.956 88.6653 119.693C93.1189 122.276 102.072 124.926 106.308 124.914L109.209 124.906L104.919 122.929C102.559 121.841 98.4825 119.498 95.8604 117.72C89.2846 113.264 58.6282 82.2716 39.3059 60.5456L35.3422 56.0879L37.5279 54.2275C38.7294 53.2036 40.5461 52.3664 41.5648 52.3664C44.093 52.3664 50.5016 48.2209 52.7021 45.1621C56.9226 39.2941 58.0286 35.3337 57.9298 26.4321C57.8211 16.6526 56.2581 12.3938 51.2823 8.31839C47.7585 5.43246 39.2647 2.60849 34.3878 2.70305L30.9743 2.76827L35.3389 4.04168ZM231.914 3.06502C232.367 3.2297 234.364 3.77917 236.353 4.28625C238.802 4.9099 241.396 6.54282 244.387 9.34397C249.55 14.1783 251.266 18.6058 251.266 27.0941C251.266 34.5396 249.455 39.9813 245.496 44.4341C242.238 48.0986 235.064 52.3664 232.164 52.3664C231.347 52.3664 230.678 52.7332 230.678 53.1816C230.678 55.0697 240.99 53.1555 247.005 50.1514C251.973 47.6706 255.633 43.5651 257.504 38.3769C261.266 27.9387 258.074 13.3321 250.836 7.86675C247.579 5.408 238.432 2.60278 233.99 2.70142C232.395 2.73648 231.461 2.90034 231.914 3.06502ZM157.592 91.9811C152.328 97.1529 148.579 98.1654 132.267 98.8168L118.268 99.3761L137.918 99.3092L157.569 99.2424L159.496 93.9719C160.556 91.0737 161.348 88.6655 161.257 88.6223C161.166 88.5783 159.516 90.0897 157.592 91.9811ZM40.3048 156.458C36.3197 163.877 28.6758 181.209 29.1716 181.699C30.3558 182.872 32.3512 180.902 34.2214 176.716L36.2366 172.206H42.6757H49.1148L51.2988 177.097C52.9541 180.806 53.8945 181.989 55.1883 181.989C56.8881 181.989 56.8872 181.972 54.9799 177.709C48.0484 162.209 45.1191 156.077 43.855 154.42L42.4138 152.531L40.3048 156.458ZM71.7386 167.341V182.043L80.8006 181.812C92.0376 181.526 93.3445 180.045 82.6503 179.716L75.0327 179.482V173.805V168.13H82.0326C87.7059 168.13 89.0326 167.898 89.0326 166.907C89.0326 165.916 87.7059 165.684 82.0326 165.684H75.0327V160.385V155.086H82.3958C89.3167 155.086 92.3085 154.249 89.3718 153.133C88.6587 152.862 84.3986 152.64 79.9063 152.64H71.7386V167.341ZM110.934 153.885C102.966 157.999 105.315 164.745 116.136 168.82C119.108 169.94 121.755 171.547 122.514 172.693C123.696 174.48 123.692 174.829 122.469 176.677C120.745 179.283 118.187 179.876 111.178 179.294C108.057 179.034 105.503 179.095 105.503 179.427C105.503 181.264 107.992 181.989 114.301 181.989C120.592 181.989 121.318 181.814 123.61 179.747C129.351 174.568 127.102 169.946 116.916 165.99C110.814 163.62 109.168 161.876 109.985 158.649C110.69 155.869 113.964 154.849 120.12 155.493C124.325 155.932 125.268 155.814 125.268 154.845C125.268 152.512 114.933 151.821 110.934 153.885ZM141.944 153.182C137.293 153.838 139.047 155.086 144.62 155.086H149.973L149.986 167.518C149.998 179.822 150.706 183.775 152.431 181.173C152.877 180.501 153.247 174.356 153.255 167.518L153.267 155.086H158.62C161.64 155.086 163.973 154.73 163.973 154.271C163.973 153.822 162.028 153.453 159.65 153.45C157.271 153.447 152.917 153.3 149.973 153.124C147.029 152.948 143.416 152.974 141.944 153.182ZM178.808 165.421C178.819 178.921 179.217 182.256 180.754 181.752C181.31 181.57 181.774 178.794 181.918 174.79L182.157 168.13H191.149H200.141L200.381 174.79C200.637 181.929 202.084 184.262 202.968 178.963C203.252 177.264 203.488 170.646 203.493 164.257C203.501 153.181 203.425 152.64 201.855 152.64C200.346 152.64 200.208 153.184 200.208 159.162V165.684H191.184H182.16L181.919 159.375C181.719 154.126 181.437 153.019 180.238 152.794C178.914 152.543 178.797 153.571 178.808 165.421ZM223.267 167.314V181.989H232.394C239.329 181.989 241.439 181.744 241.18 180.97C240.948 180.277 238.42 179.876 233.288 179.716L225.737 179.482V173.837V168.193L232.742 167.958C236.704 167.824 239.747 167.368 239.747 166.907C239.747 166.445 236.704 165.99 232.742 165.856L225.737 165.62V160.353V155.086H233.561C237.864 155.086 241.384 154.758 241.384 154.358C241.384 153.051 238.905 152.64 231.023 152.64H223.267V167.314ZM255.59 153.18C253.023 154.205 255.02 155.086 259.913 155.086H265.266V168.082C265.266 180.243 265.801 183.361 267.586 181.595C267.895 181.288 268.28 175.199 268.441 168.062L268.733 155.086H273.588C278.242 155.086 279.891 154.18 277.14 153.135C275.594 152.548 257.076 152.586 255.59 153.18ZM294.589 153.93C293.687 156.258 294.025 181.038 294.968 181.615C295.451 181.91 296.1 181.902 296.409 181.597C297.181 180.836 297.646 160.475 296.99 156.145C296.445 152.547 295.473 151.65 294.589 153.93ZM322.929 154.475C317.51 157.215 315.99 159.786 315.673 166.745C315.349 173.863 316.956 177.405 321.763 180.158C324.473 181.71 325.985 181.963 331.494 181.788C340.706 181.495 340.82 179.804 331.654 179.425C325.269 179.161 324.454 178.932 322.186 176.781C318.156 172.959 317.369 165.662 320.384 160.085C320.946 159.045 323.09 157.457 325.146 156.556C328.232 155.205 329.821 155.017 334.229 155.485C338.462 155.933 339.496 155.829 339.21 154.979C338.277 152.208 328.038 151.89 322.929 154.475ZM358.509 154.274C352.318 158.011 353.343 163.897 360.735 167.049C369.888 170.951 371.079 171.713 371.329 173.837C371.824 178.024 369.899 179.126 361.891 179.236C356.315 179.313 354.618 179.598 354.618 180.459C354.618 181.297 356.272 181.642 361.151 181.822C370.782 182.177 374.795 179.916 374.795 174.135C374.795 170.788 371.808 168.238 365.019 165.788C361.933 164.674 359.429 163.177 358.628 161.967C357.421 160.143 357.422 159.811 358.635 157.978C360.124 155.728 363.345 154.898 369.198 155.256C373.248 155.504 374.643 154.253 371.343 153.333C367.242 152.189 361.233 152.63 358.509 154.274ZM435.435 154.33C432.735 156.432 432.565 159.977 435.002 163.365L436.741 165.781L433.355 168.649C429.017 172.326 428.692 175.958 432.378 179.606C434.569 181.775 435.289 181.989 440.407 181.985C444.594 181.983 446.726 181.562 448.758 180.336L451.485 178.689L453.825 180.339C455.113 181.246 456.826 181.989 457.633 181.989C458.865 181.989 458.745 181.62 456.889 179.702C454.24 176.964 454.193 176.34 456.323 172.206C458.336 168.301 458.342 168.13 456.485 168.13C455.571 168.13 454.384 169.379 453.397 171.376L451.794 174.622L447.287 170.678L442.779 166.733L445.846 163.871C451.439 158.649 448.893 152.64 441.088 152.64C438.811 152.64 436.853 153.226 435.435 154.33ZM511.956 153.382C511.509 154.1 518.014 175.887 519.897 179.978C521.768 184.042 522.639 182.67 527.301 168.312L530.669 157.939L534.147 168.177C538.072 179.73 539.122 181.989 540.571 181.989C541.663 181.989 550.732 153.705 549.903 152.885C548.653 151.648 546.781 155.169 544.048 163.9C542.407 169.141 540.858 173.979 540.606 174.652C540.354 175.324 538.427 170.922 536.323 164.869C533.165 155.78 532.198 153.821 530.767 153.619C529.221 153.4 528.664 154.536 525.564 164.217C523.654 170.18 522.011 175.377 521.911 175.766C521.81 176.154 520.29 171.752 518.532 165.983C516.774 160.214 515.015 154.851 514.624 154.067C513.848 152.511 512.687 152.213 511.956 153.382ZM566.675 167.287V181.989H575.734C583.237 181.989 584.793 181.778 584.793 180.766C584.793 179.77 583.42 179.543 577.381 179.543H569.969V173.836V168.13H577.038C582.325 168.13 584.02 167.873 583.766 167.111C583.539 166.433 581.168 166.013 576.697 165.855L569.969 165.618V160.352V155.086H577.449C583.067 155.086 584.845 154.832 584.588 154.067C584.35 153.357 581.584 152.978 575.461 152.816L566.675 152.585V167.287ZM603.459 153.184C603.157 153.482 602.91 160.098 602.91 167.884V182.043L611.972 181.812C623.269 181.524 624.144 180.044 613.208 179.717L605.381 179.484V166.062C605.381 153.801 605.053 151.606 603.459 153.184ZM637.998 153.93C637.723 154.639 637.498 161.243 637.498 168.604V181.989H646.557C654.06 181.989 655.615 181.778 655.615 180.766C655.615 179.77 654.243 179.543 648.204 179.543H640.792V168.639C640.792 157.589 640.278 152.64 639.13 152.64C638.783 152.64 638.273 153.221 637.998 153.93ZM672.086 167.314C672.086 179.696 672.275 181.989 673.299 181.989C674.303 181.989 674.552 179.91 674.74 169.964L674.968 157.939L684.027 169.752C689.009 176.249 693.68 181.676 694.405 181.813C695.56 182.031 695.782 180.304 696.187 167.963C696.442 160.208 696.344 153.547 695.969 153.16C694.076 151.205 693.498 154.085 693.498 165.452V177.352L685.786 167.238C677.296 156.102 674.251 152.64 672.949 152.64C672.379 152.64 672.086 157.629 672.086 167.314ZM716.308 153.157C715.992 153.471 715.733 160.086 715.733 167.858V181.989H724.791C732.294 181.989 733.85 181.778 733.85 180.766C733.85 179.77 732.477 179.543 726.438 179.543H719.027V173.868V168.193L726.032 167.958C729.994 167.824 733.036 167.368 733.036 166.907C733.036 166.445 729.994 165.99 726.032 165.856L719.027 165.62V160.353V155.086H726.507C732.124 155.086 733.902 154.832 733.646 154.067C733.273 152.953 717.358 152.118 716.308 153.157ZM754.365 154.5C750.78 156.891 749.722 159.742 751.248 162.893C752.123 164.701 753.972 165.947 759.006 168.125C762.642 169.697 766.066 171.28 766.615 171.643C768.381 172.808 767.723 176.078 765.35 177.939C763.352 179.506 762.333 179.672 756.703 179.355C752.011 179.092 750.32 179.263 750.32 179.998C750.32 181.507 752.339 181.989 758.664 181.989C765.19 181.989 768.469 180.689 769.924 177.528C772.22 172.54 769.957 169.175 762.495 166.48C754.114 163.455 751.721 160.294 755.351 157.047C756.728 155.815 758.346 155.494 763.17 155.494C772.51 155.494 770.815 152.904 761.354 152.722C758.247 152.661 756.426 153.125 754.365 154.5ZM791.065 153.778C788.415 154.921 786.555 157.981 786.555 161.197C786.555 163.758 790.402 166.591 797.137 168.991C803.32 171.193 804.897 173.355 802.72 176.643C801.014 179.221 798.647 179.82 791.859 179.392C787.347 179.108 786.536 179.254 786.742 180.317C786.933 181.313 788.422 181.632 793.747 181.818C803.966 182.175 806.867 180.101 806.175 172.93C805.892 169.999 805.715 169.875 794.379 164.707C790.833 163.092 790.226 162.47 790.007 160.227C789.631 156.388 793.235 154.703 800.293 155.419C804.462 155.842 805.496 155.719 805.496 154.803C805.496 152.591 795.468 151.88 791.065 153.778ZM444.025 155.93C446.466 157.223 445.995 160.334 442.976 162.848L440.335 165.048L438.447 162.875C434.241 158.033 438.346 152.921 444.025 155.93ZM45.6511 164.461L47.7173 169.353L43.164 169.6C40.6597 169.736 38.4197 169.658 38.1867 169.427C37.9536 169.196 38.7977 166.595 40.0627 163.648C41.3284 160.701 42.6378 158.578 42.9738 158.93C43.3098 159.282 44.5146 161.771 45.6511 164.461ZM444.755 172.252C448.953 176.037 449.156 176.39 447.868 177.664C447.001 178.523 444.686 179.157 441.617 179.377C437.474 179.673 436.483 179.468 435.004 178.004C432.5 175.526 432.733 171.92 435.529 169.854C436.775 168.934 438.35 168.187 439.029 168.192C439.709 168.199 442.285 170.025 444.755 172.252Z" fill="white"/>
</svg>
