<svg width="21" height="16" viewBox="0 0 21 16" fill="none" xmlns="http://www.w3.org/2000/svg">
<path d="M11.7861 2.75703V2.00235H12.4405C12.614 2.00235 12.7805 1.9334 12.9032 1.81067C13.026 1.68794 13.0949 1.52149 13.0949 1.34793V0.688113C13.0949 0.51455 13.026 0.348095 12.9032 0.225367C12.7805 0.102639 12.614 0.0336914 12.4405 0.0336914H8.51719C8.34362 0.0336914 8.17717 0.102639 8.05444 0.225367C7.93171 0.348095 7.86277 0.51455 7.86277 0.688113V1.34254C7.86277 1.5161 7.93171 1.68255 8.05444 1.80528C8.17717 1.92801 8.34362 1.99696 8.51719 1.99696H9.16406V2.75164C6.98364 3.06575 4.98934 4.1548 3.54635 5.81933C2.10337 7.48387 1.30828 9.61251 1.30669 11.8154H19.6445C19.6429 9.61251 18.8478 7.48387 17.4049 5.81933C15.9619 4.1548 13.9676 3.06575 11.7871 2.75164L11.7861 2.75703ZM20.3033 13.1297H0.654422C0.481603 13.1297 0.315798 13.198 0.193194 13.3198C0.0705891 13.4416 0.00113884 13.607 0 13.7798L0 15.0897C0 15.2633 0.0689478 15.4297 0.191676 15.5525C0.314404 15.6752 0.480858 15.7441 0.654422 15.7441H20.2989C20.4725 15.7441 20.639 15.6752 20.7617 15.5525C20.8844 15.4297 20.9534 15.2633 20.9534 15.0897V13.7798C20.9514 13.6075 20.8815 13.443 20.759 13.3219C20.6365 13.2008 20.4712 13.1329 20.2989 13.1329L20.3033 13.1297Z" fill="#DBDBDB"/>
</svg>
