<svg width="268" height="59" viewBox="0 0 268 59" fill="none" xmlns="http://www.w3.org/2000/svg">
<path fillRule="evenodd" clipRule="evenodd" d="M218.573 1.29887C216.736 1.74123 215.421 2.82395 214.494 4.65607C213.856 5.91781 213.715 6.56 213.613 8.68147L213.49 11.2057L219.29 16.7781C222.48 19.843 225.383 22.8479 225.741 23.456C226.192 24.2221 226.439 25.1187 226.544 26.3781C226.677 27.9571 226.622 28.3167 226.122 29.122C225.4 30.2849 223.363 32.1011 222.255 32.57C221.266 32.9887 219.133 33.0225 217.476 32.6457C215.656 32.2318 213.031 29.3812 213.031 27.8189C213.031 27.5748 212.961 27.4452 212.874 27.5311C212.746 27.6591 212.677 29.6375 212.753 31.0343C212.779 31.5209 214.712 32.4009 216.654 32.8107C220.052 33.5276 223.726 33.0811 225.499 31.7353C226.432 31.0267 227.547 29.3029 227.954 27.9389C228.097 27.4616 228.215 26.2811 228.216 25.3155C228.221 22.3449 227.833 21.7772 221.671 15.7523C218.671 12.8185 215.971 10.0083 215.671 9.50736C215.027 8.43427 214.935 6.28991 215.478 5.01047C215.981 3.82262 218.258 1.79822 219.467 1.46411C221.673 0.854445 223.431 1.25698 225.155 2.76722L226.364 3.82705V2.66574V1.50418L224.393 1.21248C221.929 0.847675 220.348 0.871094 218.573 1.29887ZM37.7971 1.38136L33.6673 1.45422L34.4743 2.12998L35.2811 2.80573L35.2053 16.9019C35.1355 29.8826 35.0929 31.0538 34.6659 31.7017L34.2024 32.4056H36.079C37.8805 32.4056 37.9382 32.3866 37.5228 31.9297C37.1451 31.5144 37.0902 30.6466 37.0902 25.0922C37.0902 19.7057 37.1537 18.6401 37.5048 18.1413C37.9111 17.5639 37.9918 17.5553 41.6223 17.6995C46.0621 17.8756 47.0116 18.0101 47.6127 18.547C48.0427 18.931 48.0702 18.8686 48.0702 17.5022V16.0492L46.8778 16.7125C45.7471 17.3414 45.4935 17.3745 41.9865 17.3458C39.0368 17.3222 38.2062 17.235 37.8849 16.916C37.2852 16.3201 36.9987 2.8354 37.5712 2.15652C37.9084 1.7571 38.4716 1.70194 42.1632 1.7074C46.95 1.71469 48.42 1.96292 49.4427 2.93584L50.1616 3.61992V2.40319V1.18647L46.0441 1.24735C43.7794 1.28092 40.0684 1.34129 37.7971 1.38136ZM127.506 1.37538L123.415 1.45396L124.183 2.21871L124.952 2.98372L124.875 16.8488C124.809 28.9571 124.746 30.8167 124.381 31.5227L123.962 32.3312L126.709 32.4985C129.655 32.678 140.093 32.7311 140.093 32.5666C140.093 32.5123 140.395 31.6632 140.765 30.6801L141.437 28.8928L140.307 29.9862C138.301 31.9286 137.217 32.245 132.178 32.359C128.977 32.4316 127.688 32.3723 127.407 32.1399C126.853 31.6827 126.831 18.3156 127.383 17.8595C127.636 17.6505 128.829 17.6053 131.369 17.7086C135.483 17.8756 136.322 17.9927 137.152 18.516C137.739 18.886 137.74 18.8829 137.74 17.2743V15.6615L137.152 16.1949C135.969 17.2678 135.411 17.3875 131.753 17.3555C126.701 17.3112 127.065 17.9256 126.996 9.32157C126.953 3.91551 127.015 2.41282 127.295 2.07742C127.603 1.70792 128.264 1.66577 132.498 1.74591C137.52 1.84089 137.976 1.93092 139.243 3.07999L139.832 3.61342V2.39695V1.18074L135.714 1.23877C133.449 1.27052 129.756 1.33192 127.506 1.37538ZM1.1796 2.05608L1.89801 2.67121L1.9129 16.4325C1.92623 28.4351 1.87474 30.3317 1.51057 31.2721L1.09333 32.3504L2.03342 32.5052C2.55079 32.5903 3.61454 32.6614 4.39752 32.6629L5.82126 32.6658L4.92038 31.7407L4.01949 30.8155L3.92721 16.7133C3.83832 3.15415 3.85375 2.59393 4.32877 2.16615C4.70836 1.82397 5.42415 1.70142 7.42747 1.63558C9.00075 1.5838 8.13726 1.52838 5.24664 1.49533L0.460938 1.44095L1.1796 2.05608ZM64.7216 2.06883L65.4552 2.69671V16.5754C65.4552 28.9206 65.4076 30.5586 65.0235 31.3999L64.5919 32.3457L65.5464 32.5029C66.0713 32.5893 67.139 32.6614 67.9189 32.6629L69.3371 32.6658L68.8012 32.0803C67.584 30.7501 67.597 30.9016 67.4705 16.4047C67.3288 0.176084 66.9667 1.77063 70.8233 1.63558C72.2664 1.5851 71.3574 1.52655 68.643 1.49507L63.988 1.44095L64.7216 2.06883ZM94.3443 2.15652L95.1382 2.87209L95.1414 16.6355C95.1445 29.5326 95.1142 30.4603 94.6585 31.377L94.1723 32.3551L98.1138 32.5281C100.282 32.6234 103.922 32.664 106.204 32.6184L110.352 32.5357L110.81 31.3647C111.699 29.0877 111.682 29.038 110.409 30.218C108.583 31.9107 107.47 32.2073 102.445 32.3408C98.3818 32.4488 98.1018 32.4251 97.6561 31.9349C97.2093 31.4436 97.1886 30.6645 97.2848 18.0539C97.3912 4.14294 97.4404 3.52391 98.5488 2.12165L99.0866 1.44095H96.3186H93.5503L94.3443 2.15652ZM178.73 2.17161C179.839 3.20229 179.935 4.58685 179.709 16.2457C179.547 24.622 179.46 26.0969 179.106 26.4921C178.878 26.7461 178.608 26.9217 178.506 26.8824C178.404 26.8431 177.17 25.5816 175.764 24.079C174.358 22.5763 171.323 19.3562 169.019 16.9233C166.716 14.4903 163.834 11.4459 162.616 10.1579C161.397 8.86986 159.037 6.43302 157.37 4.74297L154.341 1.66993L154.21 16.2355L154.079 30.8014L153.483 31.6034L152.887 32.4056H154.627C156.218 32.4056 156.335 32.3689 156.007 31.9729C155.713 31.6185 155.657 29.4462 155.697 19.9614C155.744 9.07932 155.776 8.35387 156.23 7.90137C156.701 7.433 156.975 7.69424 166.377 17.5818C171.691 23.1711 177.123 28.8806 178.447 30.2698L180.855 32.7959L180.892 31.8852C180.913 31.3843 181.005 24.6314 181.099 16.879L181.268 2.78362L181.902 2.11228L182.536 1.44095H180.24H177.945L178.73 2.17161ZM195.959 2.06909L196.692 2.69697V16.7057C196.692 29.1043 196.644 30.8082 196.269 31.5313L195.846 32.3486L196.792 32.5042C197.312 32.5901 198.368 32.6614 199.138 32.6629L200.537 32.6658L199.753 31.7774C198.999 30.9224 198.962 30.7626 198.774 27.5491C198.555 23.8232 198.809 8.48345 199.145 5.14083C199.31 3.49294 199.493 2.84659 199.922 2.392C200.23 2.06519 200.483 1.71755 200.483 1.61945C200.483 1.52109 199.3 1.44095 197.854 1.44095H195.225L195.959 2.06909ZM240.281 2.05009L240.942 2.6595L241.139 12.2632C241.381 24.0745 241.23 29.804 240.638 31.2141C240.404 31.7701 240.275 32.2869 240.351 32.3624C240.427 32.4376 241.513 32.5528 242.766 32.6182L245.043 32.7371L244.221 31.805C243.589 31.0887 243.355 30.5238 243.209 29.3648C242.951 27.3097 243.305 18.3396 243.661 17.9126C243.884 17.6459 245.932 17.5738 253.283 17.5738C261.998 17.5738 262.651 17.6055 263.054 18.0497C263.43 18.4621 263.487 19.2904 263.487 24.2778C263.487 30.2165 263.372 31.0244 262.378 32.0803L261.827 32.6658L263.246 32.6629C264.025 32.6614 265.1 32.5882 265.634 32.5003L266.604 32.3408L266.157 31.5274C265.753 30.7941 265.702 29.3526 265.631 16.8509L265.553 2.98762L266.33 2.21428L267.107 1.44095H264.378H261.649L262.461 2.16276C263.234 2.85023 263.283 3.0152 263.499 5.6105C263.892 10.3312 263.812 15.8062 263.342 16.4749L262.935 17.0534H253.448C244.375 17.0534 243.941 17.0312 243.5 16.546C243.081 16.0851 243.049 15.5075 243.148 10.2359C243.262 4.20799 243.442 3.1617 244.584 1.90594C244.987 1.46229 244.883 1.44095 242.314 1.44095H239.621L240.281 2.05009ZM11.6793 2.1495C13.5031 2.68422 15.4507 4.41329 16.0917 6.06691C16.801 7.89668 16.7466 11.8716 15.9929 13.2804C14.6845 15.7255 12.2166 17.2379 9.11238 17.497L7.29415 17.6487L11.2867 21.8396C13.4827 24.1445 17.2161 28.1286 19.5836 30.6929C24.1037 35.5889 26.5638 37.8704 28.6079 39.063C30.0217 39.8876 32.8639 40.7335 34.2087 40.7296L35.1295 40.727L33.7677 40.096C33.0184 39.7489 31.7244 39.0008 30.892 38.4335C28.8045 37.0112 19.0725 27.1189 12.9387 20.1844L11.6804 18.7616L12.3742 18.1678C12.7556 17.841 13.3324 17.5738 13.6557 17.5738C14.4583 17.5738 16.4928 16.2506 17.1913 15.2743C18.5311 13.4014 18.8822 12.1373 18.8508 9.29608C18.8163 6.17464 18.3202 4.81531 16.7406 3.51454C15.622 2.5934 12.9256 1.69205 11.3774 1.72223L10.2938 1.74305L11.6793 2.1495ZM74.0823 1.83776C74.2261 1.89032 74.8603 2.06571 75.4916 2.22755C76.2689 2.42661 77.0924 2.94781 78.0421 3.84188C79.681 5.38491 80.2259 6.79809 80.2259 9.50736C80.2259 11.8838 79.651 13.6207 78.394 15.042C77.3598 16.2116 75.0825 17.5738 74.1618 17.5738C73.9024 17.5738 73.6901 17.6909 73.6901 17.834C73.6901 18.4366 76.9635 17.8257 78.8732 16.8668C80.4501 16.075 81.6122 14.7646 82.2059 13.1086C83.4004 9.77694 82.3871 5.11481 80.0891 3.37038C79.0554 2.5856 76.1515 1.69023 74.7416 1.72171C74.2352 1.7329 73.9385 1.7852 74.0823 1.83776ZM50.4886 30.218C48.8179 31.8688 47.6276 32.1919 42.4495 32.3998L38.0052 32.5784L44.2434 32.557L50.4813 32.5357L51.0931 30.8534C51.4298 29.9284 51.6813 29.1598 51.6523 29.146C51.6232 29.1319 51.0996 29.6143 50.4886 30.218ZM13.2558 50.7978C11.9907 53.1659 9.56413 58.6977 9.72151 58.8543C10.0974 59.2285 10.7309 58.5998 11.3246 57.2637L11.9643 55.8242H14.0084H16.0525L16.7458 57.3854C17.2713 58.5691 17.5699 58.9467 17.9806 58.9467C18.5201 58.9467 18.5199 58.9412 17.9144 57.5806C15.714 52.6335 14.7841 50.6763 14.3828 50.1473L13.9253 49.5444L13.2558 50.7978ZM23.2345 54.2715V58.9639L26.1112 58.8902C29.6784 58.7989 30.0933 58.3264 26.6984 58.2212L24.2802 58.1465V56.3347V54.5232H26.5023C28.3033 54.5232 28.7245 54.4493 28.7245 54.1329C28.7245 53.8164 28.3033 53.7425 26.5023 53.7425H24.2802V52.0512V50.3598H26.6176C28.8147 50.3598 29.7644 50.0926 28.8322 49.7367C28.6058 49.65 27.2534 49.5792 25.8273 49.5792H23.2345V54.2715ZM35.6772 49.9766C33.1476 51.2896 33.8934 53.4428 37.3286 54.7436C38.2718 55.1008 39.1123 55.6139 39.3531 55.9795C39.7285 56.5499 39.7272 56.6615 39.339 57.2512C38.7916 58.0831 37.9796 58.2722 35.7545 58.0864C34.7637 58.0037 33.953 58.0229 33.953 58.1291C33.953 58.7154 34.7433 58.9467 36.7461 58.9467C38.7432 58.9467 38.9735 58.891 39.7011 58.2311C41.5237 56.578 40.8098 55.1029 37.5762 53.8401C35.639 53.0837 35.1164 52.5271 35.376 51.4972C35.5998 50.6096 36.639 50.2841 38.5934 50.4897C39.928 50.6299 40.2273 50.5922 40.2273 50.2831C40.2273 49.5384 36.9467 49.3177 35.6772 49.9766ZM45.5212 49.752C44.0447 49.9615 44.6015 50.3598 46.3709 50.3598H48.0702L48.0741 54.328C48.078 58.255 48.3028 59.5168 48.8505 58.6865C48.992 58.4718 49.1096 56.5104 49.112 54.328L49.1159 50.3598H50.8152C51.7738 50.3598 52.5145 50.2464 52.5145 50.0996C52.5145 49.9565 51.897 49.8387 51.1419 49.8376C50.3869 49.8366 49.0048 49.7897 48.0702 49.7335C47.1356 49.6773 45.9887 49.6857 45.5212 49.752ZM57.2238 53.6585C57.2275 57.9675 57.3538 59.032 57.8416 58.8712C58.018 58.8132 58.1655 57.9269 58.211 56.6491L58.287 54.5232H61.1416H63.9961L64.0722 56.6491C64.1535 58.9277 64.6128 59.6724 64.8936 57.9808C64.9835 57.4385 65.0586 55.3264 65.0601 53.2872C65.0628 49.7518 65.0387 49.5792 64.5402 49.5792C64.061 49.5792 64.0173 49.7528 64.0173 51.6609V53.7425H61.1526H58.2878L58.2115 51.7288C58.148 50.0536 58.0583 49.7002 57.6777 49.6281C57.2575 49.5483 57.2204 49.8764 57.2238 53.6585ZM71.3373 54.263V58.9467H74.2347C76.4362 58.9467 77.1062 58.8686 77.0239 58.6214C76.9504 58.4002 76.1478 58.2722 74.5186 58.2212L72.1216 58.1465V56.3449V54.5435L74.3453 54.4683C75.603 54.4256 76.569 54.2801 76.569 54.1329C76.569 53.9856 75.603 53.8401 74.3453 53.7974L72.1216 53.7222V52.041V50.3598H74.6052C75.9711 50.3598 77.0887 50.2552 77.0887 50.1275C77.0887 49.7104 76.3018 49.5792 73.7994 49.5792H71.3373V54.263ZM81.5983 49.7515C80.7835 50.0788 81.4174 50.3598 82.9709 50.3598H84.6701V54.5078C84.6701 58.3896 84.8401 59.3846 85.4066 58.821C85.5046 58.7232 85.627 56.7794 85.6779 54.5016L85.7708 50.3598H87.3119C88.7895 50.3598 89.3128 50.0708 88.4394 49.7372C87.9487 49.5498 82.0702 49.562 81.5983 49.7515ZM93.9788 49.9909C93.6923 50.734 93.7997 58.6433 94.0991 58.8272C94.2523 58.9217 94.4583 58.9191 94.5566 58.8218C94.8015 58.5787 94.9492 52.0798 94.7409 50.6979C94.5678 49.5496 94.2593 49.2631 93.9788 49.9909ZM102.975 50.1647C101.255 51.0395 100.773 51.8599 100.672 54.0811C100.569 56.3532 101.079 57.4835 102.605 58.3623C103.465 58.8577 103.946 58.9386 105.694 58.8827C108.619 58.7892 108.655 58.2493 105.745 58.1283C103.718 58.044 103.459 57.9712 102.739 57.2845C101.46 56.0646 101.21 53.7355 102.167 51.9554C102.346 51.6234 103.026 51.1165 103.679 50.829C104.659 50.3978 105.163 50.338 106.562 50.4871C107.906 50.6302 108.234 50.5969 108.144 50.3258C107.848 49.4413 104.597 49.3398 102.975 50.1647ZM114.27 50.1007C112.305 51.2935 112.63 53.1722 114.977 54.1781C117.883 55.4237 118.261 55.667 118.34 56.3449C118.497 57.6813 117.886 58.0328 115.344 58.0682C113.574 58.0927 113.035 58.1838 113.035 58.4585C113.035 58.726 113.56 58.8361 115.109 58.8933C118.166 59.0068 119.44 58.2852 119.44 56.4398C119.44 55.3717 118.492 54.5578 116.337 53.7758C115.357 53.4201 114.562 52.9424 114.308 52.556C113.925 51.9739 113.925 51.868 114.31 51.2828C114.783 50.5649 115.805 50.3 117.663 50.4142C118.949 50.4933 119.392 50.0939 118.344 49.8004C117.043 49.4353 115.135 49.5761 114.27 50.1007ZM138.69 50.1186C137.833 50.7895 137.78 51.9208 138.553 53.0023L139.105 53.7735L138.03 54.6889C136.653 55.8624 136.55 57.0217 137.72 58.1861C138.416 58.8785 138.644 58.9467 140.269 58.9456C141.598 58.9449 142.275 58.8106 142.92 58.4192L143.786 57.8936L144.529 58.4203C144.937 58.7096 145.481 58.9467 145.737 58.9467C146.129 58.9467 146.09 58.8291 145.501 58.2168C144.66 57.343 144.645 57.1437 145.322 55.8242C145.96 54.5778 145.963 54.5232 145.373 54.5232C145.083 54.5232 144.706 54.9218 144.393 55.5593L143.884 56.5954L142.453 55.3366L141.022 54.0774L141.995 53.1638C143.771 51.497 142.963 49.5792 140.485 49.5792C139.762 49.5792 139.141 49.7661 138.69 50.1186ZM162.982 49.816C162.84 50.045 164.905 56.999 165.503 58.3047C166.097 59.6021 166.374 59.1642 167.853 54.5814L168.923 51.2706L170.027 54.5383C171.273 58.2259 171.606 58.9467 172.066 58.9467C172.413 58.9467 175.292 49.9191 175.028 49.6573C174.632 49.2626 174.038 50.3864 173.17 53.1732C172.649 54.8458 172.157 56.3901 172.077 56.6048C171.997 56.8195 171.385 55.4144 170.718 53.4823C169.715 50.5813 169.408 49.956 168.954 49.8915C168.463 49.8217 168.286 50.1845 167.302 53.2742C166.696 55.1776 166.174 56.8364 166.142 56.9605C166.111 57.0844 165.628 55.6793 165.07 53.838C164.512 51.9966 163.953 50.2849 163.829 50.0346C163.583 49.5381 163.214 49.4429 162.982 49.816ZM180.353 54.2541V58.9467H183.229C185.611 58.9467 186.104 58.8795 186.104 58.5564C186.104 58.2384 185.669 58.1661 183.751 58.1661H181.399V56.3446V54.5232H183.642C185.321 54.5232 185.859 54.4412 185.778 54.1979C185.706 53.9817 184.954 53.8474 183.534 53.7972L181.399 53.7215V52.0408V50.3598H183.773C185.557 50.3598 186.121 50.2789 186.04 50.0346C185.964 49.808 185.086 49.687 183.142 49.6354L180.353 49.5615V54.2541ZM192.03 49.7528C191.934 49.848 191.856 51.9596 191.856 54.4448V58.9639L194.733 58.8902C198.319 58.7984 198.596 58.3258 195.125 58.2217L192.64 58.1473V53.8633C192.64 49.9498 192.536 49.249 192.03 49.7528ZM202.994 49.9909C202.907 50.2173 202.836 52.3249 202.836 54.6746V58.9467H205.711C208.093 58.9467 208.587 58.8795 208.587 58.5564C208.587 58.2384 208.151 58.1661 206.234 58.1661H203.881V54.6858C203.881 51.1587 203.718 49.5792 203.354 49.5792C203.244 49.5792 203.082 49.7645 202.994 49.9909ZM213.816 54.263C213.816 58.215 213.876 58.9467 214.201 58.9467C214.519 58.9467 214.598 58.2832 214.658 55.1086L214.731 51.2706L217.606 55.041C219.188 57.1146 220.671 58.847 220.901 58.8907C221.267 58.9602 221.338 58.4088 221.467 54.4698C221.548 51.9947 221.516 49.8686 221.397 49.745C220.797 49.1213 220.613 50.0403 220.613 53.6684V57.4669L218.165 54.2385C215.47 50.6841 214.503 49.5792 214.09 49.5792C213.909 49.5792 213.816 51.1717 213.816 54.263ZM227.854 49.7442C227.754 49.8444 227.671 51.9557 227.671 54.4365V58.9467H230.547C232.929 58.9467 233.423 58.8795 233.423 58.5564C233.423 58.2384 232.987 58.1661 231.07 58.1661H228.717V56.3548V54.5435L230.941 54.4683C232.199 54.4256 233.165 54.2801 233.165 54.1329C233.165 53.9856 232.199 53.8401 230.941 53.7974L228.717 53.7222V52.041V50.3598H231.092C232.875 50.3598 233.439 50.2789 233.358 50.0346C233.24 49.6791 228.187 49.4124 227.854 49.7442ZM239.935 50.1728C238.797 50.936 238.461 51.8459 238.946 52.8519C239.224 53.4287 239.811 53.8266 241.409 54.5216C242.563 55.0233 243.65 55.5286 243.824 55.6444C244.385 56.0165 244.176 57.0602 243.423 57.654C242.788 58.1541 242.465 58.2072 240.677 58.1062C239.188 58.0222 238.651 58.0766 238.651 58.3113C238.651 58.7929 239.292 58.9467 241.3 58.9467C243.372 58.9467 244.413 58.5319 244.875 57.5228C245.604 55.9309 244.885 54.8567 242.516 53.9968C239.856 53.0311 239.096 52.0221 240.249 50.9857C240.686 50.5925 241.199 50.49 242.731 50.49C245.696 50.49 245.157 49.6635 242.154 49.6053C241.168 49.586 240.59 49.7338 239.935 50.1728ZM251.586 49.9425C250.745 50.3073 250.154 51.2838 250.154 52.3104C250.154 53.1279 251.375 54.0322 253.513 54.7979C255.476 55.5008 255.977 56.1908 255.286 57.2405C254.744 58.0633 253.993 58.2545 251.838 58.1179C250.405 58.0271 250.148 58.0739 250.213 58.4133C250.274 58.731 250.747 58.8327 252.437 58.892C255.681 59.006 256.602 58.344 256.383 56.0553C256.293 55.1198 256.236 55.0803 252.638 53.4308C251.512 52.9151 251.319 52.7165 251.25 52.0007C251.131 50.7754 252.275 50.2376 254.515 50.466C255.839 50.6011 256.167 50.562 256.167 50.2696C256.167 49.5636 252.983 49.3365 251.586 49.9425ZM141.417 50.6292C142.192 51.0421 142.043 52.0348 141.085 52.8373L140.246 53.5396L139.647 52.8459C138.311 51.3005 139.615 49.669 141.417 50.6292ZM14.9529 53.3522L15.6089 54.9135L14.1634 54.9923C13.3684 55.0358 12.6573 55.0111 12.5834 54.9372C12.5094 54.8635 12.7773 54.0335 13.1789 53.0928C13.5807 52.1522 13.9964 51.4743 14.1031 51.5867C14.2097 51.6991 14.5922 52.4935 14.9529 53.3522ZM141.649 55.839C142.982 57.0469 143.046 57.1596 142.637 57.5663C142.362 57.8405 141.627 58.0427 140.653 58.113C139.338 58.2077 139.023 58.1421 138.554 57.6748C137.759 56.8838 137.833 55.7329 138.72 55.0735C139.116 54.78 139.616 54.5414 139.832 54.5432C140.047 54.5453 140.865 55.1281 141.649 55.839Z" fill="black"/>
</svg>
