<svg width="19" height="18" viewBox="0 0 19 18" fill="none" xmlns="http://www.w3.org/2000/svg">
<path fill-rule="evenodd" clip-rule="evenodd" d="M4.0084 0.154416C5.1114 -0.121584 6.2757 0.00736356 7.2871 0.513364L7.7039 0.721371C8.2072 0.973371 8.6495 1.31737 9.0111 1.72937C9.0618 1.78737 9.1525 1.78737 9.2032 1.72937C9.5648 1.31737 10.0071 0.973371 10.5104 0.721371L10.9272 0.513364C11.9386 0.00736356 13.1029 -0.121584 14.2059 0.154416C15.2659 0.419416 16.1911 1.03841 16.8333 1.89441L17.0672 2.20636C17.8143 3.20236 18.2143 4.40839 18.2143 5.64239V5.99041C18.2143 6.54241 18.1466 7.09339 18.0125 7.62939L17.9309 7.95636C17.624 9.18336 17.0743 10.3394 16.3118 11.3564L15.8365 11.9894C15.4544 12.4994 15.0364 12.9814 14.5854 13.4324L14.1034 13.9144C12.9469 15.0704 11.6096 16.0354 10.1421 16.7684C9.4923 17.0934 8.722 17.0934 8.0721 16.7684C6.6047 16.0354 5.2674 15.0704 4.1109 13.9144L3.6289 13.4324C3.1779 12.9814 2.7598 12.4994 2.3777 11.9894L1.9025 11.3564C1.14 10.3394 0.5903 9.18336 0.2834 7.95636L0.201799 7.62939C0.0676994 7.09339 0 6.54241 0 5.99041V5.64239C0 4.40839 0.4 3.20236 1.1471 2.20636L1.381 1.89441C2.0232 1.03841 2.9483 0.419416 4.0084 0.154416ZM6.5821 1.74139C5.9014 1.40139 5.1269 1.31736 4.3946 1.50036C3.6888 1.67636 3.054 2.09342 2.6041 2.69342L2.3702 3.00537C1.8032 3.76137 1.493 4.68639 1.493 5.64239V5.99041C1.493 6.43641 1.5477 6.88041 1.6557 7.31341L1.7373 7.6394C2.0018 8.6974 2.4745 9.68937 3.1256 10.5574L3.6008 11.1904C3.9433 11.6474 4.3174 12.0784 4.7203 12.4814L5.2023 12.9634C6.2496 14.0104 7.457 14.8804 8.7771 15.5404C8.9866 15.6454 9.2277 15.6454 9.4372 15.5404C10.7573 14.8804 11.9647 14.0104 13.012 12.9634L13.494 12.4814C13.8969 12.0784 14.271 11.6474 14.6135 11.1904L15.0887 10.5574C15.7397 9.68937 16.2125 8.6974 16.477 7.6394L16.5585 7.31341C16.6666 6.88041 16.7213 6.43641 16.7213 5.99041V5.64239C16.7213 4.68639 16.4111 3.76137 15.8441 3.00537L15.6102 2.69342C15.1603 2.09342 14.5254 1.67636 13.8197 1.50036C13.0874 1.31736 12.3129 1.40139 11.6322 1.74139L11.2154 1.95038C10.6764 2.21938 10.2294 2.66136 9.9508 3.21936C9.4532 4.21436 8.7579 4.20736 8.2635 3.21936C7.9849 2.66136 7.5379 2.21938 6.9989 1.95038L6.5821 1.74139Z" fill="#919191"/>
</svg>
