<svg width="18" height="18" viewBox="0 0 18 18" fill="none" xmlns="http://www.w3.org/2000/svg">
<path fillRule="evenodd" clipRule="evenodd" d="M4.39211 0.668186L4.4143 0.669618C4.85087 0.705803 5.23005 0.922762 5.57619 1.26095C6.23398 1.9034 7.64647 3.77814 7.75311 4.28834C7.87113 4.85751 7.74494 5.22718 7.36875 5.88112L7.27758 6.04228C7.10495 6.35757 7.07856 6.48776 7.132 6.63683C7.95337 8.64701 9.35498 10.0484 11.3422 10.8601C11.5304 10.9282 11.6725 10.8892 12.0702 10.661L12.2778 10.5436C12.8369 10.2369 13.1913 10.14 13.7138 10.2488C14.2223 10.3554 16.0981 11.7688 16.7395 12.4257C17.0773 12.7715 17.2947 13.1514 17.3326 13.6167C17.3725 14.7477 15.9924 16.3402 15.1505 16.819C14.1931 17.5039 12.9782 17.4925 11.6159 16.8585C8.05349 15.3761 2.60425 9.96169 1.15207 6.40368L1.06514 6.20466C0.513724 4.88674 0.525673 3.74813 1.15757 2.88973C1.73415 1.93488 3.2887 0.617155 4.39211 0.668186ZM4.32476 1.88672L4.2513 1.89049C3.68497 1.96573 2.54927 2.94348 2.17106 3.56537L2.10572 3.6626C1.7799 4.19345 1.81766 4.92248 2.27128 5.92066L2.35798 6.1236C3.82091 9.40693 8.88618 14.4019 12.107 15.7427L12.2845 15.8216C13.2163 16.2166 13.9217 16.1991 14.4929 15.7941L14.5351 15.7669C14.7118 15.6441 15.1194 15.2738 15.4333 14.9116C15.8742 14.4028 16.1239 13.9367 16.1158 13.6886C16.107 13.5824 16.0251 13.4393 15.8673 13.2778C15.3905 12.7894 13.6562 11.4827 13.4646 11.4425C13.2833 11.4047 13.1345 11.4555 12.7278 11.6895L12.5231 11.8044C11.9238 12.1277 11.5013 12.2145 10.9043 11.9978C8.591 11.0536 6.94868 9.41156 5.99448 7.07493C5.76847 6.45017 5.89013 6.00814 6.28318 5.32311L6.37682 5.15835C6.55537 4.83596 6.59316 4.69918 6.55952 4.53692C6.51923 4.3442 5.21333 2.61093 4.72432 2.13332C4.56238 1.9751 4.4201 1.89369 4.31361 1.88487L4.32476 1.88672Z" fill="white"/>
</svg>
