<svg width="21" height="21" viewBox="0 0 21 21" fill="none" xmlns="http://www.w3.org/2000/svg">
<path d="M18.6257 0.467285H2.44194C1.90702 0.469283 1.39474 0.683324 1.01741 1.06247C0.640076 1.44162 0.428501 1.95493 0.429076 2.48985L0.419373 20.6972L4.46558 16.651H18.6257C19.1616 16.6493 19.675 16.4357 20.054 16.0567C20.4329 15.6778 20.6465 15.1644 20.6482 14.6285V2.48985C20.6465 1.95396 20.4329 1.4405 20.054 1.06156C19.675 0.682629 19.1616 0.468991 18.6257 0.467285ZM4.46558 7.54733H16.6031V9.5699H4.46558V7.54733ZM12.5569 12.6048H4.46558V10.5823H12.5569V12.6048ZM16.6031 6.53605H4.46558V4.51349H16.6031V6.53605Z" fill="#DBDBDB"/>
</svg>
