<svg width="25" height="25" viewBox="0 0 25 25" fill="none" xmlns="http://www.w3.org/2000/svg">
<circle cx="12.5" cy="12.7852" r="12" fill="#DECFB3"/>
<path fillRule="evenodd" clipRule="evenodd" d="M15.4706 9.75544C15.6106 9.61671 15.7995 9.53863 15.9966 9.53809C16.1936 9.53755 16.383 9.61458 16.5237 9.75253C16.6644 9.89048 16.7452 10.0783 16.7485 10.2753C16.7519 10.4723 16.6776 10.6628 16.5416 10.8054L12.5496 15.7954C12.481 15.8693 12.3982 15.9286 12.3062 15.9698C12.2141 16.011 12.1147 16.0331 12.0139 16.035C11.9131 16.0369 11.8129 16.0184 11.7194 15.9807C11.6259 15.9429 11.5409 15.8867 11.4696 15.8154L8.82465 13.1694C8.75096 13.1008 8.69186 13.018 8.65086 12.926C8.60987 12.834 8.58783 12.7347 8.58605 12.634C8.58428 12.5333 8.6028 12.4332 8.64052 12.3398C8.67824 12.2465 8.73439 12.1616 8.80561 12.0904C8.87683 12.0192 8.96166 11.963 9.05505 11.9253C9.14844 11.8876 9.24847 11.8691 9.34917 11.8708C9.44987 11.8726 9.54918 11.8947 9.64118 11.9357C9.73318 11.9766 9.81598 12.0357 9.88465 12.1094L11.9786 14.2024L15.4516 9.77744C15.4578 9.76969 15.4645 9.76234 15.4716 9.75544H15.4706Z" fill="black"/>
</svg>
