<svg width="18" height="19" viewBox="0 0 18 19" fill="none" xmlns="http://www.w3.org/2000/svg">
<path fill-rule="evenodd" clip-rule="evenodd" d="M7.8 13.2263C8.131 13.2263 8.4 13.5033 8.4 13.8463V16.2753C11.698 14.2833 13.683 12.8743 14.88 11.6443C15.574 10.9303 15.957 10.3213 16.178 9.7403C16.402 9.1573 16.5 8.50425 16.5 7.64325C16.5 4.55925 14.082 2.0603 11.1 2.0603H6.9C3.9177 2.0603 1.5 4.55925 1.5 7.64325C1.5 10.7262 3.9177 13.2263 6.9 13.2263H7.8ZM8.4 18.0683C16.397 13.3103 18 11.3612 18 7.64325C18 3.70325 14.911 0.509277 11.1 0.509277H6.9C3.0892 0.509277 0 3.70325 0 7.64325C0 11.5833 3.0892 14.7773 6.9 14.7773V17.8893C6.9 18.3633 7.394 18.6623 7.793 18.4273C7.999 18.3063 8.202 18.1863 8.4 18.0683Z" fill="#919191"/>
</svg>
