<svg width="25" height="25" viewBox="0 0 25 25" fill="none" xmlns="http://www.w3.org/2000/svg">
<g clip-path="url(#clip0_159_26873)">
<path d="M7.81738 18.4188C9.24124 18.4188 10.3955 17.2646 10.3955 15.8407C10.3955 14.4168 9.24124 13.2626 7.81738 13.2626C6.39352 13.2626 5.23926 14.4168 5.23926 15.8407C5.23926 17.2646 6.39352 18.4188 7.81738 18.4188Z" fill="#448666"/>
<path d="M3.30566 22.9305C3.30566 23.2868 3.59394 23.5751 3.9502 23.5751H11.6846C12.0408 23.5751 12.3291 23.2868 12.3291 22.9305C12.3291 20.443 10.3049 18.4188 7.81738 18.4188C5.32988 18.4188 3.30566 20.443 3.30566 22.9305Z" fill="#448666"/>
<path d="M18.1299 18.4188C19.5537 18.4188 20.708 17.2646 20.708 15.8407C20.708 14.4168 19.5537 13.2626 18.1299 13.2626C16.706 13.2626 15.5518 14.4168 15.5518 15.8407C15.5518 17.2646 16.706 18.4188 18.1299 18.4188Z" fill="#448666"/>
<path d="M13.6182 22.9305C13.6182 23.2868 13.9064 23.5751 14.2627 23.5751H21.9971C22.3533 23.5751 22.6416 23.2868 22.6416 22.9305C22.6416 20.443 20.6174 18.4188 18.1299 18.4188C15.6424 18.4188 13.6182 20.443 13.6182 22.9305Z" fill="#448666"/>
<path d="M22.04 1.57507H3.90723C2.841 1.57507 1.97363 2.44244 1.97363 3.50867V8.66492C1.97363 9.73114 2.841 10.5985 3.90723 10.5985H6.21847L7.31869 11.6987C7.57044 11.9505 7.97834 11.9505 8.2301 11.6987L9.33036 10.5985H16.6169L17.7171 11.6987C17.9689 11.9505 18.3767 11.9505 18.6285 11.6987L19.7288 10.5985H22.04C23.1063 10.5985 23.9736 9.73114 23.9736 8.66492V3.50867C23.9736 2.44244 23.1063 1.57507 22.04 1.57507ZM10.3525 8.02039H5.19629C4.84004 8.02039 4.55176 7.73211 4.55176 7.37585C4.55176 7.0196 4.84004 6.73132 5.19629 6.73132H10.3525C10.7088 6.73132 10.9971 7.0196 10.9971 7.37585C10.9971 7.73211 10.7088 8.02039 10.3525 8.02039ZM10.3525 5.44226H5.19629C4.84004 5.44226 4.55176 5.15398 4.55176 4.79773C4.55176 4.44148 4.84004 4.1532 5.19629 4.1532H10.3525C10.7088 4.1532 10.9971 4.44148 10.9971 4.79773C10.9971 5.15398 10.7088 5.44226 10.3525 5.44226ZM20.751 8.02039H15.5947C15.2385 8.02039 14.9502 7.73211 14.9502 7.37585C14.9502 7.0196 15.2385 6.73132 15.5947 6.73132H20.751C21.1072 6.73132 21.3955 7.0196 21.3955 7.37585C21.3955 7.73211 21.1072 8.02039 20.751 8.02039ZM20.751 5.44226H15.5947C15.2385 5.44226 14.9502 5.15398 14.9502 4.79773C14.9502 4.44148 15.2385 4.1532 15.5947 4.1532H20.751C21.1072 4.1532 21.3955 4.44148 21.3955 4.79773C21.3955 5.15398 21.1072 5.44226 20.751 5.44226Z" fill="#448666"/>
</g>
<defs>
<clipPath id="clip0_159_26873">
<rect width="22" height="22" fill="white" transform="translate(1.97363 1.57507)"/>
</clipPath>
</defs>
</svg>
