<svg width="19" height="19" viewBox="0 0 19 19" fill="none" xmlns="http://www.w3.org/2000/svg">
<path fill-rule="evenodd" clip-rule="evenodd" d="M9.08301 0.190445C9.31301 -0.0465547 9.68699 -0.0465547 9.91699 0.190445L14.153 4.55446C14.441 4.85146 14.441 5.33247 14.153 5.62947C13.865 5.92647 13.398 5.92647 13.11 5.62947L10.238 2.67049V11.7805C10.238 12.1995 9.907 12.5405 9.5 12.5405C9.093 12.5405 8.76202 12.1995 8.76202 11.7805V2.67049L5.89001 5.62947C5.60201 5.92647 5.13498 5.92647 4.84698 5.62947C4.55898 5.33247 4.55898 4.85146 4.84698 4.55446L9.08301 0.190445ZM1.23798 9.80446C1.64498 9.80446 1.97498 10.1445 1.97498 10.5645V15.4285C1.97498 16.0165 2.438 16.4924 3.008 16.4924H15.992C16.562 16.4924 17.025 16.0165 17.025 15.4285V10.5645C17.025 10.1445 17.355 9.80446 17.762 9.80446C18.17 9.80446 18.5 10.1445 18.5 10.5645V15.4285C18.5 16.8555 17.377 18.0125 15.992 18.0125H3.008C1.623 18.0125 0.5 16.8555 0.5 15.4285V10.5645C0.5 10.1445 0.829976 9.80446 1.23798 9.80446Z" fill="#919191"/>
</svg>
