<svg width="20" height="16" viewBox="0 0 20 16" fill="none" xmlns="http://www.w3.org/2000/svg">
<path fillRule="evenodd" clipRule="evenodd" d="M3.28979 0.552734C1.90908 0.552734 0.789795 1.67202 0.789795 3.05273V13.0527C0.789795 14.4334 1.90908 15.5527 3.28979 15.5527H16.6231C18.0038 15.5527 19.1231 14.4334 19.1231 13.0527V3.05273C19.1231 1.67202 18.0038 0.552734 16.6231 0.552734H3.28979ZM5.48997 4.07924C5.1364 3.7846 4.61093 3.83237 4.3163 4.18594C4.02166 4.5395 4.06943 5.06497 4.423 5.35961L8.35602 8.63713C9.28314 9.40973 10.6298 9.40972 11.5569 8.63713L15.49 5.35961C15.8435 5.06497 15.8913 4.5395 15.5967 4.18594C15.302 3.83237 14.7766 3.7846 14.423 4.07924L10.49 7.35676C10.1809 7.61429 9.73203 7.61429 9.423 7.35676L5.48997 4.07924Z" fill="#868AA5"/>
</svg>
