<svg width="20" height="20" viewBox="0 0 20 20" fill="none" xmlns="http://www.w3.org/2000/svg">
<path d="M14.3773 19.9844H4.16422C3.89329 19.9844 3.63347 19.8768 3.44189 19.6852C3.25032 19.4936 3.1427 19.2338 3.1427 18.9629C3.1427 18.6919 3.25032 18.4321 3.44189 18.2405C3.63347 18.049 3.89329 17.9413 4.16422 17.9413H14.3773C14.6482 17.9413 14.9081 18.049 15.0996 18.2405C15.2912 18.4321 15.3988 18.6919 15.3988 18.9629C15.3988 19.2338 15.2912 19.4936 15.0996 19.6852C14.9081 19.8768 14.6482 19.9844 14.3773 19.9844ZM15.1719 16.9203H4.39063C3.24688 16.9203 2.14998 16.466 1.34123 15.6572C0.532476 14.8485 0.078125 13.7516 0.078125 12.6078V4.89063C0.078125 3.74688 0.532476 2.64998 1.34123 1.84123C2.14998 1.03248 3.24688 0.578125 4.39063 0.578125L15.1719 0.578125C16.3156 0.578125 17.4125 1.03248 18.2213 1.84123C19.03 2.64998 19.4844 3.74688 19.4844 4.89063V12.6089C19.4841 13.7525 19.0296 14.8491 18.2209 15.6576C17.4122 16.4661 16.3154 16.9203 15.1719 16.9203ZM7.71449 4.92189C7.42855 4.92189 7.15432 5.03548 6.95214 5.23767C6.74995 5.43985 6.63636 5.71408 6.63636 6.00002V11.2828C6.63636 11.5688 6.74995 11.843 6.95214 12.0452C7.15432 12.2474 7.42855 12.361 7.71449 12.361C7.88522 12.3609 8.05346 12.3199 8.20503 12.2413L13.3703 9.59664C13.5469 9.50617 13.6951 9.36871 13.7986 9.19941C13.9021 9.03011 13.9569 8.83554 13.9569 8.63711C13.9569 8.43868 13.9021 8.24411 13.7986 8.07481C13.6951 7.90551 13.5469 7.76805 13.3703 7.67758L8.20503 5.04264C8.05355 4.96368 7.88531 4.92226 7.71449 4.92189Z" fill="#DBDBDB"/>
</svg>
