<svg width="221" height="64" viewBox="0 0 221 64" fill="none" xmlns="http://www.w3.org/2000/svg">
<path fillRule="evenodd" clipRule="evenodd" d="M24.4976 0.990948C24.3028 2.53588 24.338 5.70854 24.5671 7.23061C25.2664 11.8811 26.9621 16.2085 30.7964 23.1278C35.352 31.3489 36.5007 34.5828 36.3018 38.627C36.1845 41.0085 35.8452 42.3618 34.8644 44.3584C33.4285 47.2813 31.2526 49.3937 28.0174 51.0047C25.7117 52.1531 23.6175 52.6799 20.8051 52.8191C15.0122 53.1055 8.75286 50.5394 4.69449 46.2143C2.65744 44.0435 1.23933 41.5739 0.389592 38.7182L0.00537109 37.4271L0.0973536 39.2067C0.403267 45.136 4.14017 50.5788 10.3484 54.1375C13.7554 56.0904 17.283 57.0033 21.4227 57.0033C24.1491 57.0033 26.1315 56.7101 28.2253 55.9975C33.0128 54.3679 37.0681 50.8938 39.2343 46.5667C40.7045 43.6295 41.4204 39.6809 41.0482 36.5622C40.4853 31.8461 38.9351 28.4793 33.8131 20.8482C28.9282 13.5703 27.4243 10.8207 26.0706 6.69185C25.4558 4.81684 25.2029 3.65069 24.6712 0.241619C24.6473 0.0870695 24.569 0.424268 24.4976 0.990948Z" fill="#87C2A5"/>
<path fillRule="evenodd" clipRule="evenodd" d="M21.9794 12.8C21.9794 16.768 22.7911 19.5559 25.4038 24.5601C29.4519 32.3138 29.9852 33.6139 30.1681 36.1747C30.4371 39.9418 28.2185 43.7371 24.7604 45.4258C22.8874 46.3405 21.4481 46.6845 19.4504 46.6955C17.3678 46.7069 15.6446 46.3148 13.6634 45.3789C8.48136 42.9314 5.99209 38.616 6.6249 33.1774C7.11833 28.9385 9.45456 24.109 13.6935 18.5655C14.3632 17.6897 15.0052 16.8484 15.12 16.6957C15.6135 16.041 13.5045 17.875 11.7698 19.6093C7.626 23.752 5.24632 27.5164 4.08073 31.7724C3.60079 33.5253 3.50019 37.3772 3.89134 39.0332C4.86472 43.1551 7.86766 46.7174 12.1445 48.8238C14.7261 50.0952 16.3398 50.4652 19.3568 50.4774C22.4176 50.4895 23.8033 50.1907 26.1944 49.0031C30.8768 46.6771 33.594 42.3593 33.594 37.245C33.594 33.8065 32.3179 30.8466 28.1248 24.5601C24.2577 18.7624 23.0721 16.2523 22.4254 12.4948C22.2642 11.5578 22.0978 10.7562 22.0558 10.7131C22.0139 10.6702 21.9794 11.6093 21.9794 12.8Z" fill="#428464"/>
<path fillRule="evenodd" clipRule="evenodd" d="M14.5561 22.8879C12.2528 26.1403 10.7691 30.0035 10.581 33.238C10.3821 36.657 11.3958 39.4426 13.7599 41.9742C15.5255 43.8648 15.8393 44.0113 15.1877 42.6402C12.8103 37.6392 12.4716 30.9432 14.3046 25.1827C14.6162 24.2039 15.0665 22.9604 15.3056 22.4195C15.5446 21.8787 15.7051 21.436 15.6622 21.436C15.6193 21.436 15.1216 22.0895 14.5561 22.8879Z" fill="#428464"/>
<path d="M71.2778 12.1274C70.3194 11.6492 70.3512 11.6444 75.0533 11.5608C77.6614 11.5147 80.0783 11.4484 80.4245 11.414C81.0085 11.3558 81.0538 11.4624 81.0538 12.8895C81.0538 13.7355 80.9279 14.4277 80.7741 14.4277C80.6203 14.4277 80.4945 14.1849 80.4945 13.8882C80.4945 12.7444 79.7861 12.47 76.8308 12.47H74.0465L74.1242 16.3154L74.202 20.1608L76.2251 20.2428C78.4428 20.3328 79.3758 20.0157 79.3758 19.1722C79.3758 18.8699 79.5016 18.6227 79.6555 18.6227C79.8151 18.6227 79.9351 19.4617 79.9351 20.5803C79.9351 22.4122 79.524 23.3079 79.3255 21.9088C79.241 21.3147 79.0905 21.275 76.649 21.199L74.0621 21.1187V24.7647V28.411H76.467C79.4614 28.411 80.5233 27.9596 81.5169 26.2646C81.9149 25.5852 82.2919 25.081 82.3545 25.1439C82.4174 25.2066 82.1358 26.1563 81.7289 27.254L80.9889 29.25L75.6378 29.212C72.6946 29.191 70.5568 29.1211 70.8868 29.0565C72.364 28.7676 72.3992 28.5514 72.3187 20.2735L72.2443 12.6099L71.2778 12.1274Z" fill="white"/>
<path d="M119.38 12.1274C118.422 11.6492 118.454 11.6444 123.156 11.5608C125.764 11.5147 128.181 11.4484 128.527 11.414C129.111 11.3558 129.156 11.4624 129.156 12.8895C129.156 13.7355 129.031 14.4277 128.877 14.4277C128.723 14.4277 128.597 14.1849 128.597 13.8882C128.597 12.7444 127.889 12.47 124.933 12.47H122.149L122.227 16.3154L122.305 20.1608L124.328 20.2428C126.545 20.3328 127.478 20.0157 127.478 19.1722C127.478 18.8699 127.604 18.6227 127.758 18.6227C127.918 18.6227 128.038 19.4617 128.038 20.5803C128.038 22.4122 127.627 23.3079 127.428 21.9088C127.344 21.3147 127.193 21.275 124.752 21.199L122.165 21.1187V24.7647V28.411H124.57C127.564 28.411 128.626 27.9596 129.619 26.2646C130.017 25.5852 130.394 25.081 130.457 25.1439C130.52 25.2066 130.238 26.1563 129.831 27.254L129.091 29.25L123.74 29.212C120.797 29.191 118.659 29.1211 118.989 29.0565C120.467 28.7676 120.502 28.5514 120.421 20.2735L120.347 12.6099L119.38 12.1274Z" fill="white"/>
<path d="M135.711 28.43C136.122 27.9767 136.163 27.011 136.09 19.6359C136.045 15.079 136.09 11.3511 136.191 11.3511C136.291 11.3514 139.374 14.5667 143.042 18.4965L149.712 25.6414L149.787 19.4116C149.829 15.9851 149.799 13.0165 149.722 12.8143C149.644 12.6121 149.17 12.2681 148.667 12.0497C147.801 11.6735 147.899 11.6537 150.551 11.666C152.594 11.6755 153.128 11.7448 152.532 11.923C152.084 12.057 151.614 12.3294 151.488 12.5282C151.362 12.7268 151.257 16.644 151.254 21.2328C151.252 25.8218 151.146 29.5344 151.019 29.483C150.891 29.4318 147.839 26.2508 144.237 22.4147L137.686 15.4392L137.611 21.7091C137.569 25.1574 137.595 28.1338 137.667 28.3235C137.74 28.5128 138.215 28.7874 138.722 28.9337C139.451 29.144 139.06 29.1968 136.847 29.1868C135.309 29.1795 134.321 29.1211 134.651 29.0565C134.981 28.9919 135.458 28.7099 135.711 28.43Z" fill="white"/>
<path d="M168.025 15.826C168.033 14.016 168.696 12.7379 170.055 11.9093C170.992 11.3377 172.561 11.2051 174.532 11.5309L175.581 11.7043L175.57 13.2757C175.559 14.8449 175.559 14.8458 175.179 13.9741C174.686 12.8423 173.732 12.1904 172.568 12.1904C170.516 12.1904 169.18 13.7157 169.542 15.6448C169.682 16.3907 170.399 17.226 172.924 19.5836C175.517 22.0041 176.187 22.7917 176.433 23.707C177.024 25.9007 176.092 28.1227 174.163 29.1202C172.967 29.7386 170.129 29.648 168.678 28.9454C167.54 28.3948 167.471 28.2938 167.475 27.1975C167.479 25.7939 167.727 24.7753 168.063 24.7753C168.198 24.7753 168.31 25.1649 168.31 25.6412C168.31 26.7341 169.042 27.9929 169.907 28.3872C170.273 28.5542 171.146 28.6907 171.847 28.6907C172.931 28.6907 173.266 28.5441 174.106 27.7048C175.028 26.7825 175.083 26.6284 174.956 25.3117C174.824 23.9316 174.756 23.8418 171.419 20.6343L168.018 17.3642L168.025 15.826Z" fill="white"/>
<path d="M54.3457 12.6099L53.3668 12.121C52.3883 11.6321 52.3894 11.6319 56.3033 11.633C60.9075 11.6344 61.8776 11.8511 63.1496 13.1633C63.9648 14.0045 64.1147 14.3754 64.2185 15.8073C64.3133 17.1212 64.2095 17.7398 63.7271 18.7365C63.1238 19.9827 61.7219 21.1397 60.8149 21.1397C60.5638 21.1397 60.3585 21.2146 60.3585 21.3064C60.3585 21.612 68.1928 30.0247 69.3884 31.0027C71.0294 32.3453 72.7446 33.1653 73.9111 33.1653C74.4556 33.1653 74.9011 33.2912 74.9011 33.445C74.9011 33.9559 71.221 33.7557 69.9421 33.1751C68.0667 32.3238 67.0607 31.3922 62.1551 25.9639C59.6185 23.1566 57.4212 20.86 57.2727 20.86C57.1242 20.86 57.0025 20.7342 57.0025 20.5803C57.0025 20.4265 57.5811 20.3007 58.2887 20.3007C60.8574 20.3007 62.3162 18.9398 62.3162 16.5431C62.3162 13.627 61.0887 12.47 57.9953 12.47H56.1635V19.9981C56.1635 24.1385 56.2452 27.7392 56.3453 27.9996C56.4451 28.2602 56.9169 28.6431 57.394 28.8506C58.1894 29.1968 58.0185 29.2259 55.3245 29.201C53.7094 29.1859 52.6582 29.1211 52.9882 29.0565C54.4654 28.7676 54.5006 28.5514 54.4201 20.2735L54.3457 12.6099Z" fill="white"/>
<path d="M88.4649 12.6099L87.4861 12.121C86.5084 11.6324 86.512 11.6319 90.5015 11.6316C94.6296 11.631 95.8864 11.8866 97.0831 12.9695C98.5763 14.3209 98.9513 17.2339 97.8595 19.0002C96.6922 20.8894 94.4062 21.7426 92.215 21.1072L90.9819 20.7498L92.3803 20.5826C95.2116 20.2445 96.4354 18.9779 96.4354 16.3853C96.4354 13.5873 95.2024 12.47 92.1146 12.47H90.2828L90.2867 19.8113C90.2886 23.8491 90.37 27.4495 90.4671 27.8122C90.5669 28.1859 91.0202 28.6361 91.5119 28.8501C92.3092 29.1971 92.14 29.2259 89.4438 29.201C87.8287 29.1859 86.7774 29.1211 87.1074 29.0565C88.5846 28.7676 88.6199 28.5514 88.5393 20.2735L88.4649 12.6099Z" fill="white"/>
<path d="M104.406 12.6099L103.427 12.121L102.448 11.6319L105.385 11.6537C107.594 11.6699 108.141 11.7415 107.592 11.9426C106.326 12.4077 106.224 13.0814 106.224 21.013V28.411H108.629C111.623 28.411 112.685 27.9596 113.679 26.2646C114.076 25.5852 114.453 25.081 114.516 25.1439C114.579 25.2066 114.297 26.1563 113.891 27.254L113.151 29.25L107.799 29.212C104.856 29.191 102.718 29.1211 103.048 29.0565C104.526 28.7676 104.561 28.5514 104.48 20.2735L104.406 12.6099Z" fill="white"/>
<path d="M158.941 12.6099L157.962 12.121L156.983 11.6319L159.92 11.6537C162.128 11.6699 162.675 11.7415 162.127 11.9426C161.727 12.0897 161.255 12.5262 161.079 12.9125C160.733 13.6715 160.609 27.1374 160.94 27.9996C161.04 28.2602 161.512 28.6431 161.989 28.8506C162.785 29.1968 162.614 29.2259 159.92 29.201C158.305 29.1859 157.253 29.1211 157.583 29.0565C159.06 28.7676 159.096 28.5514 159.015 20.2735L158.941 12.6099Z" fill="white"/>
<path d="M182.712 12.6099L181.734 12.121L180.755 11.6319L183.691 11.6537C185.9 11.6699 186.447 11.7415 185.899 11.9426C184.795 12.3478 184.53 13.2914 184.53 16.818V20.021H189.704H194.878L194.874 16.5951C194.871 14.7107 194.757 12.9913 194.619 12.774C194.482 12.5567 194.011 12.2208 193.575 12.0276C192.871 11.7163 193.115 11.6738 195.717 11.6542L198.653 11.6319L197.675 12.121L196.696 12.6099L196.621 20.2735C196.541 28.5514 196.576 28.7676 198.053 29.0565C198.383 29.1211 197.332 29.1859 195.717 29.201C192.971 29.2262 192.839 29.2027 193.68 28.8372C194.812 28.3447 194.92 27.8922 194.819 24.0762L194.738 20.9998H189.704H184.67L184.589 24.0762C184.488 27.8922 184.596 28.3447 185.729 28.8372C186.569 29.2027 186.437 29.2262 183.691 29.201C182.076 29.1859 181.025 29.1211 181.355 29.0565C182.832 28.7676 182.867 28.5514 182.787 20.2735L182.712 12.6099Z" fill="white"/>
<path fillRule="evenodd" clipRule="evenodd" d="M71.8667 39.2701C70.8405 39.5628 70.2961 40.1229 70.2971 40.8855C70.298 41.7763 70.8475 42.2312 72.642 42.8271C74.1287 43.3206 74.5629 44.1506 73.7547 44.9536C73.3704 45.3355 73.3606 45.3378 72.1306 45.3378C71.45 45.3378 70.7246 45.2962 70.5187 45.2451C70.1817 45.1617 70.1484 45.1789 70.1873 45.4168C70.2423 45.7554 70.597 45.8406 72.0113 45.8555C73.4765 45.8709 74.1322 45.6131 74.5428 44.8604C75.1613 43.7267 74.5896 42.9792 72.5504 42.2555C71.4248 41.8561 71.265 41.7617 71.0483 41.3681C70.8433 40.9957 70.8298 40.8631 70.9607 40.511C71.046 40.2819 71.2484 40.0172 71.4107 39.9228C71.8717 39.6548 72.8007 39.5996 73.6101 39.7921C74.3084 39.9582 74.529 39.9159 74.5371 39.6142C74.5437 39.3631 72.4753 39.0966 71.8667 39.2701ZM120.014 39.2657C118.245 39.6014 117.323 40.732 117.316 42.5732C117.308 44.7387 118.477 45.861 120.743 45.863C122.02 45.8642 122.4 45.7865 122.4 45.5245C122.4 45.3502 122.255 45.3327 121.165 45.3749C120.106 45.416 119.851 45.3877 119.387 45.1777C118.701 44.8669 118.342 44.4614 118.091 43.7121C117.728 42.6267 117.912 41.3758 118.551 40.5791C119.152 39.8301 120.49 39.4999 121.735 39.7934C122.5 39.9737 122.666 39.9559 122.666 39.6932C122.666 39.3767 120.915 39.0945 120.014 39.2657ZM127.72 39.2794C126.249 39.5875 125.654 41.0897 126.653 41.9755C126.864 42.1626 127.47 42.4602 128 42.6366C129.363 43.0905 129.784 43.3418 129.956 43.8033C130.152 44.3308 129.865 44.9586 129.312 45.2124C128.858 45.4204 127.238 45.4643 126.543 45.2873C126.146 45.1864 126.113 45.1991 126.113 45.449C126.113 45.7828 126.492 45.8672 127.991 45.8672C129.683 45.8672 130.619 45.2597 130.619 44.1614C130.619 43.2565 130.078 42.8003 128.304 42.2116C127.202 41.8457 126.776 41.4814 126.776 40.9067C126.776 40.5477 126.864 40.3588 127.153 40.1023C127.662 39.6513 128.339 39.5532 129.396 39.7774C130.133 39.9339 130.253 39.9352 130.317 39.7868C130.428 39.5301 130.234 39.4285 129.37 39.2887C128.49 39.1466 128.358 39.1459 127.72 39.2794ZM141.261 39.2386C141.098 39.2698 140.784 39.4546 140.565 39.6492C140.231 39.9453 140.166 40.0963 140.166 40.5733C140.166 41.0403 140.248 41.2381 140.616 41.6663L141.066 42.189L140.406 42.6263C139.638 43.1351 139.311 43.7062 139.411 44.3675C139.562 45.3674 140.307 45.8662 141.649 45.8668C142.639 45.8672 143.05 45.7605 143.784 45.312L144.287 45.0051L144.784 45.4362C145.078 45.6912 145.412 45.8672 145.601 45.8672C145.913 45.8672 145.91 45.8566 145.456 45.4261C144.612 44.6256 144.625 44.6897 145.138 43.8171C145.667 42.9165 145.709 42.6909 145.347 42.6909C145.177 42.6909 145.044 42.8184 144.949 43.0732C144.87 43.2834 144.682 43.6357 144.531 43.8556L144.256 44.2558L143.148 43.2781L142.041 42.3005L142.529 41.9835C143.246 41.5175 143.483 41.2404 143.57 40.7663C143.664 40.2483 143.43 39.7069 143.004 39.4593C142.665 39.2618 141.748 39.1458 141.261 39.2386ZM209.259 39.3306C208.175 39.6429 207.645 40.4169 207.916 41.2895C208.107 41.9012 208.647 42.2856 209.957 42.742C210.601 42.9663 211.236 43.2372 211.369 43.3442C211.961 43.8189 211.73 44.8687 210.957 45.2235C210.626 45.3753 210.276 45.408 209.388 45.3696C208.76 45.3425 208.142 45.2789 208.014 45.2283C207.833 45.1566 207.782 45.1915 207.782 45.387C207.782 45.7423 208.258 45.8672 209.613 45.867C210.955 45.8669 211.524 45.6724 211.989 45.0557C212.195 44.7813 212.29 44.4822 212.29 44.101C212.29 43.2099 211.809 42.821 209.944 42.2017C208.933 41.8659 208.445 41.4318 208.445 40.8674C208.445 39.7954 210.061 39.3415 211.786 39.9289C211.919 39.9742 212.014 39.9153 212.06 39.7587C212.118 39.5629 212.042 39.4971 211.647 39.3986C210.784 39.1838 209.86 39.1574 209.259 39.3306ZM217.476 39.2911C216.443 39.5686 216.002 40.0794 216.002 40.9974C216.002 41.4862 216.061 41.601 216.511 41.9806C216.836 42.2553 217.386 42.5286 218.034 42.7385C218.592 42.9191 219.196 43.1698 219.376 43.2957C220.073 43.7818 219.884 44.8379 219.031 45.2294C218.715 45.3745 218.351 45.4074 217.476 45.3696C216.847 45.3425 216.229 45.2789 216.101 45.2283C215.92 45.1566 215.869 45.1915 215.869 45.387C215.869 45.7405 216.345 45.8672 217.672 45.8672C219.52 45.8672 220.254 45.4234 220.348 44.248C220.431 43.2285 220.013 42.8597 218.031 42.2017C217.02 41.8659 216.532 41.4318 216.532 40.8674C216.532 39.7954 218.148 39.3415 219.873 39.9289C220.005 39.974 220.101 39.916 220.146 39.7634C220.199 39.5836 220.125 39.5006 219.831 39.4095C219.225 39.2224 217.968 39.1591 217.476 39.2911ZM54.3217 42.4203C53.539 44.1543 52.869 45.6394 52.8331 45.7202C52.7915 45.8137 52.8863 45.8672 53.0935 45.8672C53.3834 45.8672 53.4764 45.7376 53.936 44.6908L54.4527 43.5144H55.9136H57.3745L57.8807 44.6908C58.3276 45.7296 58.4241 45.8672 58.7052 45.8672H59.0235L58.7618 45.2496C57.4343 42.1166 56.1158 39.3327 55.9453 39.3027C55.7967 39.2766 55.3782 40.08 54.3217 42.4203ZM62.4743 42.5732V45.8672H64.5293C66.4959 45.8672 66.5843 45.8571 66.5843 45.6319C66.5843 45.4088 66.4959 45.3967 64.8607 45.3967H63.1372V44.0438V42.6909H64.7282C66.2307 42.6909 66.3191 42.6778 66.3191 42.4556C66.3191 42.2333 66.2307 42.2203 64.7282 42.2203H63.1372V40.985V39.7498H64.8607C66.4959 39.7498 66.5843 39.7376 66.5843 39.5145C66.5843 39.2893 66.4959 39.2792 64.5293 39.2792H62.4743V42.5732ZM77.8121 39.3552C77.762 39.3996 77.721 39.5066 77.721 39.5929C77.721 39.712 78.0079 39.7498 78.912 39.7498H80.1029L80.1383 42.7791C80.1727 45.7195 80.1815 45.8084 80.4389 45.8084C80.6962 45.8084 80.7051 45.7195 80.7394 42.7791L80.7748 39.7498H81.9755C83.0477 39.7498 83.1715 39.7278 83.1316 39.5439C83.0913 39.3575 82.8416 39.3349 80.4951 39.3061C79.0696 39.2887 77.8622 39.3107 77.8121 39.3552ZM86.6349 42.5353C86.6692 45.7196 86.6773 45.8084 86.9353 45.8084C87.1852 45.8084 87.2026 45.719 87.2374 44.2496L87.2744 42.6909H89.3217H91.369L91.406 44.2496C91.4409 45.719 91.4583 45.8084 91.7082 45.8084C91.9662 45.8084 91.9743 45.7196 92.0086 42.5438L92.0439 39.2792H91.7103H91.3767V40.7497V42.2203H89.3258H87.275L87.2377 40.7791C87.2017 39.3826 87.1912 39.3368 86.9 39.3001L86.5996 39.2624L86.6349 42.5353ZM96.5473 42.5732V45.8672H98.536C100.436 45.8672 100.525 45.8568 100.525 45.6319C100.525 45.4088 100.436 45.3967 98.8012 45.3967H97.0777V44.0474V42.6981L98.7002 42.6651C100.123 42.6361 100.328 42.6066 100.367 42.4262C100.408 42.2389 100.261 42.2203 98.7446 42.2203H97.0777V40.985V39.7498H98.8012C100.436 39.7498 100.525 39.7376 100.525 39.5145C100.525 39.2897 100.436 39.2792 98.536 39.2792H96.5473V42.5732ZM103.707 39.5145C103.707 39.7323 103.795 39.7498 104.9 39.7498H106.093V42.8085C106.093 45.7888 106.1 45.8672 106.358 45.8672C106.617 45.8672 106.623 45.7888 106.623 42.8085V39.7498H107.817C108.921 39.7498 109.01 39.7323 109.01 39.5145C109.01 39.2871 108.921 39.2792 106.358 39.2792C103.795 39.2792 103.707 39.2871 103.707 39.5145ZM112.59 42.5732C112.59 45.7888 112.596 45.8672 112.855 45.8672C113.113 45.8672 113.12 45.7888 113.12 42.5732C113.12 39.3576 113.113 39.2792 112.855 39.2792C112.596 39.2792 112.59 39.3576 112.59 42.5732ZM154.092 39.4262C154.094 39.5072 154.533 40.9762 155.067 42.6909C155.896 45.3561 156.073 45.8084 156.285 45.8084C156.497 45.8084 156.659 45.4058 157.375 43.1026C157.838 41.6144 158.249 40.3174 158.288 40.2203C158.328 40.1233 158.779 41.3541 159.29 42.9556C160.08 45.4317 160.256 45.8672 160.467 45.8672C160.604 45.8672 160.716 45.8401 160.716 45.8069C160.716 45.7578 162.412 40.2322 162.659 39.4754C162.715 39.3049 162.667 39.2681 162.429 39.2989C162.154 39.3346 162.056 39.5758 161.322 42.014C160.879 43.4858 160.487 44.6899 160.451 44.6896C160.414 44.6894 159.997 43.4852 159.523 42.0136C158.706 39.4789 158.644 39.338 158.342 39.338C157.994 39.338 158.069 39.1499 156.805 43.2027L156.297 44.8322L155.608 42.5557C155.229 41.3036 154.849 40.0541 154.763 39.7792C154.647 39.4079 154.54 39.2792 154.347 39.2792C154.204 39.2792 154.089 39.3454 154.092 39.4262ZM166.448 42.5438L166.483 45.8084L168.505 45.8409C170.459 45.8723 170.527 45.8654 170.527 45.635C170.527 45.4078 170.446 45.3967 168.803 45.3967H167.08V44.0438V42.6909H168.671C170.173 42.6909 170.262 42.6778 170.262 42.4556C170.262 42.2333 170.173 42.2203 168.671 42.2203H167.08V40.985V39.7498H168.803C170.438 39.7498 170.527 39.7376 170.527 39.5145C170.527 39.2893 170.438 39.2792 168.47 39.2792H166.413L166.448 42.5438ZM174.637 42.5763V45.8734L176.657 45.8409C178.459 45.8119 178.682 45.7862 178.722 45.6025C178.762 45.4147 178.609 45.3967 176.967 45.3967H175.167V42.3379C175.167 39.3576 175.16 39.2792 174.902 39.2792C174.643 39.2792 174.637 39.3576 174.637 42.5763ZM182.459 42.5732V45.8672H184.448C186.348 45.8672 186.437 45.8568 186.437 45.6319C186.437 45.4088 186.348 45.3967 184.713 45.3967H182.989V42.3379C182.989 39.3576 182.983 39.2792 182.724 39.2792C182.465 39.2792 182.459 39.3576 182.459 42.5732ZM190.149 42.5732C190.149 45.779 190.156 45.8672 190.412 45.8672C190.665 45.8672 190.676 45.7697 190.71 43.0264L190.745 40.1854L192.867 43.0267C194.563 45.2994 195.041 45.8621 195.253 45.8382C195.51 45.8094 195.519 45.7082 195.553 42.5353L195.589 39.2624L195.288 39.3001L194.988 39.338L194.988 42.132C194.988 43.6688 194.983 44.9261 194.975 44.9261C194.968 44.9261 194.013 43.6568 192.854 42.1055C191.149 39.8246 190.688 39.2844 190.447 39.282L190.149 39.2792V42.5732ZM200.092 42.5732V45.8672H202.081C203.981 45.8672 204.07 45.8568 204.07 45.6319C204.07 45.4088 203.981 45.3967 202.346 45.3967H200.623V44.0474V42.6981L202.245 42.6651C203.668 42.6361 203.873 42.6066 203.912 42.4262C203.952 42.2389 203.806 42.2203 202.289 42.2203H200.623V40.985V39.7498H202.346C203.981 39.7498 204.07 39.7376 204.07 39.5145C204.07 39.2897 203.981 39.2792 202.081 39.2792H200.092V42.5732ZM142.462 39.7674C142.862 39.9543 142.946 40.0954 142.948 40.5868C142.951 41.0664 142.645 41.4714 142.05 41.7788L141.651 41.9843L141.242 41.5708C140.755 41.0788 140.627 40.701 140.793 40.2548C140.996 39.7131 141.826 39.4705 142.462 39.7674ZM56.821 42.2497L57.1592 43.0438H55.9076H54.6559L54.9044 42.485C55.0411 42.1777 55.3086 41.5862 55.4991 41.1707C55.6895 40.755 55.8494 40.3315 55.8546 40.2295C55.8633 40.0527 56.0614 40.4668 56.821 42.2497ZM142.726 43.6095C143.821 44.5853 143.875 44.6568 143.652 44.8307C142.678 45.589 140.995 45.667 140.332 44.9846C139.957 44.5995 139.923 43.7018 140.268 43.3195C140.475 43.0906 141.323 42.5747 141.495 42.5737C141.533 42.5734 142.087 43.0395 142.726 43.6095Z" fill="white"/>
<path d="M53.6963 61.0015V53.8015H56.4763C56.5463 53.8015 56.6247 53.8048 56.7113 53.8115C56.8013 53.8148 56.8913 53.8248 56.9813 53.8415C57.358 53.8981 57.6763 54.0298 57.9363 54.2365C58.1997 54.4398 58.398 54.6965 58.5313 55.0065C58.668 55.3165 58.7363 55.6598 58.7363 56.0365C58.7363 56.4098 58.668 56.7515 58.5313 57.0615C58.3947 57.3715 58.1947 57.6298 57.9313 57.8365C57.6713 58.0398 57.3547 58.1698 56.9813 58.2265C56.8913 58.2398 56.8013 58.2498 56.7113 58.2565C56.6247 58.2631 56.5463 58.2665 56.4763 58.2665H54.4313V61.0015H53.6963ZM54.4313 57.5665H56.4563C56.5163 57.5665 56.5863 57.5631 56.6663 57.5565C56.7463 57.5498 56.8247 57.5381 56.9013 57.5215C57.148 57.4681 57.3497 57.3665 57.5063 57.2165C57.6663 57.0665 57.7847 56.8881 57.8613 56.6815C57.9413 56.4748 57.9813 56.2598 57.9813 56.0365C57.9813 55.8131 57.9413 55.5981 57.8613 55.3915C57.7847 55.1815 57.6663 55.0015 57.5063 54.8515C57.3497 54.7015 57.148 54.5998 56.9013 54.5465C56.8247 54.5298 56.7463 54.5198 56.6663 54.5165C56.5863 54.5098 56.5163 54.5065 56.4563 54.5065H54.4313V57.5665ZM61.7572 61.1515C61.2205 61.1515 60.7622 61.0298 60.3822 60.7865C60.0022 60.5431 59.7105 60.2065 59.5072 59.7765C59.3039 59.3465 59.2022 58.8531 59.2022 58.2965C59.2022 57.7298 59.3055 57.2331 59.5122 56.8065C59.7189 56.3798 60.0122 56.0481 60.3922 55.8115C60.7755 55.5715 61.2305 55.4515 61.7572 55.4515C62.2972 55.4515 62.7572 55.5731 63.1372 55.8165C63.5205 56.0565 63.8122 56.3915 64.0122 56.8215C64.2155 57.2481 64.3172 57.7398 64.3172 58.2965C64.3172 58.8631 64.2155 59.3615 64.0122 59.7915C63.8089 60.2181 63.5155 60.5515 63.1322 60.7915C62.7489 61.0315 62.2905 61.1515 61.7572 61.1515ZM61.7572 60.4465C62.3572 60.4465 62.8039 60.2481 63.0972 59.8515C63.3905 59.4515 63.5372 58.9331 63.5372 58.2965C63.5372 57.6431 63.3889 57.1231 63.0922 56.7365C62.7989 56.3498 62.3539 56.1565 61.7572 56.1565C61.3539 56.1565 61.0205 56.2481 60.7572 56.4315C60.4972 56.6115 60.3022 56.8631 60.1722 57.1865C60.0455 57.5065 59.9822 57.8765 59.9822 58.2965C59.9822 58.9465 60.1322 59.4681 60.4322 59.8615C60.7322 60.2515 61.1739 60.4465 61.7572 60.4465ZM66.1749 61.0015L64.5249 55.5965L65.2599 55.6015L66.5399 59.7965L67.8249 55.6015H68.4949L69.7799 59.7965L71.0699 55.6015H71.7999L70.1499 61.0015H69.5099L68.1599 56.7015L66.8149 61.0015H66.1749ZM74.5903 61.1515C74.0637 61.1515 73.607 61.0348 73.2203 60.8015C72.837 60.5681 72.5387 60.2398 72.3253 59.8165C72.112 59.3931 72.0053 58.8965 72.0053 58.3265C72.0053 57.7365 72.1103 57.2265 72.3203 56.7965C72.5303 56.3665 72.8253 56.0348 73.2053 55.8015C73.5887 55.5681 74.0403 55.4515 74.5603 55.4515C75.0937 55.4515 75.5487 55.5748 75.9253 55.8215C76.302 56.0648 76.587 56.4148 76.7803 56.8715C76.9737 57.3281 77.062 57.8731 77.0453 58.5065H76.2953V58.2465C76.282 57.5465 76.1303 57.0181 75.8403 56.6615C75.5537 56.3048 75.1337 56.1265 74.5803 56.1265C74.0003 56.1265 73.5553 56.3148 73.2453 56.6915C72.9387 57.0681 72.7853 57.6048 72.7853 58.3015C72.7853 58.9815 72.9387 59.5098 73.2453 59.8865C73.5553 60.2598 73.9937 60.4465 74.5603 60.4465C74.947 60.4465 75.2837 60.3581 75.5703 60.1815C75.8603 60.0015 76.0887 59.7431 76.2553 59.4065L76.9403 59.6715C76.727 60.1415 76.412 60.5065 75.9953 60.7665C75.582 61.0231 75.1137 61.1515 74.5903 61.1515ZM72.5253 58.5065V57.8915H76.6503V58.5065H72.5253ZM77.9549 61.0015V55.6015H78.6149V56.9015L78.4849 56.7315C78.5449 56.5715 78.6233 56.4248 78.7199 56.2915C78.8166 56.1548 78.9216 56.0431 79.0349 55.9565C79.1749 55.8331 79.3383 55.7398 79.5249 55.6765C79.7116 55.6098 79.8999 55.5715 80.0899 55.5615C80.2799 55.5481 80.4533 55.5615 80.6099 55.6015V56.2915C80.4133 56.2415 80.1983 56.2298 79.9649 56.2565C79.7316 56.2831 79.5166 56.3765 79.3199 56.5365C79.1399 56.6765 79.0049 56.8448 78.9149 57.0415C78.8249 57.2348 78.7649 57.4415 78.7349 57.6615C78.7049 57.8781 78.6899 58.0931 78.6899 58.3065V61.0015H77.9549ZM85.5854 61.1515C85.0887 61.1515 84.6687 61.0265 84.3254 60.7765C83.9821 60.5231 83.7221 60.1815 83.5454 59.7515C83.3687 59.3181 83.2804 58.8331 83.2804 58.2965C83.2804 57.7498 83.3687 57.2631 83.5454 56.8365C83.7254 56.4065 83.9887 56.0681 84.3354 55.8215C84.6821 55.5748 85.1087 55.4515 85.6154 55.4515C86.1087 55.4515 86.5321 55.5765 86.8854 55.8265C87.2387 56.0765 87.5087 56.4165 87.6954 56.8465C87.8854 57.2765 87.9804 57.7598 87.9804 58.2965C87.9804 58.8365 87.8854 59.3215 87.6954 59.7515C87.5054 60.1815 87.2321 60.5231 86.8754 60.7765C86.5187 61.0265 86.0887 61.1515 85.5854 61.1515ZM83.1554 61.0015V53.8015H83.8954V56.9365H83.8154V61.0015H83.1554ZM85.5104 60.4665C85.8871 60.4665 86.2004 60.3715 86.4504 60.1815C86.7004 59.9915 86.8871 59.7331 87.0104 59.4065C87.1371 59.0765 87.2004 58.7065 87.2004 58.2965C87.2004 57.8898 87.1387 57.5231 87.0154 57.1965C86.8921 56.8698 86.7037 56.6115 86.4504 56.4215C86.2004 56.2315 85.8821 56.1365 85.4954 56.1365C85.1187 56.1365 84.8054 56.2281 84.5554 56.4115C84.3087 56.5948 84.1237 56.8498 84.0004 57.1765C83.8771 57.4998 83.8154 57.8731 83.8154 58.2965C83.8154 58.7131 83.8771 59.0865 84.0004 59.4165C84.1237 59.7431 84.3104 59.9998 84.5604 60.1865C84.8104 60.3731 85.1271 60.4665 85.5104 60.4665ZM89.3847 63.4015L90.4297 60.5665L90.4447 61.4065L88.0797 55.6015H88.8597L90.7997 60.4565H90.4797L92.2697 55.6015H93.0197L90.1197 63.4015H89.3847ZM95.4901 61.0015V53.8015H98.2701C98.3401 53.8015 98.4184 53.8048 98.5051 53.8115C98.5951 53.8148 98.6851 53.8248 98.7751 53.8415C99.1518 53.8981 99.4701 54.0298 99.7301 54.2365C99.9934 54.4398 100.192 54.6965 100.325 55.0065C100.462 55.3165 100.53 55.6598 100.53 56.0365C100.53 56.5798 100.387 57.0515 100.1 57.4515C99.8134 57.8515 99.4034 58.1031 98.8701 58.2065L98.6151 58.2665H96.2251V61.0015H95.4901ZM99.8501 61.0015L98.4301 58.0715L99.1351 57.8015L100.695 61.0015H99.8501ZM96.2251 57.5665H98.2501C98.3101 57.5665 98.3801 57.5631 98.4601 57.5565C98.5401 57.5498 98.6184 57.5381 98.6951 57.5215C98.9418 57.4681 99.1434 57.3665 99.3001 57.2165C99.4601 57.0665 99.5784 56.8881 99.6551 56.6815C99.7351 56.4748 99.7751 56.2598 99.7751 56.0365C99.7751 55.8131 99.7351 55.5981 99.6551 55.3915C99.5784 55.1815 99.4601 55.0015 99.3001 54.8515C99.1434 54.7015 98.9418 54.5998 98.6951 54.5465C98.6184 54.5298 98.5401 54.5198 98.4601 54.5165C98.3801 54.5098 98.3101 54.5065 98.2501 54.5065H96.2251V57.5665ZM103.884 61.1515C103.357 61.1515 102.9 61.0348 102.514 60.8015C102.13 60.5681 101.832 60.2398 101.619 59.8165C101.405 59.3931 101.299 58.8965 101.299 58.3265C101.299 57.7365 101.404 57.2265 101.614 56.7965C101.824 56.3665 102.119 56.0348 102.499 55.8015C102.882 55.5681 103.334 55.4515 103.854 55.4515C104.387 55.4515 104.842 55.5748 105.219 55.8215C105.595 56.0648 105.88 56.4148 106.074 56.8715C106.267 57.3281 106.355 57.8731 106.339 58.5065H105.589V58.2465C105.575 57.5465 105.424 57.0181 105.134 56.6615C104.847 56.3048 104.427 56.1265 103.874 56.1265C103.294 56.1265 102.849 56.3148 102.539 56.6915C102.232 57.0681 102.079 57.6048 102.079 58.3015C102.079 58.9815 102.232 59.5098 102.539 59.8865C102.849 60.2598 103.287 60.4465 103.854 60.4465C104.24 60.4465 104.577 60.3581 104.864 60.1815C105.154 60.0015 105.382 59.7431 105.549 59.4065L106.234 59.6715C106.02 60.1415 105.705 60.5065 105.289 60.7665C104.875 61.0231 104.407 61.1515 103.884 61.1515ZM101.819 58.5065V57.8915H105.944V58.5065H101.819ZM109.527 61.1515C109.03 61.1515 108.61 61.0265 108.267 60.7765C107.923 60.5231 107.663 60.1815 107.487 59.7515C107.31 59.3181 107.222 58.8331 107.222 58.2965C107.222 57.7498 107.31 57.2631 107.487 56.8365C107.667 56.4065 107.93 56.0681 108.277 55.8215C108.623 55.5748 109.05 55.4515 109.557 55.4515C110.05 55.4515 110.473 55.5765 110.827 55.8265C111.18 56.0765 111.45 56.4165 111.637 56.8465C111.827 57.2765 111.922 57.7598 111.922 58.2965C111.922 58.8365 111.827 59.3215 111.637 59.7515C111.447 60.1815 111.173 60.5231 110.817 60.7765C110.46 61.0265 110.03 61.1515 109.527 61.1515ZM107.097 63.4015V55.6015H107.757V59.6665H107.837V63.4015H107.097ZM109.452 60.4665C109.828 60.4665 110.142 60.3715 110.392 60.1815C110.642 59.9915 110.828 59.7331 110.952 59.4065C111.078 59.0765 111.142 58.7065 111.142 58.2965C111.142 57.8898 111.08 57.5231 110.957 57.1965C110.833 56.8698 110.645 56.6115 110.392 56.4215C110.142 56.2315 109.823 56.1365 109.437 56.1365C109.06 56.1365 108.747 56.2281 108.497 56.4115C108.25 56.5948 108.065 56.8498 107.942 57.1765C107.818 57.4998 107.757 57.8731 107.757 58.2965C107.757 58.7131 107.818 59.0865 107.942 59.4165C108.065 59.7431 108.252 59.9998 108.502 60.1865C108.752 60.3731 109.068 60.4665 109.452 60.4665ZM112.92 61.0015V53.6515H113.655V61.0015H112.92ZM117.239 61.1515C116.712 61.1515 116.255 61.0348 115.869 60.8015C115.485 60.5681 115.187 60.2398 114.974 59.8165C114.76 59.3931 114.654 58.8965 114.654 58.3265C114.654 57.7365 114.759 57.2265 114.969 56.7965C115.179 56.3665 115.474 56.0348 115.854 55.8015C116.237 55.5681 116.689 55.4515 117.209 55.4515C117.742 55.4515 118.197 55.5748 118.574 55.8215C118.95 56.0648 119.235 56.4148 119.429 56.8715C119.622 57.3281 119.71 57.8731 119.694 58.5065H118.944V58.2465C118.93 57.5465 118.779 57.0181 118.489 56.6615C118.202 56.3048 117.782 56.1265 117.229 56.1265C116.649 56.1265 116.204 56.3148 115.894 56.6915C115.587 57.0681 115.434 57.6048 115.434 58.3015C115.434 58.9815 115.587 59.5098 115.894 59.8865C116.204 60.2598 116.642 60.4465 117.209 60.4465C117.595 60.4465 117.932 60.3581 118.219 60.1815C118.509 60.0015 118.737 59.7431 118.904 59.4065L119.589 59.6715C119.375 60.1415 119.06 60.5065 118.644 60.7665C118.23 61.0231 117.762 61.1515 117.239 61.1515ZM115.174 58.5065V57.8915H119.299V58.5065H115.174ZM124.357 61.0015V58.2465C124.357 57.9465 124.329 57.6715 124.272 57.4215C124.215 57.1681 124.124 56.9481 123.997 56.7615C123.874 56.5715 123.712 56.4248 123.512 56.3215C123.315 56.2181 123.075 56.1665 122.792 56.1665C122.532 56.1665 122.302 56.2115 122.102 56.3015C121.905 56.3915 121.739 56.5215 121.602 56.6915C121.469 56.8581 121.367 57.0615 121.297 57.3015C121.227 57.5415 121.192 57.8148 121.192 58.1215L120.672 58.0065C120.672 57.4531 120.769 56.9881 120.962 56.6115C121.155 56.2348 121.422 55.9498 121.762 55.7565C122.102 55.5631 122.492 55.4665 122.932 55.4665C123.255 55.4665 123.537 55.5165 123.777 55.6165C124.02 55.7165 124.225 55.8515 124.392 56.0215C124.562 56.1915 124.699 56.3865 124.802 56.6065C124.905 56.8231 124.98 57.0548 125.027 57.3015C125.074 57.5448 125.097 57.7881 125.097 58.0315V61.0015H124.357ZM120.452 61.0015V55.6015H121.117V56.9315H121.192V61.0015H120.452ZM126.294 54.5765V53.7515H127.029V54.5765H126.294ZM126.294 61.0015V55.6015H127.029V61.0015H126.294ZM130.343 61.1465C129.71 61.1465 129.188 61.0098 128.778 60.7365C128.372 60.4631 128.122 60.0831 128.028 59.5965L128.778 59.4715C128.858 59.7781 129.04 60.0231 129.323 60.2065C129.61 60.3865 129.963 60.4765 130.383 60.4765C130.793 60.4765 131.117 60.3915 131.353 60.2215C131.59 60.0481 131.708 59.8131 131.708 59.5165C131.708 59.3498 131.67 59.2148 131.593 59.1115C131.52 59.0048 131.368 58.9065 131.138 58.8165C130.908 58.7265 130.565 58.6198 130.108 58.4965C129.618 58.3631 129.235 58.2298 128.958 58.0965C128.682 57.9631 128.485 57.8098 128.368 57.6365C128.252 57.4598 128.193 57.2448 128.193 56.9915C128.193 56.6848 128.28 56.4165 128.453 56.1865C128.627 55.9531 128.867 55.7731 129.173 55.6465C129.48 55.5165 129.837 55.4515 130.243 55.4515C130.65 55.4515 131.013 55.5181 131.333 55.6515C131.657 55.7815 131.917 55.9648 132.113 56.2015C132.31 56.4381 132.427 56.7131 132.463 57.0265L131.713 57.1615C131.663 56.8448 131.505 56.5948 131.238 56.4115C130.975 56.2248 130.64 56.1281 130.233 56.1215C129.85 56.1115 129.538 56.1848 129.298 56.3415C129.058 56.4948 128.938 56.6998 128.938 56.9565C128.938 57.0998 128.982 57.2231 129.068 57.3265C129.155 57.4265 129.312 57.5215 129.538 57.6115C129.768 57.7015 130.095 57.7998 130.518 57.9065C131.015 58.0331 131.405 58.1665 131.688 58.3065C131.972 58.4465 132.173 58.6115 132.293 58.8015C132.413 58.9915 132.473 59.2265 132.473 59.5065C132.473 60.0165 132.283 60.4181 131.903 60.7115C131.527 61.0015 131.007 61.1465 130.343 61.1465ZM137.282 61.0015V58.2465C137.282 57.9465 137.254 57.6715 137.197 57.4215C137.141 57.1681 137.049 56.9481 136.922 56.7615C136.799 56.5715 136.637 56.4248 136.437 56.3215C136.241 56.2181 136.001 56.1665 135.717 56.1665C135.457 56.1665 135.227 56.2115 135.027 56.3015C134.831 56.3915 134.664 56.5215 134.527 56.6915C134.394 56.8581 134.292 57.0615 134.222 57.3015C134.152 57.5415 134.117 57.8148 134.117 58.1215L133.597 58.0065C133.597 57.4531 133.694 56.9881 133.887 56.6115C134.081 56.2348 134.347 55.9498 134.687 55.7565C135.027 55.5631 135.417 55.4665 135.857 55.4665C136.181 55.4665 136.462 55.5165 136.702 55.6165C136.946 55.7165 137.151 55.8515 137.317 56.0215C137.487 56.1915 137.624 56.3865 137.727 56.6065C137.831 56.8231 137.906 57.0548 137.952 57.3015C137.999 57.5448 138.022 57.7881 138.022 58.0315V61.0015H137.282ZM133.377 61.0015V53.8015H134.042V57.8665H134.117V61.0015H133.377ZM139.12 61.0015V53.8015H139.795L142.625 59.8565L145.44 53.8015H146.125V60.9965H145.425V55.4415L142.86 61.0015H142.385L139.825 55.4415V61.0015H139.12ZM147.328 61.0015V53.8015H149.513C149.59 53.8015 149.72 53.8031 149.903 53.8065C150.09 53.8098 150.268 53.8231 150.438 53.8465C150.985 53.9231 151.441 54.1265 151.808 54.4565C152.175 54.7865 152.45 55.2065 152.633 55.7165C152.816 56.2265 152.908 56.7881 152.908 57.4015C152.908 58.0148 152.816 58.5765 152.633 59.0865C152.45 59.5965 152.175 60.0165 151.808 60.3465C151.441 60.6765 150.985 60.8798 150.438 60.9565C150.271 60.9765 150.093 60.9898 149.903 60.9965C149.713 60.9998 149.583 61.0015 149.513 61.0015H147.328ZM148.088 60.2965H149.513C149.65 60.2965 149.796 60.2931 149.953 60.2865C150.113 60.2765 150.25 60.2598 150.363 60.2365C150.783 60.1631 151.121 59.9931 151.378 59.7265C151.638 59.4598 151.828 59.1265 151.948 58.7265C152.068 58.3231 152.128 57.8815 152.128 57.4015C152.128 56.9181 152.068 56.4748 151.948 56.0715C151.828 55.6681 151.638 55.3348 151.378 55.0715C151.118 54.8081 150.78 54.6398 150.363 54.5665C150.25 54.5431 150.111 54.5281 149.948 54.5215C149.788 54.5115 149.643 54.5065 149.513 54.5065H148.088V60.2965Z" fill="white"/>
</svg>
