<svg width="24" height="24" viewBox="0 0 24 24" fill="none" xmlns="http://www.w3.org/2000/svg">
<path d="M3 6.5C3 5.572 3.36799 4.68199 4.02499 4.02499C4.68099 3.36899 5.571 3 6.5 3H17C17.928 3 18.818 3.36899 19.475 4.02499C20.131 4.68199 20.5 5.572 20.5 6.5V17C20.5 17.928 20.131 18.819 19.475 19.475C18.818 20.131 17.928 20.5 17 20.5H6.5C5.571 20.5 4.68099 20.131 4.02499 19.475C3.36799 18.819 3 17.928 3 17V6.5Z" stroke="#9B9B9B" stroke-width="2" stroke-linecap="round" stroke-linejoin="round"/>
<path d="M8.68698 10.875C9.89498 10.875 10.875 9.89599 10.875 8.68799C10.875 7.47999 9.89498 6.5 8.68698 6.5C7.47898 6.5 6.5 7.47999 6.5 8.68799C6.5 9.89599 7.47898 10.875 8.68698 10.875Z" stroke="#9B9B9B" stroke-width="2" stroke-linecap="round" stroke-linejoin="round"/>
<path d="M13.96 12.0379L6.5 20.2439H17.236C18.102 20.2439 18.932 19.8999 19.544 19.2879C20.156 18.6759 20.5 17.8459 20.5 16.9799C20.5 16.5729 20.347 16.1799 20.071 15.8779L16.545 12.0319C16.38 11.8529 16.18 11.7099 15.958 11.6119C15.735 11.5149 15.494 11.4639 15.251 11.4649C15.008 11.4649 14.768 11.5169 14.545 11.6149C14.323 11.7139 14.124 11.8579 13.96 12.0379Z" stroke="#9B9B9B" stroke-width="2" stroke-linecap="round" stroke-linejoin="round"/>
</svg>
