<svg width="22" height="21" viewBox="0 0 22 21" fill="none" xmlns="http://www.w3.org/2000/svg">
<path d="M8.77359 8.37305C9.28655 8.37305 9.71403 8.49925 10.056 8.75167C10.398 9.00408 10.6239 9.34809 10.7339 9.78371H10.001C9.90741 9.55165 9.7527 9.36641 9.53693 9.22799C9.32523 9.08957 9.07282 9.02036 8.77969 9.02036C8.511 9.02036 8.26876 9.08347 8.05299 9.20967C7.84129 9.33588 7.67437 9.51501 7.55223 9.74707C7.43417 9.97913 7.37514 10.2519 7.37514 10.5654C7.37514 10.8951 7.4362 11.1781 7.55834 11.4142C7.68047 11.6503 7.85146 11.8315 8.07131 11.9577C8.29522 12.0799 8.55374 12.1409 8.84687 12.1409C9.20513 12.1409 9.5125 12.031 9.76899 11.8112C10.0255 11.5872 10.1802 11.2819 10.2331 10.8951H8.65145V10.3822H10.8194V11.0478C10.7705 11.3654 10.6565 11.6544 10.4774 11.915C10.3023 12.1715 10.0682 12.3771 9.7751 12.5318C9.48604 12.6865 9.15424 12.7638 8.77969 12.7638C8.36036 12.7638 7.98988 12.6702 7.66826 12.4829C7.34664 12.2956 7.0983 12.0371 6.92324 11.7073C6.74817 11.3735 6.66064 10.9928 6.66064 10.5654C6.66064 10.1379 6.74817 9.75928 6.92324 9.42952C7.0983 9.09568 7.3446 8.83716 7.66215 8.65396C7.98378 8.46668 8.35425 8.37305 8.77359 8.37305Z" fill="#919191"/>
<path d="M12.2205 8.40969V12.7211H11.5243V8.40969H12.2205Z" fill="#919191"/>
<path d="M15.6094 8.40969V8.97151H13.7591V10.3089H15.2858V10.8463H13.7591V12.7211H13.0629V8.40969H15.6094Z" fill="#919191"/>
<path d="M8.58411 19.1683H13.6731C17.9139 19.1683 19.6102 17.472 19.6102 13.2312V8.14221C19.6102 3.9014 17.9139 2.20508 13.6731 2.20508H8.58411C4.3433 2.20508 2.64697 3.9014 2.64697 8.14221V13.2312C2.64697 17.472 4.3433 19.1683 8.58411 19.1683Z" stroke="#919191" stroke-linecap="round" stroke-linejoin="round"/>
</svg>
