<svg width="25" height="25" viewBox="0 0 25 25" fill="none" xmlns="http://www.w3.org/2000/svg">
<g clip-path="url(#clip0_6343_6180)">
<path d="M8.97363 11.3353H8.39363C7.60214 11.3067 6.81321 11.4411 6.07581 11.7301C5.3384 12.0191 4.66826 12.4565 4.10697 13.0153L3.94697 13.202V18.722H6.66697V15.5886L7.03363 15.1753L7.2003 14.982C8.06825 14.0903 9.14882 13.4342 10.3403 13.0753C9.74377 12.6214 9.27329 12.0224 8.97363 11.3353Z" fill="#DBDBDB"/>
<path d="M21.867 12.9953C21.3057 12.4365 20.6355 11.9991 19.8981 11.7101C19.1607 11.4211 18.3718 11.2867 17.5803 11.3153C17.3375 11.316 17.095 11.3293 16.8536 11.3553C16.5484 11.9999 16.0907 12.5605 15.5203 12.9886C16.7923 13.3405 17.9446 14.0319 18.8536 14.9886L19.0203 15.1753L19.3803 15.5886V18.7286H22.007V13.182L21.867 12.9953Z" fill="#DBDBDB"/>
<path d="M8.37363 10.0351H8.5803C8.48427 9.21056 8.62895 8.37588 8.99685 7.63179C9.36476 6.8877 9.94017 6.266 10.6536 5.84173C10.395 5.44663 10.0382 5.12547 9.61817 4.9097C9.19813 4.69392 8.72926 4.59093 8.25746 4.61082C7.78566 4.6307 7.32711 4.77277 6.92671 5.02312C6.52632 5.27346 6.1978 5.62351 5.97333 6.03896C5.74887 6.45442 5.63615 6.92105 5.64621 7.39317C5.65627 7.86528 5.78877 8.32668 6.03074 8.7322C6.2727 9.13772 6.61583 9.47344 7.02653 9.7065C7.43723 9.93957 7.90141 10.062 8.37363 10.0617V10.0351Z" fill="#DBDBDB"/>
<path d="M17.2603 9.53523C17.2684 9.68846 17.2684 9.84201 17.2603 9.99523C17.3882 10.0155 17.5174 10.0267 17.647 10.0286H17.7736C18.2438 10.0035 18.6994 9.85712 19.0962 9.60369C19.493 9.35025 19.8174 8.9984 20.0378 8.58238C20.2582 8.16636 20.3672 7.70035 20.3541 7.22972C20.3409 6.75909 20.2062 6.29989 19.9629 5.8968C19.7196 5.49372 19.3761 5.1605 18.9658 4.92959C18.5555 4.69867 18.0924 4.57793 17.6216 4.57911C17.1508 4.58029 16.6883 4.70337 16.2792 4.93634C15.87 5.16932 15.5282 5.50427 15.287 5.90857C15.8904 6.30252 16.3865 6.8401 16.7309 7.47308C17.0753 8.10606 17.2572 8.81463 17.2603 9.53523Z" fill="#DBDBDB"/>
<path d="M12.887 12.522C14.5328 12.522 15.867 11.1878 15.867 9.54201C15.867 7.8962 14.5328 6.56201 12.887 6.56201C11.2412 6.56201 9.90697 7.8962 9.90697 9.54201C9.90697 11.1878 11.2412 12.522 12.887 12.522Z" fill="#DBDBDB"/>
<path d="M13.047 14.1085C12.1763 14.0734 11.3076 14.2147 10.493 14.524C9.6784 14.8334 8.93481 15.3043 8.30696 15.9085L8.1403 16.0952V20.3152C8.1429 20.4526 8.17255 20.5882 8.22757 20.7142C8.28259 20.8402 8.36189 20.9541 8.46095 21.0495C8.56 21.1448 8.67687 21.2197 8.80487 21.2699C8.93287 21.32 9.06951 21.3445 9.20696 21.3418H16.867C17.0044 21.3445 17.1411 21.32 17.2691 21.2699C17.3971 21.2197 17.5139 21.1448 17.613 21.0495C17.712 20.9541 17.7913 20.8402 17.8464 20.7142C17.9014 20.5882 17.931 20.4526 17.9336 20.3152V16.1085L17.7736 15.9085C17.1498 15.3025 16.4088 14.8302 15.5961 14.5207C14.7833 14.2112 13.9159 14.0709 13.047 14.1085Z" fill="#DBDBDB"/>
</g>
<defs>
<clipPath id="clip0_6343_6180">
<rect width="24" height="24" fill="white" transform="translate(0.973633 0.575195)"/>
</clipPath>
</defs>
</svg>
