<svg width="23" height="22" viewBox="0 0 23 22" fill="none" xmlns="http://www.w3.org/2000/svg">
<path d="M22.3327 12.405C22.3327 12.5455 22.2729 12.672 22.1535 12.7844C22.0341 12.8968 21.8514 12.9916 21.6055 13.0689C21.3596 13.1462 21.1067 13.2129 20.8468 13.2691C20.5868 13.3253 20.2566 13.371 19.8561 13.4061C19.4557 13.4413 19.1044 13.4659 18.8023 13.4799C18.5002 13.494 18.1173 13.508 17.6536 13.5221C17.1899 13.5361 16.8351 13.5431 16.5892 13.5431H12.8902V10.8453H12.8692C12.8551 10.1989 12.7287 9.63689 12.4898 9.15919C12.8692 9.06079 13.2275 8.99049 13.5647 8.94839V8.29498C12.2158 7.47998 11.5413 5.79388 11.5413 3.23656C11.5413 2.18271 11.9172 1.38882 12.6689 0.854875C13.4207 0.320925 14.3937 0.0539551 15.5881 0.0539551C16.7824 0.0539551 17.7555 0.320925 18.5072 0.854875C19.259 1.38882 19.6348 2.18271 19.6348 3.23656C19.6348 5.89223 18.9604 7.59948 17.6115 8.35818V8.94839C19.0306 9.14509 20.1688 9.53848 21.0259 10.1287C21.883 10.7188 22.3186 11.4776 22.3327 12.405ZM9.518 16.4517V17.0419C10.9371 17.2386 12.0753 17.6356 12.9324 18.2327C13.7895 18.8299 14.2251 19.5852 14.2392 20.4985C14.2392 20.639 14.1794 20.7655 14.06 20.8779C13.9406 20.9903 13.7579 21.0851 13.512 21.1624C13.2661 21.2397 13.0132 21.3064 12.7533 21.3626C12.4933 21.4188 12.1631 21.4645 11.7626 21.4996C11.3622 21.5348 11.0109 21.5629 10.7088 21.5839C10.4067 21.605 10.0238 21.6191 9.5601 21.6261C9.0964 21.6331 8.7416 21.6366 8.4957 21.6366H6.4934L5.4291 21.6261L4.2804 21.5839L3.2265 21.4996L2.2359 21.3626L1.4772 21.1624L0.929199 20.8779L0.75 20.4985C0.7641 19.5852 1.1996 18.8299 2.0568 18.2327C2.9139 17.6356 4.052 17.2386 5.4712 17.0419V16.3885C4.1223 15.5735 3.4478 13.8874 3.4478 11.3301C3.4478 10.2762 3.8237 9.48229 4.5754 8.94839C5.3272 8.41438 6.3002 8.14749 7.4946 8.14749C8.6889 8.14749 9.662 8.41438 10.4137 8.94839C11.1655 9.48229 11.5413 10.2762 11.5413 11.3301C11.5413 13.9857 10.8669 15.693 9.518 16.4517Z" fill="#DBDBDB"/>
</svg>
