<svg width="21" height="21" viewBox="0 0 21 21" fill="none" xmlns="http://www.w3.org/2000/svg">
<path fill-rule="evenodd" clip-rule="evenodd" d="M7.63623 0.58983C6.06574 0.841293 4.83439 2.26882 4.57457 4.13928C4.35601 5.71251 5.05369 7.04877 7.07345 8.92525C7.76216 9.56513 10.9226 12.2895 10.9761 12.2895C11.028 12.2895 14.17 9.57908 14.8579 8.94089C16.2532 7.64636 17.0356 6.57059 17.2974 5.58666C17.6804 4.14757 17.047 2.26151 15.8583 1.30111C15.5154 1.02405 15.0711 0.792556 14.6543 0.673703C14.4156 0.605659 14.2498 0.587211 13.882 0.587797C13.3284 0.588618 13.0725 0.648025 12.541 0.898941C12.0847 1.11441 11.7735 1.33558 11.3235 1.76429L10.9712 2.10002L10.6505 1.78782C10.0788 1.23139 9.46982 0.854777 8.85844 0.679683C8.57691 0.599054 7.89273 0.548753 7.63623 0.58983ZM0.991121 8.09778C1.00537 10.3797 1.02075 11.0061 1.07364 11.4607C1.29697 13.3794 1.70587 14.6642 2.43822 15.7484C2.76499 16.2321 3.4877 16.9437 4.18156 17.4648C5.43886 18.4092 5.652 18.7609 5.69365 19.9596L5.71504 20.5752H8.05165H10.3883L10.3876 17.9859C10.3868 15.1466 10.3831 15.0928 10.1542 14.603C9.75439 13.7476 8.6382 12.7687 7.40201 12.1894C6.61243 11.8194 5.90343 11.6273 5.32211 11.6259C4.79422 11.6247 4.61095 11.7225 4.61095 12.0057C4.61095 12.2762 4.97078 12.7706 5.53485 13.2749C5.84651 13.5536 6.33001 13.8515 6.75792 14.0286C6.89747 14.0864 7.02688 14.1482 7.0455 14.1659C7.07337 14.1924 6.97437 14.4847 6.69777 15.1926C6.66341 15.2805 6.62621 15.2693 6.05813 15.0007C5.4074 14.6929 4.89505 14.3356 4.41433 13.8543C3.51549 12.9543 3.05709 11.9322 2.85371 10.3744C2.82986 10.1917 2.79481 9.38265 2.7758 8.57655C2.73977 7.04627 2.69535 6.59208 2.54151 6.18038C2.3087 5.55743 1.92849 5.29353 1.26371 5.29353H0.973633L0.991121 8.09778ZM11.5593 5.87979V6.46604H12.1449H12.7304V7.05229V7.63855H12.1449H11.5593V8.2248V8.81105H10.9738H10.3883V8.2248V7.63855H9.80271H9.21718V7.05229V6.46604H9.80271H10.3883V5.87979V5.29353H10.9738H11.5593V5.87979ZM20.1989 5.34977C19.7734 5.48301 19.5117 5.79169 19.3512 6.34996C19.2361 6.75037 19.2069 7.11021 19.1726 8.55701C19.127 10.4781 19.0203 11.2447 18.6781 12.1115C18.3964 12.825 18.0555 13.3383 17.4937 13.8951C17.0475 14.3373 16.5124 14.706 15.8895 15.0007C15.3214 15.2693 15.2842 15.2805 15.2498 15.1926C14.9752 14.4899 14.8743 14.1928 14.9021 14.1687C14.9207 14.1524 15.0325 14.0993 15.1506 14.0506C15.5899 13.8694 16.1045 13.5555 16.3959 13.2909C17.3064 12.4643 17.5736 11.8701 17.1201 11.6804C16.9298 11.6008 16.333 11.6112 15.9313 11.701C14.7537 11.9643 13.5182 12.6417 12.6191 13.517C12.205 13.9201 11.9651 14.2356 11.7934 14.603C11.5645 15.0928 11.5607 15.1466 11.56 17.9859L11.5593 20.5752H13.8959H16.2325L16.2539 19.9596C16.2955 18.7644 16.4936 18.431 17.7075 17.5138C18.5024 16.9132 19.1795 16.2437 19.533 15.7088C20.2763 14.5839 20.6786 13.2727 20.894 11.2733C20.9205 11.0266 20.9452 9.7523 20.9559 8.07824L20.9736 5.29353L20.6677 5.29615C20.4995 5.2976 20.2886 5.32171 20.1989 5.34977Z" fill="#DBDBDB"/>
</svg>
