<svg width="35" height="34" viewBox="0 0 35 34" fill="none" xmlns="http://www.w3.org/2000/svg">
<path fill-rule="evenodd" clip-rule="evenodd" d="M3.22659 20.3032C5.91076 24.3511 10.4544 28.8192 17.5006 33.5029C24.5468 28.8192 29.0904 24.3511 31.7746 20.3032H26.2509C26.0325 20.3031 25.8191 20.2373 25.6382 20.1142C25.4573 19.9911 25.3172 19.8163 25.2359 19.6124L22.0486 11.6002L18.5528 23.9045C18.4903 24.1252 18.3608 24.3207 18.1823 24.4636C18.0038 24.6066 17.7854 24.6898 17.5575 24.7017C17.3297 24.7136 17.1038 24.6535 16.9116 24.5299C16.7194 24.4063 16.5704 24.2253 16.4855 24.0123L12.8826 14.9529L9.66028 19.8148C9.56024 19.9652 9.42485 20.0885 9.2661 20.1737C9.10736 20.2589 8.93017 20.3033 8.75024 20.3032H3.22659ZM1.92278 18.1032C-5.30719 4.19952 9.64715 -3.89631 17.1156 3.01815C17.2468 3.13914 17.3759 3.26454 17.5006 3.39434C17.624 3.26466 17.7525 3.1399 17.8856 3.02035C25.354 -3.89631 40.3084 4.19952 33.0762 18.1032H26.9882L22.8886 7.79425C22.8038 7.58126 22.6548 7.4003 22.4626 7.27668C22.2704 7.15307 22.0445 7.093 21.8167 7.10488C21.5888 7.11676 21.3704 7.2 21.1919 7.34294C21.0134 7.48589 20.8838 7.68138 20.8213 7.90205L17.3278 20.2064L14.1405 12.1942C14.0662 12.0083 13.9429 11.8463 13.7839 11.7258C13.6249 11.6052 13.4361 11.5306 13.238 11.51C13.0399 11.4894 12.8399 11.5236 12.6597 11.6089C12.4795 11.6941 12.3259 11.8273 12.2154 11.994L8.16397 18.1032H1.92497H1.92278Z" fill="white"/>
</svg>
