<svg width="22" height="19" viewBox="0 0 22 19" fill="none" xmlns="http://www.w3.org/2000/svg">
<path d="M11.0066 4.73731L4.40663 10.1713V18.1342C4.40663 18.2859 4.46689 18.4314 4.57416 18.5387C4.68144 18.6459 4.82693 18.7062 4.97863 18.7062L8.98813 18.6963C9.13945 18.6957 9.28438 18.6352 9.39117 18.528C9.49797 18.4208 9.55793 18.2756 9.55793 18.1243V12.6001C9.55793 12.4484 9.61819 12.3029 9.72546 12.1956C9.83274 12.0884 9.97823 12.0281 10.1299 12.0281H12.4201C12.5718 12.0281 12.7173 12.0884 12.8246 12.1956C12.9319 12.3029 12.9921 12.4484 12.9921 12.6001V18.1199C12.9918 18.1952 13.0064 18.2698 13.035 18.3395C13.0637 18.4091 13.1057 18.4724 13.1589 18.5258C13.212 18.5791 13.2752 18.6215 13.3447 18.6504C13.4143 18.6792 13.4888 18.6941 13.5641 18.6941L17.5725 18.7051C17.7242 18.7051 17.8697 18.6448 17.977 18.5376C18.0843 18.4303 18.1445 18.2848 18.1445 18.1331V10.1669L11.5445 4.73731C11.4675 4.67781 11.3729 4.64554 11.2756 4.64554C11.1782 4.64554 11.0837 4.67781 11.0066 4.73731ZM21.428 8.43001L18.436 5.96491V1.00831C18.436 0.894529 18.3908 0.785411 18.3104 0.704958C18.2299 0.624505 18.1208 0.579307 18.007 0.579307H16.0028C15.8891 0.579307 15.7799 0.624505 15.6995 0.704958C15.619 0.785411 15.5738 0.894529 15.5738 1.00831V3.60651L12.3706 0.966507C12.0633 0.71352 11.6775 0.575195 11.2794 0.575195C10.8813 0.575195 10.4956 0.71352 10.1882 0.966507L1.12973 8.43001C1.08617 8.46592 1.05013 8.51008 1.02367 8.55995C0.997207 8.60982 0.980851 8.66443 0.975537 8.72063C0.970223 8.77684 0.976056 8.83354 0.9927 8.88749C1.00934 8.94143 1.03647 8.99156 1.07253 9.03501L1.98553 10.1438C2.02137 10.1874 2.06546 10.2236 2.1153 10.2501C2.16513 10.2767 2.21972 10.2932 2.27592 10.2986C2.33213 10.304 2.38886 10.2983 2.44284 10.2817C2.49683 10.2652 2.54702 10.2381 2.59053 10.2021L11.0066 3.26991C11.0847 3.20742 11.1817 3.17338 11.2816 3.17338C11.3816 3.17338 11.4786 3.20742 11.5566 3.26991L19.9705 10.1999C20.014 10.236 20.0641 10.2631 20.118 10.2797C20.172 10.2964 20.2287 10.3022 20.2849 10.2969C20.3411 10.2916 20.3957 10.2752 20.4456 10.2488C20.4955 10.2223 20.5396 10.1863 20.5755 10.1427L21.4885 9.03391C21.5246 8.99023 21.5516 8.93985 21.5681 8.88568C21.5846 8.8315 21.5901 8.7746 21.5845 8.71826C21.5789 8.66191 21.5622 8.60724 21.5353 8.55739C21.5085 8.50754 21.472 8.4635 21.428 8.42781V8.43001Z" fill="#DBDBDB"/>
</svg>
