<svg width="18" height="23" viewBox="0 0 18 23" fill="none" xmlns="http://www.w3.org/2000/svg">
<path fill-rule="evenodd" clip-rule="evenodd" d="M16.692 17.575C14.238 11.4466 11.3736 9.83142 11.3736 6.77502V3.17502H11.9736C12.1328 3.17502 12.2854 3.11181 12.3979 2.99929C12.5104 2.88677 12.5736 2.73415 12.5736 2.57502V1.37502C12.5736 1.21589 12.5104 1.06328 12.3979 0.95076C12.2854 0.838238 12.1328 0.775024 11.9736 0.775024H5.97363C5.8145 0.775024 5.66189 0.838238 5.54937 0.95076C5.43685 1.06328 5.37363 1.21589 5.37363 1.37502V2.57502C5.37363 2.73415 5.43685 2.88677 5.54937 2.99929C5.66189 3.11181 5.8145 3.17502 5.97363 3.17502H6.57363V6.77502C6.57363 9.83142 3.70923 11.4466 1.25523 17.575C0.474033 19.525 -1.53237 22.375 8.97363 22.375C19.4796 22.375 17.4732 19.525 16.692 17.575ZM14.7516 19.6762C13.9092 19.9282 12.2328 20.215 8.97363 20.215C5.71443 20.215 4.03803 19.9282 3.19563 19.6762C2.89683 19.5874 2.78043 19.2406 2.88603 18.9226C3.15003 18.1186 3.64803 16.729 4.57923 15.1774C6.85443 11.3866 9.21484 15.7738 11.1792 15.7738C13.1436 15.7738 12.6048 13.9006 13.368 15.1774C14.0704 16.3588 14.6383 17.615 15.0612 18.9226C15.1668 19.2406 15.0504 19.5862 14.7516 19.6762Z" fill="#448666"/>
</svg>
