<svg width="21" height="21" viewBox="0 0 21 21" fill="none" xmlns="http://www.w3.org/2000/svg">
<g clip-path="url(#clip0_159_26884)">
<path d="M4.94135 20.5751H17.0059C17.7238 20.5751 18.3214 20.026 18.3214 19.3513V4.71795C18.3214 4.04302 17.7238 3.48816 17.0059 3.48816H15.0171V4.60552C15.02 4.79947 14.867 4.95997 14.6732 4.96642H7.25045C7.05276 4.96166 6.89312 4.80321 6.88666 4.60552V3.48816H4.94135C4.22345 3.48816 3.62579 4.04302 3.62579 4.71795V19.3513C3.62579 20.026 4.22345 20.5751 4.94135 20.5751ZM7.62579 9.35772C7.62579 9.16564 7.78153 9.0099 7.97362 9.0099H9.75623V7.22729C9.75623 7.0352 9.91197 6.87946 10.1041 6.87946H11.8432C12.0353 6.87946 12.191 7.0352 12.191 7.22729V9.0099H13.9736C14.1657 9.0099 14.3214 9.16564 14.3214 9.35772V11.0969C14.3214 11.2889 14.1657 11.4447 13.9736 11.4447H12.191V13.2273C12.191 13.4194 12.0353 13.5751 11.8432 13.5751H10.1041C9.91197 13.5751 9.75623 13.4194 9.75623 13.2273V11.4447H7.97362C7.78153 11.4447 7.62579 11.2889 7.62579 11.0969V9.35772ZM7.76744 15.3577H14.1798C14.3721 15.3577 14.5276 15.5135 14.5276 15.7055C14.5276 15.8976 14.3721 16.0534 14.1798 16.0534H7.76744C7.57518 16.0534 7.41961 15.8976 7.41961 15.7055C7.41961 15.5135 7.57518 15.3577 7.76744 15.3577ZM6.46309 17.0969H15.4841C15.6764 17.0969 15.832 17.2526 15.832 17.4447C15.832 17.6368 15.6764 17.7925 15.4841 17.7925H6.46309C6.27083 17.7925 6.11526 17.6368 6.11526 17.4447C6.11526 17.2526 6.27083 17.0969 6.46309 17.0969Z" fill="#448666"/>
<path d="M14.3215 1.9229H12.6937C12.53 1.92273 12.3884 1.80843 12.3539 1.64827C12.2194 1.02667 11.629 0.575074 10.95 0.575074H10.9458C10.285 0.574395 9.70768 1.02158 9.54327 1.66152C9.5037 1.81522 9.36511 1.92273 9.20632 1.9229H7.58234V4.27073H14.3215V1.9229Z" fill="#448666"/>
<path d="M10.4519 11.0968V12.8794H11.4954V11.0968C11.4954 10.9047 11.6511 10.749 11.8432 10.749H13.6258V9.70551H11.8432C11.6511 9.70551 11.4954 9.54977 11.4954 9.35768V7.57507H10.4519V9.35768C10.4519 9.54977 10.2962 9.70551 10.1041 9.70551H8.32147V10.749H10.1041C10.2962 10.749 10.4519 10.9047 10.4519 11.0968Z" fill="#448666"/>
</g>
<defs>
<clipPath id="clip0_159_26884">
<rect width="20" height="20" fill="white" transform="translate(0.973633 0.575073)"/>
</clipPath>
</defs>
</svg>
