<svg width="24" height="24" viewBox="0 0 24 24" fill="none" xmlns="http://www.w3.org/2000/svg">
<g clip-path="url(#clip0_4595_15618)">
<path d="M12 0.999512C11.2044 0.999512 10.4413 1.31558 9.87868 1.87819C9.31607 2.4408 9 3.20386 9 3.99951V11.9995C9 12.7952 9.31607 13.5582 9.87868 14.1208C10.4413 14.6834 11.2044 14.9995 12 14.9995C12.7956 14.9995 13.5587 14.6834 14.1213 14.1208C14.6839 13.5582 15 12.7952 15 11.9995V3.99951C15 3.20386 14.6839 2.4408 14.1213 1.87819C13.5587 1.31558 12.7956 0.999512 12 0.999512V0.999512Z" stroke="#9B9B9B" stroke-width="2" stroke-linecap="round" stroke-linejoin="round"/>
<path d="M19 9.99951V11.9995C19 13.856 18.2625 15.6365 16.9497 16.9493C15.637 18.262 13.8565 18.9995 12 18.9995C10.1435 18.9995 8.36301 18.262 7.05025 16.9493C5.7375 15.6365 5 13.856 5 11.9995V9.99951" stroke="#9B9B9B" stroke-width="2" stroke-linecap="round" stroke-linejoin="round"/>
<path d="M12 18.9995V22.9995" stroke="#9B9B9B" stroke-width="2" stroke-linecap="round" stroke-linejoin="round"/>
<path d="M8 22.9995H16" stroke="#9B9B9B" stroke-width="2" stroke-linecap="round" stroke-linejoin="round"/>
</g>
<defs>
<clipPath id="clip0_4595_15618">
<rect width="24" height="24" fill="white" transform="translate(0 -0.000488281)"/>
</clipPath>
</defs>
</svg>
