<svg width="18" height="22" viewBox="0 0 18 22" fill="none" xmlns="http://www.w3.org/2000/svg">
<path d="M15.167 3.55313H11.717C11.6911 2.84607 11.3862 2.17806 10.8689 1.69533C10.3516 1.2126 9.66412 0.954488 8.95696 0.97749C8.24999 0.954779 7.5628 1.21302 7.04575 1.69572C6.52871 2.17842 6.22391 2.84626 6.19804 3.55313H2.74804C2.21757 3.53566 1.70181 3.72921 1.31379 4.09136C0.925774 4.45351 0.697156 4.95471 0.67804 5.48513L0.67804 19.6517C0.697156 20.1821 0.925774 20.6833 1.31379 21.0455C1.70181 21.4076 2.21757 21.6012 2.74804 21.5837H15.167C15.6974 21.6012 16.2132 21.4076 16.6012 21.0455C16.9892 20.6833 17.2178 20.1821 17.237 19.6517V5.48513C17.2178 4.95471 16.9892 4.45351 16.6012 4.09136C16.2132 3.72921 15.6974 3.53566 15.167 3.55313ZM8.95696 2.58282C9.08876 2.57807 9.22019 2.59945 9.34368 2.64573C9.46717 2.69201 9.58028 2.76228 9.67649 2.85248C9.7727 2.94267 9.85011 3.05102 9.90426 3.17127C9.9584 3.29153 9.98821 3.4213 9.99196 3.55313C9.97498 3.81608 9.85855 4.06271 9.66632 4.24293C9.47408 4.42315 9.22046 4.52344 8.95696 4.52344C8.69346 4.52344 8.43984 4.42315 8.24761 4.24293C8.05538 4.06271 7.93895 3.81608 7.92196 3.55313C7.92628 3.42167 7.95649 3.29236 8.01088 3.17261C8.06528 3.05285 8.14277 2.94501 8.23892 2.85527C8.33508 2.76552 8.448 2.69564 8.57122 2.64963C8.69443 2.60362 8.82552 2.58238 8.95696 2.58713V2.58282ZM13.097 14.8185C13.0939 14.907 13.0558 14.9907 12.9912 15.0514C12.9265 15.112 12.8405 15.1445 12.752 15.1419H10.337V17.3963C10.3339 17.4848 10.2958 17.5685 10.2312 17.6292C10.1665 17.6898 10.0805 17.7223 9.99196 17.7197H7.92304C7.83447 17.7223 7.74846 17.6898 7.68381 17.6292C7.61916 17.5685 7.58114 17.4848 7.57804 17.3963V15.1441H5.16304C5.07447 15.1467 4.98846 15.1141 4.92381 15.0535C4.85916 14.9929 4.82114 14.9092 4.81804 14.8206V12.8908C4.82114 12.8022 4.85916 12.7185 4.92381 12.6579C4.98846 12.5973 5.07447 12.5647 5.16304 12.5673H7.57804V10.3151C7.58114 10.2266 7.61916 10.1428 7.68381 10.0822C7.74846 10.0216 7.83447 9.98907 7.92304 9.99169H9.99304C10.0816 9.98907 10.1676 10.0216 10.2323 10.0822C10.2969 10.1428 10.3349 10.2266 10.338 10.3151V12.5695H12.753C12.8416 12.5669 12.9276 12.5994 12.9923 12.66C13.0569 12.7206 13.0949 12.8044 13.098 12.8929L13.097 14.8185ZM13.097 7.09154C13.0939 7.1801 13.0558 7.26383 12.9912 7.32443C12.9265 7.38504 12.8405 7.41759 12.752 7.41497H5.16304C5.07447 7.41759 4.98846 7.38504 4.92381 7.32443C4.85916 7.26383 4.82114 7.1801 4.81804 7.09154V6.44466C4.82114 6.3561 4.85916 6.27237 4.92381 6.21176C4.98846 6.15116 5.07447 6.1186 5.16304 6.12122H12.753C12.8416 6.1186 12.9276 6.15116 12.9923 6.21176C13.0569 6.27237 13.0949 6.3561 13.098 6.44466L13.097 7.09154Z" fill="#DBDBDB"/>
</svg>
