<svg width="18" height="18" viewBox="0 0 18 18" fill="none" xmlns="http://www.w3.org/2000/svg">
<path d="M8.62913 0C3.87088 0 0 3.87088 0 8.62913C0 13.3874 3.87088 17.2583 8.62913 17.2583C13.3874 17.2583 17.2583 13.3874 17.2583 8.62913C17.2583 3.87088 13.3874 0 8.62913 0ZM8.62913 1.43819C12.6093 1.43819 15.8201 4.64894 15.8201 8.62913C15.8201 12.6093 12.6093 15.8201 8.62913 15.8201C4.64894 15.8201 1.43819 12.6093 1.43819 8.62913C1.43819 4.64894 4.64894 1.43819 8.62913 1.43819ZM5.3932 5.75275C5.10713 5.75275 4.83277 5.86639 4.63049 6.06868C4.42821 6.27096 4.31456 6.54532 4.31456 6.83139C4.31456 7.11747 4.42821 7.39182 4.63049 7.59411C4.83277 7.79639 5.10713 7.91003 5.3932 7.91003C5.67928 7.91003 5.95363 7.79639 6.15592 7.59411C6.3582 7.39182 6.47184 7.11747 6.47184 6.83139C6.47184 6.54532 6.3582 6.27096 6.15592 6.06868C5.95363 5.86639 5.67928 5.75275 5.3932 5.75275ZM10.0673 6.47184V7.91003H13.6628V6.47184H10.0673ZM12.2023 9.37051C12.2023 10.5815 11.7162 11.4214 11.0108 12.0225C10.3061 12.6237 9.37339 12.9437 8.62913 12.9437C7.10393 12.9437 6.067 12.3253 5.25801 11.5278L4.24697 12.5626C5.2501 13.547 6.70195 14.3819 8.62913 14.3819C9.74732 14.3819 10.9748 13.9605 11.9549 13.1235C12.9351 12.2864 13.6405 10.9949 13.6405 9.37051H12.2023Z" fill="#919191"/>
</svg>
