<svg width="17" height="21" viewBox="0 0 17 21" fill="none" xmlns="http://www.w3.org/2000/svg">
<path d="M12.9736 6.5752H4.97363V4.5752H12.9736V6.5752ZM12.9736 8.5752H4.97363V10.5752H12.9736V8.5752ZM16.9736 2.5752V14.5752L10.9736 20.5752H2.97363C2.4432 20.5752 1.93449 20.3645 1.55942 19.9894C1.18435 19.6143 0.973633 19.1056 0.973633 18.5752V2.5752C0.973633 2.04476 1.18435 1.53605 1.55942 1.16098C1.93449 0.785909 2.4432 0.575195 2.97363 0.575195H14.9736C15.5041 0.575195 16.0128 0.785909 16.3878 1.16098C16.7629 1.53605 16.9736 2.04476 16.9736 2.5752ZM14.9736 12.5752V2.5752H2.97363V18.5752H8.97363V14.5752C8.97363 14.0448 9.18435 13.5361 9.55942 13.161C9.93449 12.7859 10.4432 12.5752 10.9736 12.5752H14.9736Z" fill="#DBDBDB"/>
</svg>
