<svg width="22" height="14" viewBox="0 0 22 14" fill="none" xmlns="http://www.w3.org/2000/svg">
<path d="M0.527344 4.21484C0.527344 3.22028 0.922432 2.26645 1.62569 1.56319C2.32895 0.859932 3.28278 0.464844 4.27734 0.464844H17.7773C18.7719 0.464844 19.7257 0.859932 20.429 1.56319C21.1323 2.26645 21.5273 3.22028 21.5273 4.21484V10.2148C21.5273 10.7073 21.4303 11.1949 21.2419 11.6499C21.0534 12.1049 20.7772 12.5183 20.429 12.8665C20.0808 13.2147 19.6674 13.4909 19.2124 13.6794C18.7574 13.8678 18.2698 13.9648 17.7773 13.9648H4.27734C3.28278 13.9648 2.32895 13.5698 1.62569 12.8665C0.922432 12.1632 0.527344 11.2094 0.527344 10.2148V4.21484ZM6.74634 5.18384L5.77734 6.15434L4.80834 5.18384C4.73861 5.11411 4.65583 5.0588 4.56472 5.02106C4.47361 4.98332 4.37596 4.9639 4.27734 4.9639C4.17873 4.9639 4.08108 4.98332 3.98997 5.02106C3.89886 5.0588 3.81608 5.11411 3.74634 5.18384C3.67661 5.25358 3.6213 5.33636 3.58356 5.42747C3.54582 5.51858 3.5264 5.61623 3.5264 5.71484C3.5264 5.81346 3.54582 5.91111 3.58356 6.00222C3.6213 6.09333 3.67661 6.17611 3.74634 6.24584L4.71684 7.21484L3.74634 8.18384C3.67661 8.25358 3.6213 8.33636 3.58356 8.42747C3.54582 8.51858 3.5264 8.61623 3.5264 8.71484C3.5264 8.81346 3.54582 8.91111 3.58356 9.00222C3.6213 9.09333 3.67661 9.17611 3.74634 9.24584C3.88717 9.38667 4.07818 9.46579 4.27734 9.46579C4.37596 9.46579 4.47361 9.44637 4.56472 9.40863C4.65583 9.37089 4.73861 9.31558 4.80834 9.24584L5.77734 8.27534L6.74634 9.24584C6.81608 9.31558 6.89886 9.37089 6.98997 9.40863C7.08108 9.44637 7.17873 9.46579 7.27734 9.46579C7.37596 9.46579 7.47361 9.44637 7.56472 9.40863C7.65583 9.37089 7.73861 9.31558 7.80834 9.24584C7.87808 9.17611 7.93339 9.09333 7.97113 9.00222C8.00887 8.91111 8.02829 8.81346 8.02829 8.71484C8.02829 8.61623 8.00887 8.51858 7.97113 8.42747C7.93339 8.33636 7.87808 8.25358 7.80834 8.18384L6.83784 7.21484L7.80834 6.24584C7.87808 6.17611 7.93339 6.09333 7.97113 6.00222C8.00887 5.91111 8.02829 5.81346 8.02829 5.71484C8.02829 5.61623 8.00887 5.51858 7.97113 5.42747C7.93339 5.33636 7.87808 5.25358 7.80834 5.18384C7.73861 5.11411 7.65583 5.0588 7.56472 5.02106C7.47361 4.98332 7.37596 4.9639 7.27734 4.9639C7.17873 4.9639 7.08108 4.98332 6.98997 5.02106C6.89886 5.0588 6.81608 5.11411 6.74634 5.18384ZM12.7463 5.18384L11.7773 6.15434L10.8083 5.18384C10.7386 5.11411 10.6558 5.0588 10.5647 5.02106C10.4736 4.98332 10.376 4.9639 10.2773 4.9639C10.1787 4.9639 10.0811 4.98332 9.98997 5.02106C9.89886 5.0588 9.81608 5.11411 9.74634 5.18384C9.67661 5.25358 9.6213 5.33636 9.58356 5.42747C9.54582 5.51858 9.5264 5.61623 9.5264 5.71484C9.5264 5.81346 9.54582 5.91111 9.58356 6.00222C9.6213 6.09333 9.67661 6.17611 9.74634 6.24584L10.7168 7.21484L9.74634 8.18384C9.67661 8.25358 9.6213 8.33636 9.58356 8.42747C9.54582 8.51858 9.5264 8.61623 9.5264 8.71484C9.5264 8.81346 9.54582 8.91111 9.58356 9.00222C9.6213 9.09333 9.67661 9.17611 9.74634 9.24584C9.88717 9.38667 10.0782 9.46579 10.2773 9.46579C10.376 9.46579 10.4736 9.44637 10.5647 9.40863C10.6558 9.37089 10.7386 9.31558 10.8083 9.24584L11.7773 8.27534L12.7463 9.24584C12.8872 9.38667 13.0782 9.46579 13.2773 9.46579C13.4765 9.46579 13.6675 9.38667 13.8083 9.24584C13.9492 9.10501 14.0283 8.91401 14.0283 8.71484C14.0283 8.51568 13.9492 8.32467 13.8083 8.18384L12.8378 7.21484L13.8083 6.24584C13.9492 6.10501 14.0283 5.91401 14.0283 5.71484C14.0283 5.51568 13.9492 5.32467 13.8083 5.18384C13.6675 5.04301 13.4765 4.9639 13.2773 4.9639C13.0782 4.9639 12.8872 5.04301 12.7463 5.18384ZM15.5273 8.71484C15.5273 8.91376 15.6064 9.10452 15.747 9.24517C15.8877 9.38583 16.0784 9.46484 16.2773 9.46484H17.7773C17.9763 9.46484 18.167 9.38583 18.3077 9.24517C18.4483 9.10452 18.5273 8.91376 18.5273 8.71484C18.5273 8.51593 18.4483 8.32517 18.3077 8.18451C18.167 8.04386 17.9763 7.96484 17.7773 7.96484H16.2773C16.0784 7.96484 15.8877 8.04386 15.747 8.18451C15.6064 8.32517 15.5273 8.51593 15.5273 8.71484Z" fill="#868AA5"/>
</svg>
