<svg width="20" height="20" viewBox="0 0 20 20" fill="none" xmlns="http://www.w3.org/2000/svg">
<path d="M11.1719 5.89844C11.4955 5.89844 11.7578 5.6361 11.7578 5.3125C11.7578 4.9889 11.4955 4.72656 11.1719 4.72656C10.8483 4.72656 10.5859 4.9889 10.5859 5.3125C10.5859 5.6361 10.8483 5.89844 11.1719 5.89844Z" fill="white"/>
<path d="M13.5156 5.89844C13.8392 5.89844 14.1016 5.6361 14.1016 5.3125C14.1016 4.9889 13.8392 4.72656 13.5156 4.72656C13.192 4.72656 12.9297 4.9889 12.9297 5.3125C12.9297 5.6361 13.192 5.89844 13.5156 5.89844Z" fill="white"/>
<path d="M15.8594 5.89844C16.183 5.89844 16.4453 5.6361 16.4453 5.3125C16.4453 4.9889 16.183 4.72656 15.8594 4.72656C15.5358 4.72656 15.2734 4.9889 15.2734 5.3125C15.2734 5.6361 15.5358 5.89844 15.8594 5.89844Z" fill="white"/>
<path d="M13.1724 18.7891C14.137 18.7891 14.9219 18.0005 14.9219 17.0312V14.6875C14.9219 14.4354 14.7607 14.2116 14.5216 14.1318L11.0143 12.9599C10.8426 12.9025 10.6542 12.9277 10.5036 13.0281L9.01211 14.0224C7.41141 13.2629 5.51949 11.3877 4.76699 9.81547L5.76098 8.32449C5.86133 8.17394 5.88652 7.98543 5.82918 7.81379L4.6573 4.30648C4.57742 4.06742 4.35363 3.90625 4.10156 3.90625H1.75781C0.788555 3.90625 0 4.69105 0 5.65574C0 8.89313 1.47203 12.2157 4.03867 14.7716C6.6025 17.3248 9.93164 18.7891 13.1724 18.7891ZM1.75781 5.07812H3.67957L4.62684 7.91313L3.61406 9.43227C3.50703 9.59281 3.4859 9.79574 3.55758 9.97488C3.94723 10.949 4.72699 12.0446 5.7532 13.0598C6.77266 14.0684 7.87359 14.8396 8.85324 15.2315C9.03234 15.3031 9.23535 15.282 9.39586 15.175L10.915 14.1622L13.75 15.1095V17.0312C13.75 17.3598 13.4963 17.6172 13.1724 17.6172C7.00391 17.6172 1.17188 11.8041 1.17188 5.65574C1.17188 5.33184 1.42926 5.07812 1.75781 5.07812Z" fill="white"/>
<path d="M10.9477 11.7132C11.1666 11.8039 11.4186 11.7537 11.5862 11.5862L13.7583 9.41406H15.8594C18.1425 9.41406 20 7.5741 20 5.3125C20 3.0509 18.1425 1.21094 15.8594 1.21094H11.1719C8.91027 1.21094 7.07031 3.0509 7.07031 5.3125C7.07031 7.3752 8.6009 9.08715 10.5859 9.37234V11.1719C10.5859 11.4089 10.7287 11.6225 10.9477 11.7132ZM8.24219 5.3125C8.24219 3.69707 9.55645 2.38281 11.1719 2.38281H15.8594C17.4963 2.38281 18.8281 3.69707 18.8281 5.3125C18.8281 6.92793 17.4963 8.24219 15.8594 8.24219H13.5156C13.3602 8.24219 13.2112 8.30391 13.1013 8.41379L11.7578 9.75731V8.82812C11.7578 8.50453 11.4955 8.24219 11.1719 8.24219C9.55645 8.24219 8.24219 6.92793 8.24219 5.3125Z" fill="white"/>
</svg>
