<svg width="21" height="21" viewBox="0 0 21 21" fill="none" xmlns="http://www.w3.org/2000/svg">
<path d="M20.5 10.2814C20.4998 12.3081 19.8986 14.2893 18.7724 15.9743C17.6463 17.6594 16.0458 18.9727 14.1732 19.7481C12.3007 20.5236 10.2403 20.7264 8.25254 20.3308C6.26478 19.9353 4.43893 18.9592 3.00589 17.526C1.57285 16.0929 0.59697 14.2669 0.201652 12.2791C-0.193666 10.2913 0.00933337 8.2309 0.78498 6.35847C1.56063 4.48603 2.87408 2.88564 4.55927 1.75967C6.24445 0.633699 8.22567 0.0327163 10.2524 0.0327163C11.5984 0.0320076 12.9314 0.296621 14.1751 0.811426C15.4188 1.32623 16.5488 2.08113 17.5005 3.03296C18.4522 3.98479 19.207 5.11489 19.7217 6.35862C20.2364 7.60236 20.5008 8.93535 20.5 10.2814ZM10.5273 3.42234C9.56156 3.3856 8.60388 3.61107 7.75594 4.07481C6.908 4.53854 6.20147 5.22324 5.71134 6.0562C5.64056 6.16088 5.61231 6.2886 5.63233 6.41337C5.65236 6.53814 5.71916 6.6506 5.81915 6.72787L7.25737 7.8157C7.36078 7.89423 7.49086 7.92907 7.61967 7.91274C7.74848 7.89641 7.86575 7.83021 7.94629 7.72837C8.68481 6.79256 9.19045 6.24918 10.3182 6.24918C11.1623 6.24918 12.207 6.78825 12.207 7.61086C12.207 8.2297 11.696 8.54775 10.8626 9.01242C9.89231 9.55687 8.60395 10.2361 8.60395 11.932V12.0969C8.60395 12.2285 8.6562 12.3546 8.74921 12.4476C8.84221 12.5406 8.96836 12.5929 9.09989 12.5929H11.4135C11.4787 12.5929 11.5432 12.58 11.6033 12.5551C11.6635 12.5302 11.7182 12.4937 11.7642 12.4476C11.8103 12.4016 11.8468 12.3469 11.8717 12.2867C11.8967 12.2266 11.9095 12.1621 11.9095 12.0969V12.0409C11.9095 10.8646 15.3465 10.8161 15.3465 7.6335C15.3422 5.24006 12.8561 3.42126 10.5273 3.42126V3.42234ZM10.2524 13.6699C9.87647 13.6699 9.50899 13.7814 9.19641 13.9902C8.88384 14.1991 8.64022 14.496 8.49636 14.8433C8.35249 15.1906 8.31485 15.5728 8.38819 15.9415C8.46153 16.3102 8.64256 16.6489 8.90838 16.9147C9.1742 17.1805 9.51288 17.3615 9.88159 17.4349C10.2503 17.5082 10.6325 17.4706 10.9798 17.3267C11.3271 17.1828 11.624 16.9392 11.8328 16.6266C12.0417 16.3141 12.1531 15.9466 12.1531 15.5707C12.1526 15.0667 11.9521 14.5836 11.5958 14.2273C11.2395 13.8709 10.7563 13.6705 10.2524 13.6699Z" fill="#DBDBDB"/>
</svg>
