<svg width="19" height="20" viewBox="0 0 19 20" fill="none" xmlns="http://www.w3.org/2000/svg">
<path d="M9.37874 19.691C10.7637 19.691 11.8867 18.6226 11.8867 17.3044H6.87074C6.87074 18.6226 7.99374 19.691 9.37874 19.691ZM17.8237 14.1083C17.0657 13.3342 15.6487 12.1696 15.6487 8.35492C15.6487 5.45749 13.5127 3.13807 10.6327 2.56903V1.79191C10.6327 1.133 10.0707 0.598633 9.37874 0.598633C8.68674 0.598633 8.12474 1.133 8.12474 1.79191V2.56903C5.24474 3.13807 3.10873 5.45749 3.10873 8.35492C3.10873 12.1696 1.69173 13.3342 0.933729 14.1083C0.698729 14.3488 0.593731 14.6363 0.595731 14.9179C0.600731 15.5294 1.10473 16.1112 1.85473 16.1112H16.9027C17.6517 16.1112 18.1567 15.5294 18.1607 14.9179C18.1627 14.6363 18.0587 14.3485 17.8237 14.1083Z" fill="#DBDBDB"/>
</svg>
