<svg width="24" height="24" viewBox="0 0 24 24" fill="none" xmlns="http://www.w3.org/2000/svg">
<g clip-path="url(#clip0_4718_15729)">
<path d="M19.3279 19.0159C19.0959 18.9625 18.8769 18.9121 18.672 18.8616C18.6185 18.8483 18.5947 18.8231 18.5891 18.8143V16.8408C18.8506 16.6389 19.1055 16.4158 19.3475 16.1743C20.1551 15.3685 20.7483 14.4365 21.0988 13.4441C22.3969 12.599 23.0287 11.2205 23.0287 9.23431C23.0287 7.20959 22.5265 5.36858 21.5762 3.91044C21.4701 3.74773 21.2523 3.70189 21.0897 3.80783C20.927 3.91386 20.8811 4.13164 20.9871 4.29434C21.8627 5.63802 22.3256 7.34623 22.3256 9.23431C22.3256 10.55 22.0196 11.5512 21.3952 12.2664C21.4436 11.9512 21.4686 11.6328 21.4686 11.3129C21.4686 8.5137 20.9077 6.55358 19.7538 5.32067C18.8145 4.31703 17.5069 3.82916 15.7559 3.82916C15.7534 3.82916 15.7505 3.82916 15.7479 3.82916C11.9373 3.83239 10.0052 6.35028 10.0052 11.3129C10.0052 11.6328 10.0301 11.9512 10.0785 12.2664C9.45438 11.551 9.14843 10.5499 9.14843 9.23431C9.14843 3.905 12.4574 1.51953 15.7368 1.51953C17.4325 1.51953 18.866 2.0547 19.9975 3.11023C20.1395 3.2427 20.362 3.23497 20.4944 3.09294C20.6268 2.95095 20.6191 2.72853 20.4771 2.59606C19.229 1.43178 17.5899 0.816406 15.7368 0.816406C13.4872 0.816406 11.6016 1.70014 10.2838 3.37213C9.09827 4.87644 8.4453 6.9583 8.4453 9.23431C8.4453 11.2205 9.07704 12.5991 10.3751 13.4444C10.5557 13.9555 10.8006 14.4504 11.106 14.9204L9.47819 15.8602C9.18612 15.5907 8.76987 15.477 8.37129 15.5803L7.11368 15.9063L7.05879 15.8112C6.85254 15.454 6.39415 15.3312 6.03691 15.5374L5.03604 16.1152C4.61684 16.3573 4.26134 16.7032 4.00802 17.1157C3.7646 17.512 3.40938 17.8171 2.98094 17.9979L2.54205 18.183C2.36318 18.2585 2.27927 18.4647 2.35479 18.6436C2.43021 18.8225 2.6366 18.9063 2.81534 18.8309L3.25423 18.6457C3.81865 18.4076 4.28651 18.0058 4.60718 17.4837C4.79955 17.1705 5.06937 16.9079 5.38765 16.7242L6.38852 16.1464C6.40999 16.1339 6.43751 16.1414 6.44993 16.1628L8.05362 18.9405C8.06604 18.962 8.05863 18.9895 8.03716 19.0019L7.03633 19.5798C6.7181 19.7635 6.35566 19.8659 5.98826 19.8759C5.37584 19.8925 4.79393 20.0968 4.30544 20.4665L2.24819 22.0238C2.11184 22.127 1.91576 22.0876 1.83007 21.9392L0.74121 20.0532C0.65571 19.9052 0.719132 19.7154 0.877054 19.6488L1.30427 19.4685C1.48315 19.393 1.56701 19.1868 1.49149 19.0079C1.41598 18.8289 1.20973 18.7452 1.0309 18.8206L0.603679 19.0009C0.34282 19.111 0.141492 19.3281 0.0513509 19.5965C-0.0387897 19.865 -0.00930533 20.1596 0.132304 20.4048L1.22116 22.2907C1.51709 22.8032 2.19766 22.9439 2.6726 22.5844L4.7298 21.0272C5.10068 20.7464 5.54243 20.5914 6.00738 20.5787C6.49127 20.5656 6.96865 20.4307 7.38785 20.1887L8.38868 19.6108C8.74582 19.4046 8.86868 18.9463 8.66252 18.589L8.60763 18.4939L9.51874 17.5677C9.80749 17.2742 9.91713 16.8569 9.82976 16.4692L11.5188 15.4941C11.9144 15.9928 12.3763 16.4484 12.8849 16.841V18.8143C12.8794 18.8232 12.8554 18.8484 12.8021 18.8615C12.5966 18.9122 12.3775 18.9626 12.1456 19.016C10.1741 19.4697 7.47405 20.0909 7.47405 22.2845V22.5155C7.47405 22.8839 7.80607 23.1835 8.21421 23.1835H23.2598C23.668 23.1835 24 22.8838 24 22.5155V22.2845C24 20.0908 21.2996 19.4695 19.3279 19.0159ZM9.01746 17.0746L8.2428 17.862L7.47846 16.5381L8.54768 16.261C9.02407 16.1376 9.36312 16.7233 9.01746 17.0746ZM10.7536 10.0876C12.2445 9.65905 13.9611 9.43273 15.7369 9.43273C17.5146 9.43273 19.232 9.65947 20.7227 10.0887C20.7413 10.3438 20.7539 10.6076 20.7603 10.88L19.7957 11.523C19.581 11.6659 19.3316 11.7414 19.0744 11.7414H17.6136C17.322 11.7414 17.0549 11.5699 16.9333 11.305L16.8022 11.0182C16.386 10.111 15.0897 10.107 14.6713 11.0187L14.5407 11.3045C14.4189 11.5699 14.1517 11.7413 13.8601 11.7413H12.3994C12.1422 11.7413 11.8927 11.6659 11.6783 11.5232L10.7138 10.8802C10.7205 10.6073 10.7339 10.3433 10.7536 10.0876ZM12.2953 5.80592C13.1158 4.95013 14.2453 4.53355 15.7486 4.53223H15.7558C17.3015 4.53223 18.4414 4.94731 19.2404 5.80109C19.9719 6.58264 20.4425 7.76834 20.6473 9.33828C19.1586 8.93966 17.4736 8.72956 15.7369 8.72956C14.0036 8.72956 12.3209 8.93895 10.8332 9.33622C11.0473 7.78067 11.5365 6.59741 12.2953 5.80592ZM12.1363 15.1375L12.3561 15.0105C12.5243 14.9135 12.5819 14.6984 12.4848 14.5303C12.3877 14.3621 12.1726 14.3045 12.0046 14.4016L11.7176 14.5673C11.2421 13.8449 10.8104 12.889 10.7243 11.7322L11.2886 12.1085C11.6191 12.3282 12.0032 12.4445 12.3994 12.4445H13.8601C14.4257 12.4445 14.9305 12.1059 15.18 11.5973C15.2874 11.3783 15.3081 11.2251 15.4833 11.1125C15.7273 10.9566 16.0461 11.0563 16.1629 11.311L16.2941 11.5978C16.5302 12.1122 17.0481 12.4445 17.6137 12.4445H19.0744C19.4706 12.4445 19.8548 12.3283 20.1855 12.1083L20.7495 11.7323C20.6069 13.6462 19.5181 15.0109 18.8509 15.6767C17.7084 16.8167 16.4358 17.336 15.7369 17.336C15.038 17.336 13.7654 16.8167 12.6229 15.6767C12.4763 15.5303 12.3092 15.3497 12.1363 15.1375ZM23.2969 22.4746C23.2879 22.4777 23.2755 22.4804 23.2598 22.4804H8.21421C8.19855 22.4804 8.18613 22.4777 8.17718 22.4746V22.2844C8.17718 20.6506 10.465 20.1242 12.3032 19.7012C12.538 19.6472 12.7596 19.5962 12.9708 19.544C13.3342 19.454 13.588 19.1558 13.588 18.8189V17.3229C14.3412 17.7765 15.1034 18.039 15.7369 18.039C16.3704 18.039 17.1326 17.7764 17.886 17.3228V18.8189C17.886 19.1557 18.1395 19.4539 18.503 19.5441C18.7138 19.5961 18.9355 19.6471 19.1702 19.7011C21.0087 20.1241 23.2968 20.6504 23.2968 22.2844V22.4746H23.2969Z" fill="black"/>
<path d="M17.1208 14.6458C17.2962 14.5626 17.3709 14.3528 17.2876 14.1774C17.2043 14.002 16.9946 13.9274 16.8193 14.0107C16.0911 14.3565 15.383 14.3565 14.6548 14.0107C14.4793 13.9273 14.2697 14.002 14.1864 14.1774C14.1031 14.3528 14.1778 14.5625 14.3532 14.6458C14.8123 14.8638 15.2747 14.9728 15.7371 14.9728C16.1994 14.9728 16.6617 14.8638 17.1208 14.6458Z" fill="black"/>
<path d="M2.1249 13.1706C2.87016 13.4172 3.15695 13.7039 3.4036 14.4492C3.48699 14.7013 3.7119 14.8641 3.97655 14.8641C4.24126 14.8641 4.46612 14.7013 4.54955 14.4492C4.79616 13.7039 5.08295 13.4172 5.82826 13.1706C6.0803 13.0872 6.2432 12.8623 6.2432 12.5976C6.2432 12.3329 6.0803 12.108 5.82826 12.0246C5.08295 11.778 4.79616 11.4912 4.54955 10.7459C4.46616 10.4939 4.24126 10.3311 3.97655 10.3311C3.7119 10.3311 3.48704 10.4939 3.4036 10.7459C3.15695 11.4912 2.87016 11.778 2.1249 12.0246C1.87285 12.108 1.70996 12.3329 1.70996 12.5976C1.70996 12.8622 1.87285 13.0872 2.1249 13.1706ZM3.97655 11.2271C4.2564 11.9264 4.64776 12.3177 5.34709 12.5976C4.64776 12.8774 4.2564 13.2688 3.97655 13.9681C3.69671 13.2688 3.30535 12.8774 2.60607 12.5976C3.30535 12.3178 3.69671 11.9264 3.97655 11.2271Z" fill="black"/>
<path d="M3.98837 7.2735C4.72155 7.49067 4.93998 7.70916 5.1572 8.44233C5.22156 8.65964 5.41684 8.8057 5.64311 8.8057C5.86933 8.8057 6.06461 8.65969 6.12897 8.44233C6.34614 7.7092 6.56463 7.49077 7.2978 7.2735C7.51511 7.20909 7.66117 7.01381 7.66112 6.78759C7.66112 6.56133 7.51511 6.36609 7.2978 6.30173C6.56458 6.08452 6.34614 5.86603 6.12897 5.13286C6.06456 4.91555 5.86933 4.76953 5.64311 4.76953C5.41684 4.76953 5.22161 4.91555 5.1572 5.13286C4.93998 5.86603 4.72155 6.08452 3.98837 6.30169C3.77106 6.36605 3.625 6.56133 3.625 6.78755C3.625 7.01381 3.77097 7.20909 3.98837 7.2735ZM5.64306 5.84545C5.8518 6.29681 6.13389 6.57886 6.58525 6.78759C6.13389 6.99633 5.8518 7.27838 5.64306 7.72973C5.43433 7.27838 5.15228 6.99633 4.70092 6.78759C5.15228 6.57886 5.43433 6.29681 5.64306 5.84545Z" fill="black"/>
</g>
<defs>
<clipPath id="clip0_4718_15729">
<rect width="24" height="24" fill="white"/>
</clipPath>
</defs>
</svg>
