<svg width="32" height="32" viewBox="0 0 32 32" fill="none" xmlns="http://www.w3.org/2000/svg">
<path d="M30.9657 11.4189L21.3727 10.0046L17.0844 1.18519C16.9673 0.943722 16.7746 0.748247 16.5366 0.629428C15.9396 0.330465 15.2142 0.579601 14.9157 1.18519L10.6274 10.0046L1.03443 11.4189C0.769949 11.4572 0.52814 11.5837 0.343006 11.7754C0.119189 12.0087 -0.00414439 12.3227 0.000106342 12.6483C0.00435708 12.9738 0.135844 13.2844 0.365676 13.5117L7.30632 20.3763L5.66656 30.0696C5.62811 30.2951 5.6527 30.527 5.73756 30.739C5.82242 30.951 5.96414 31.1347 6.14666 31.2692C6.32917 31.4036 6.54518 31.4836 6.77019 31.4998C6.99519 31.5161 7.22019 31.4681 7.41967 31.3613L16.0001 26.7848L24.5805 31.3613C24.8147 31.4877 25.0868 31.5299 25.3475 31.4839C26.0049 31.3689 26.4469 30.7365 26.3336 30.0696L24.6938 20.3763L31.6345 13.5117C31.8234 13.3238 31.9481 13.0785 31.9859 12.8102C32.0879 12.1395 31.6269 11.5186 30.9657 11.4189V11.4189Z" fill="white"/>
</svg>
