<svg width="23" height="26" viewBox="0 0 23 26" fill="none" xmlns="http://www.w3.org/2000/svg">
<path d="M7.26661 12.0638C6.02893 12.0638 4.84195 11.5721 3.96678 10.6969C3.09161 9.82176 2.59994 8.63478 2.59994 7.3971V3.66377C2.59994 3.41623 2.69828 3.17884 2.87331 3.0038C3.04834 2.82877 3.28574 2.73044 3.53328 2.73044H4.46661C4.71414 2.73044 4.95154 2.6321 5.12658 2.45707C5.30161 2.28204 5.39994 2.04464 5.39994 1.7971C5.39994 1.54957 5.30161 1.31217 5.12658 1.13714C4.95154 0.962103 4.71414 0.86377 4.46661 0.86377H3.53328C2.79067 0.86377 2.07848 1.15877 1.55338 1.68387C1.02828 2.20897 0.733276 2.92116 0.733276 3.66377V7.3971C0.734476 8.45152 0.991597 9.4899 1.48256 10.423C1.97352 11.3562 2.68364 12.1562 3.55194 12.7544C4.38618 13.4899 5.06274 14.3868 5.54077 15.391C6.0188 16.3952 6.28839 17.4858 6.33328 18.5971C6.33328 20.3299 7.02161 21.9916 8.24685 23.2169C9.47208 24.4421 11.1339 25.1304 12.8666 25.1304C14.5994 25.1304 16.2611 24.4421 17.4864 23.2169C18.7116 21.9916 19.3999 20.3299 19.3999 18.5971V17.5331C20.2798 17.3059 21.0465 16.7657 21.5565 16.0136C22.0665 15.2616 22.2847 14.3493 22.1702 13.4479C22.0557 12.5465 21.6164 11.7178 20.9346 11.1171C20.2528 10.5164 19.3753 10.185 18.4666 10.185C17.5579 10.185 16.6805 10.5164 15.9987 11.1171C15.3169 11.7178 14.8775 12.5465 14.763 13.4479C14.6485 14.3493 14.8667 15.2616 15.3767 16.0136C15.8867 16.7657 16.6535 17.3059 17.5333 17.5331V18.5971C17.5333 19.8348 17.0416 21.0218 16.1664 21.8969C15.2913 22.7721 14.1043 23.2638 12.8666 23.2638C11.6289 23.2638 10.4419 22.7721 9.56678 21.8969C8.69161 21.0218 8.19994 19.8348 8.19994 18.5971C8.24719 17.4845 8.5197 16.393 9.00097 15.3887C9.48225 14.3845 10.1623 13.4883 10.9999 12.7544C11.8648 12.1541 12.5713 11.3532 13.0589 10.4202C13.5466 9.48717 13.8008 8.44987 13.7999 7.3971V3.66377C13.7999 2.92116 13.5049 2.20897 12.9798 1.68387C12.4547 1.15877 11.7425 0.86377 10.9999 0.86377H10.0666C9.81907 0.86377 9.58168 0.962103 9.40664 1.13714C9.23161 1.31217 9.13328 1.54957 9.13328 1.7971C9.13328 2.04464 9.23161 2.28204 9.40664 2.45707C9.58168 2.6321 9.81907 2.73044 10.0666 2.73044H10.9999C11.2475 2.73044 11.4849 2.82877 11.6599 3.0038C11.8349 3.17884 11.9333 3.41623 11.9333 3.66377V7.3971C11.9333 8.00994 11.8126 8.61677 11.578 9.18296C11.3435 9.74915 10.9998 10.2636 10.5664 10.6969C10.1331 11.1303 9.61865 11.474 9.05246 11.7085C8.48628 11.9431 7.87944 12.0638 7.26661 12.0638ZM18.4666 15.7971C17.9715 15.7971 17.4967 15.6004 17.1467 15.2504C16.7966 14.9003 16.5999 14.4255 16.5999 13.9304C16.5999 13.4354 16.7966 12.9606 17.1467 12.6105C17.4967 12.2604 17.9715 12.0638 18.4666 12.0638C18.9617 12.0638 19.4365 12.2604 19.7865 12.6105C20.1366 12.9606 20.3333 13.4354 20.3333 13.9304C20.3333 14.4255 20.1366 14.9003 19.7865 15.2504C19.4365 15.6004 18.9617 15.7971 18.4666 15.7971Z" fill="#DBDBDB"/>
</svg>
