<svg width="257" height="203" viewBox="0 0 257 203" fill="none" xmlns="http://www.w3.org/2000/svg">
<path d="M124.821 202.991C156.642 202.991 182.438 177.195 182.438 145.374C182.438 113.554 156.642 87.7578 124.821 87.7578C93.0004 87.7578 67.2046 113.554 67.2046 145.374C67.2046 177.195 93.0004 202.991 124.821 202.991Z" fill="#438465"/>
<path d="M153.19 121.054C153.916 121.648 143.154 136.129 129.157 153.384L120.662 163.683L119.496 165.092L118.263 163.815C107.259 152.525 99.8425 144.162 100.371 143.634C100.899 143.106 109.284 150.567 120.552 161.504L118.175 161.747L126.494 151.337C140.491 133.973 152.441 120.46 153.19 121.054Z" fill="white"/>
<path d="M206.669 122.13C204.952 116.078 197.095 116.672 197.095 116.672L197.293 120.876C201.849 120.083 204.666 125.409 204.666 125.409L206.669 122.13Z" fill="#438465"/>
<path d="M39.7614 134.854C38.0668 128.802 30.188 129.374 30.188 129.374L30.408 133.599C34.9637 132.807 37.7807 138.133 37.7807 138.133L39.7614 134.854Z" fill="#E0E0E0"/>
<path d="M131.688 51.1112C140.821 53.8842 146.499 43.3644 146.499 43.3644L140.953 40.1953C138.224 46.6436 129.113 45.8953 129.113 45.8953L131.688 51.1112Z" fill="#E0E0E0"/>
<path d="M81.0481 62.4453C76.8006 62.9075 76.2944 68.2333 76.2944 68.2333L79.1334 68.5635C79.1334 65.4384 83.0288 64.1619 83.0288 64.1619L81.0481 62.4453Z" fill="#438465"/>
<path d="M256.098 101.447C256.714 97.2212 251.696 95.3945 251.696 95.3945L250.662 98.0575C253.699 98.8277 253.985 102.921 253.985 102.921L256.098 101.447Z" fill="#E0E0E0"/>
<path d="M105.829 6.8334C106.445 2.6079 101.427 0.78125 101.427 0.78125L100.393 3.46621C103.43 4.23648 103.716 8.30792 103.716 8.30792L105.829 6.8334Z" fill="#438465"/>
<path d="M0.895448 74.9917C0.147182 81.5941 8.90629 83.2227 8.90629 83.2227L10.4909 78.8211C5.23099 78.3369 4.4827 72.2188 4.4827 72.2188L0.895448 74.9917Z" fill="#438465"/>
<path d="M196.237 50.9798C200.506 51.2219 201.871 46.0501 201.871 46.0501L199.12 45.2578C198.613 48.3389 194.564 48.9771 194.564 48.9771L196.237 50.9798Z" fill="#438465"/>
<path d="M219.543 68.3678C218.399 68.6887 217.206 68.8005 216.022 68.6979C214.838 68.8029 213.644 68.6911 212.5 68.3678C214.825 67.8982 217.219 67.8982 219.543 68.3678Z" fill="#E0E0E0"/>
<path d="M223.284 58.793C223.725 61.1494 223.725 63.5671 223.284 65.9235C222.815 63.5699 222.815 61.1466 223.284 58.793Z" fill="#E0E0E0"/>
<path d="M227.246 68.1262C228.39 67.8053 229.583 67.6934 230.767 67.796C231.951 67.691 233.144 67.8029 234.288 68.1262C231.964 68.5957 229.57 68.5957 227.246 68.1262Z" fill="#E0E0E0"/>
<path d="M223.527 77.7189C223.057 75.3579 223.057 72.9275 223.527 70.5664C223.967 72.9303 223.967 75.3551 223.527 77.7189Z" fill="#E0E0E0"/>
<path d="M229.205 73.7141C229.073 73.8241 228.39 73.2519 227.686 72.4376C226.982 71.6233 226.564 70.831 226.696 70.721C226.828 70.611 227.532 71.1612 228.214 71.9975C228.896 72.8338 229.359 73.472 229.205 73.7141Z" fill="#E0E0E0"/>
<path d="M228.874 62.7109C229.006 62.865 228.544 63.5472 227.817 64.2735C227.091 64.9998 226.409 65.4839 226.277 65.3519C226.145 65.2198 226.607 64.5156 227.333 63.7893C228.06 63.0631 228.742 62.7109 228.874 62.7109Z" fill="#E0E0E0"/>
<path d="M220.82 65.5055C220.688 65.6595 220.027 65.3074 219.345 64.7352C218.663 64.163 218.223 63.5908 218.333 63.4587C218.443 63.3267 219.103 63.6568 219.785 64.207C220.468 64.7572 220.93 65.3734 220.82 65.5055Z" fill="#E0E0E0"/>
<path d="M220.489 70.303C220.643 70.413 220.225 71.0953 219.565 71.8215C218.904 72.5478 218.266 73.0099 218.134 72.8779C218.002 72.7459 218.398 72.0636 219.058 71.3594C219.719 70.6551 220.357 70.1709 220.489 70.303Z" fill="#E0E0E0"/>
<path d="M27.8106 48.7355C25.4865 49.205 23.0921 49.205 20.7681 48.7355C21.9124 48.4146 23.1052 48.3028 24.2893 48.4054C25.4734 48.3004 26.6667 48.4122 27.8106 48.7355Z" fill="#438465"/>
<path d="M31.5519 39.1641C32.0215 41.5251 32.0215 43.9555 31.5519 46.3166C31.0823 43.9555 31.0823 41.5251 31.5519 39.1641Z" fill="#438465"/>
<path d="M35.5356 48.5162C37.8597 48.0467 40.2541 48.0467 42.5781 48.5162C40.2541 48.9857 37.8597 48.9857 35.5356 48.5162Z" fill="#438465"/>
<path d="M31.7941 58.0915C31.3245 55.7378 31.3245 53.3146 31.7941 50.9609C32.2636 53.3146 32.2636 55.7378 31.7941 58.0915Z" fill="#438465"/>
<path d="M37.4942 53.9099C37.3401 54.042 36.6579 53.4697 35.9756 52.6335C35.2934 51.7972 34.8312 51.0489 34.9853 50.9168C35.1393 50.7848 35.7996 51.379 36.5038 52.1933C37.2081 53.0076 37.6262 53.9099 37.4942 53.9099Z" fill="#438465"/>
<path d="M37.1639 43.1258C37.2959 43.2579 36.8117 43.9621 36.1075 44.6884C35.4032 45.4146 34.699 45.8768 34.5669 45.7448C34.4349 45.6127 34.8971 44.9305 35.6233 44.2042C36.3496 43.478 37.0318 42.9058 37.1639 43.1258Z" fill="#438465"/>
<path d="M29.0875 45.898C28.9775 46.03 28.3173 45.6999 27.635 45.1277C26.9528 44.5555 26.4906 43.9833 26.6226 43.8292C26.7547 43.6752 27.3929 44.0273 28.0752 44.5995C28.7574 45.1717 29.2196 45.7439 29.0875 45.898Z" fill="#438465"/>
<path d="M28.7793 50.6733C28.9114 50.8054 28.4932 51.4876 27.855 52.2139C27.2168 52.9401 26.5565 53.4023 26.4025 53.2703C26.2484 53.1382 26.6886 52.456 27.3268 51.7517C27.965 51.0475 28.6253 50.5413 28.7793 50.6733Z" fill="#438465"/>
</svg>
