<svg width="21" height="21" viewBox="0 0 21 21" fill="none" xmlns="http://www.w3.org/2000/svg">
<path fill-rule="evenodd" clip-rule="evenodd" d="M10.6644 0.981844L9.88534 1.38628L10.4095 1.92755C10.6979 2.22521 10.9459 2.46419 10.9607 2.45854C10.9755 2.45293 11.2896 2.14173 11.6585 1.76701L12.3294 1.08565L12.1432 0.890866C11.928 0.66568 11.7596 0.572242 11.5745 0.575266C11.4893 0.576678 11.1707 0.718952 10.6644 0.981844ZM13.679 1.74713C13.3399 1.82916 13.096 2.01498 12.4427 2.68905L11.801 3.3511L12.1897 3.76881C12.8415 4.46921 13.0465 4.93531 13.0454 5.71483C13.0451 6.0243 13.0236 6.23106 12.9746 6.39866C12.7537 7.15289 12.2116 7.76445 11.5217 8.03751L11.2086 8.16147L11.1423 8.37371C10.9323 9.04673 10.2933 9.70181 9.63864 9.9153C9.44827 9.9774 9.43555 9.99051 9.37527 10.1867C9.17214 10.8479 8.56994 11.4848 7.92086 11.7247C7.67835 11.8143 7.65663 11.8366 7.56966 12.0865C7.17338 13.225 5.94006 13.9243 4.79238 13.6612C4.29335 13.5468 3.92176 13.3218 3.42986 12.8361L3.00261 12.4143L1.98812 13.4618L0.973633 14.5093V14.7893V15.0693L3.60575 17.7831C6.41556 20.68 6.34781 20.6187 6.67443 20.5576C6.80813 20.5326 7.03271 20.3162 8.68407 18.6213L10.5432 16.7132L11.2868 16.6904C12.3117 16.6589 12.7579 16.5509 13.408 16.1769C13.6838 16.0182 13.9368 15.772 16.0148 13.6406C18.5361 11.0543 18.5008 11.0969 18.5968 10.5197C18.7119 9.82755 18.3397 9.03964 17.7441 8.71456C17.621 8.64733 17.575 8.60015 17.5914 8.55789C17.6043 8.52462 17.634 8.38097 17.6573 8.2387C17.7703 7.55056 17.4064 6.78346 16.8138 6.46088C16.6965 6.39704 16.636 6.3401 16.6488 6.30562C16.66 6.27566 16.6894 6.12459 16.7141 5.96986C16.8007 5.42996 16.6258 4.88587 16.237 4.48566C16.0693 4.31298 15.8149 4.12977 15.7008 4.09941C15.696 4.09812 15.7201 3.95488 15.7545 3.78111C15.8305 3.39715 15.7858 3.02618 15.6219 2.68135C15.2735 1.94832 14.4615 1.55788 13.679 1.74713ZM7.82023 1.87602C7.26355 2.03813 6.92805 2.45257 6.89192 3.02284C6.86738 3.4101 6.93337 3.63512 7.1632 3.94802L7.35021 4.20257L7.18543 4.11554C6.95924 3.99609 6.52809 3.96879 6.26875 4.05755C5.55735 4.301 5.21117 5.12307 5.52409 5.82585C5.57806 5.94703 5.74526 6.17637 5.91536 6.36248L6.21243 6.68752L6.01102 6.58481C5.58479 6.36748 4.98259 6.48395 4.62435 6.85306C4.36591 7.11934 4.28071 7.34796 4.28208 7.77151C4.28353 8.23225 4.35421 8.39013 4.76095 8.84123L5.05981 9.17267L4.88564 9.0773C4.63817 8.94176 4.09104 8.94015 3.82744 9.0742C3.57878 9.20062 3.3297 9.46416 3.21009 9.72737C3.07577 10.023 3.07134 10.4575 3.19972 10.7549C3.32493 11.0449 4.50584 12.2665 4.78604 12.3958C5.06134 12.5228 5.53317 12.5257 5.79465 12.402C6.47944 12.0782 6.75036 11.199 6.36711 10.5443L6.29059 10.4136L6.48041 10.5151C6.98981 10.7874 7.60767 10.6828 7.98567 10.2603C8.2281 9.9893 8.31096 9.76633 8.31166 9.3831C8.31217 9.10291 8.29636 9.02625 8.19483 8.81719L8.07741 8.57539L8.29268 8.6977C8.48513 8.80707 8.54321 8.81997 8.84063 8.81961C9.0977 8.81933 9.21492 8.79953 9.35633 8.73246C9.62976 8.60285 9.87086 8.35234 9.99379 8.07001C10.088 7.85374 10.0992 7.78478 10.0872 7.4937C10.0764 7.23367 10.0515 7.11938 9.97054 6.95864L9.86757 6.75422L10.0293 6.84576C10.527 7.12765 11.1624 7.02082 11.5473 6.59053C11.7833 6.32675 11.8713 6.09532 11.8728 5.73499C11.8749 5.17328 11.9026 5.21167 10.2933 3.54556C9.20212 2.41583 8.81351 2.03829 8.6645 1.96304C8.42446 1.84186 8.06485 1.8048 7.82023 1.87602ZM16.8836 14.488C15.7858 15.6204 14.7702 16.6465 14.6266 16.7684C14.1097 17.2074 13.4676 17.5463 12.8254 17.7194C12.6465 17.7677 12.4921 17.8137 12.4823 17.8217C12.4725 17.8297 13.0449 18.4348 13.7544 19.1664C15.1303 20.5854 15.1682 20.616 15.4808 20.5577C15.6156 20.5326 15.9068 20.2462 18.2644 17.8203C21.076 14.9275 21.0162 14.9976 20.9564 14.6612C20.9323 14.5263 20.7982 14.3711 19.9249 13.4677C19.3727 12.8966 18.9117 12.4293 18.9003 12.4293C18.8889 12.4293 17.9814 13.3557 16.8836 14.488Z" fill="#DBDBDB"/>
</svg>
