<svg width="18" height="20" viewBox="0 0 18 20" fill="none" xmlns="http://www.w3.org/2000/svg">
<path d="M15.1009 4.635C14.9744 4.56954 14.8512 4.49778 14.7318 4.42C14.3848 4.1906 14.0667 3.92033 13.7843 3.615C13.0768 2.80583 12.8126 1.985 12.7159 1.41083H12.7193C12.6384 0.933333 12.6718 0.625 12.6776 0.625H9.45677V13.0775C9.45677 13.2442 9.45677 13.41 9.4501 13.5733C9.4501 13.5933 9.4476 13.6117 9.44677 13.6342C9.44677 13.6425 9.44677 13.6525 9.44427 13.6617V13.6692C9.41045 14.1159 9.26736 14.5474 9.02759 14.9258C8.78782 15.3042 8.45873 15.6178 8.06927 15.8392C7.66296 16.0703 7.2034 16.1915 6.73594 16.1908C5.23594 16.1908 4.01927 14.9675 4.01927 13.4567C4.01927 11.945 5.23594 10.7217 6.73594 10.7217C7.0201 10.7217 7.3026 10.7667 7.5726 10.855L7.57677 7.575C6.75678 7.46921 5.92376 7.53456 5.1303 7.76691C4.33684 7.99927 3.60016 8.3936 2.96677 8.925C2.41165 9.40712 1.94492 9.98241 1.5876 10.625C1.45177 10.8592 0.938436 11.8017 0.876769 13.33C0.837602 14.1967 1.09844 15.0967 1.2226 15.4675V15.4758C1.3001 15.6942 1.60344 16.4408 2.09677 17.07C2.4946 17.575 2.96464 18.0187 3.49177 18.3867V18.3783L3.49927 18.3867C5.0576 19.445 6.78677 19.3758 6.78677 19.3758C7.08594 19.3633 8.08844 19.3758 9.22677 18.8367C10.4893 18.2383 11.2076 17.3475 11.2076 17.3475C11.6669 16.8151 12.0321 16.2084 12.2876 15.5533C12.5793 14.7867 12.6759 13.8683 12.6759 13.5017V6.89417C12.7151 6.9175 13.2359 7.26167 13.2359 7.26167C13.2359 7.26167 13.9859 7.7425 15.1551 8.055C15.9934 8.2775 17.1243 8.325 17.1243 8.325V5.1275C16.7284 5.17083 15.9243 5.04583 15.1001 4.63583L15.1009 4.635Z" fill="#EBEBEB"/>
</svg>
