<svg width="15" height="20" viewBox="0 0 15 20" fill="none" xmlns="http://www.w3.org/2000/svg">
<path fill-rule="evenodd" clip-rule="evenodd" d="M4.16877 0.185059H1.56787C1.15399 0.185059 0.757055 0.349472 0.464396 0.642131C0.171738 0.934789 0.00732422 1.33172 0.00732422 1.7456V17.8712C0.00732422 18.2851 0.171738 18.682 0.464396 18.9747C0.757055 19.2673 1.15399 19.4317 1.56787 19.4317H13.0118C13.4257 19.4317 13.8227 19.2673 14.1153 18.9747C14.408 18.682 14.5724 18.2851 14.5724 17.8712V1.7456C14.5724 1.33172 14.408 0.934789 14.1153 0.642131C13.8227 0.349472 13.4257 0.185059 13.0118 0.185059H10.4109V1.22542C10.4109 1.50134 10.3013 1.76596 10.1062 1.96107C9.91112 2.15617 9.6465 2.26578 9.37058 2.26578H5.20913C4.93321 2.26578 4.66859 2.15617 4.47349 1.96107C4.27838 1.76596 4.16877 1.50134 4.16877 1.22542V0.185059ZM2.60823 7.46759C2.60823 7.32963 2.66303 7.19732 2.76059 7.09976C2.85814 7.00221 2.99045 6.94741 3.12841 6.94741H6.76967C6.90763 6.94741 7.03995 7.00221 7.1375 7.09976C7.23505 7.19732 7.28986 7.32963 7.28986 7.46759C7.28986 7.60555 7.23505 7.73786 7.1375 7.83541C7.03995 7.93297 6.90763 7.98777 6.76967 7.98777H3.12841C2.99045 7.98777 2.85814 7.93297 2.76059 7.83541C2.66303 7.73786 2.60823 7.60555 2.60823 7.46759ZM3.12841 4.3465C2.99045 4.3465 2.85814 4.40131 2.76059 4.49886C2.66303 4.59641 2.60823 4.72872 2.60823 4.86668C2.60823 5.00465 2.66303 5.13696 2.76059 5.23451C2.85814 5.33206 2.99045 5.38687 3.12841 5.38687H11.1912C11.3292 5.38687 11.4615 5.33206 11.559 5.23451C11.6566 5.13696 11.7114 5.00465 11.7114 4.86668C11.7114 4.72872 11.6566 4.59641 11.559 4.49886C11.4615 4.40131 11.3292 4.3465 11.1912 4.3465H3.12841ZM3.64859 11.629V12.6694H4.68895V11.629H3.64859ZM3.12841 10.5887C2.99045 10.5887 2.85814 10.6435 2.76059 10.741C2.66303 10.8386 2.60823 10.9709 2.60823 11.1089V13.1896C2.60823 13.3275 2.66303 13.4598 2.76059 13.5574C2.85814 13.655 2.99045 13.7098 3.12841 13.7098H5.20913C5.34709 13.7098 5.4794 13.655 5.57696 13.5574C5.67451 13.4598 5.72931 13.3275 5.72931 13.1896V11.1089C5.72931 10.9709 5.67451 10.8386 5.57696 10.741C5.4794 10.6435 5.34709 10.5887 5.20913 10.5887H3.12841ZM10.9311 11.629C10.9311 12.0429 10.7667 12.4398 10.474 12.7325C10.1814 13.0252 9.78446 13.1896 9.37058 13.1896C8.9567 13.1896 8.55977 13.0252 8.26711 12.7325C7.97445 12.4398 7.81004 12.0429 7.81004 11.629C7.81004 11.2152 7.97445 10.8182 8.26711 10.5256C8.55977 10.2329 8.9567 10.0685 9.37058 10.0685C9.78446 10.0685 10.1814 10.2329 10.474 10.5256C10.7667 10.8182 10.9311 11.2152 10.9311 11.629ZM9.37058 13.8752C8.32866 13.8752 6.24949 14.4297 6.24949 15.5304V16.8308H12.4917V15.5304C12.4917 14.4297 10.4125 13.8752 9.37058 13.8752Z" fill="#DBDBDB"/>
</svg>
