<svg width="25" height="33" viewBox="0 0 25 33" fill="none" xmlns="http://www.w3.org/2000/svg">
<path fill-rule="evenodd" clip-rule="evenodd" d="M7.14286 0.50293H2.67857C1.96817 0.50293 1.28686 0.776288 0.784535 1.26287C0.282205 1.74945 0 2.4094 0 3.09752V29.9083C0 30.5965 0.282205 31.2564 0.784535 31.743C1.28686 32.2296 1.96817 32.5029 2.67857 32.5029H22.3214C23.0318 32.5029 23.7131 32.2296 24.2155 31.743C24.7178 31.2564 25 30.5965 25 29.9083V3.09752C25 2.4094 24.7178 1.74945 24.2155 1.26287C23.7131 0.776288 23.0318 0.50293 22.3214 0.50293H17.8571V2.23266C17.8571 2.69141 17.669 3.13138 17.3341 3.45576C16.9992 3.78015 16.545 3.96239 16.0714 3.96239H8.92857C8.45497 3.96239 8.00077 3.78015 7.66588 3.45576C7.331 3.13138 7.14286 2.69141 7.14286 2.23266V0.50293ZM4.46429 12.611C4.46429 12.3817 4.55835 12.1617 4.7258 11.9995C4.89324 11.8373 5.12034 11.7462 5.35714 11.7462H11.6071C11.8439 11.7462 12.071 11.8373 12.2385 11.9995C12.4059 12.1617 12.5 12.3817 12.5 12.611C12.5 12.8404 12.4059 13.0604 12.2385 13.2226C12.071 13.3848 11.8439 13.4759 11.6071 13.4759H5.35714C5.12034 13.4759 4.89324 13.3848 4.7258 13.2226C4.55835 13.0604 4.46429 12.8404 4.46429 12.611ZM5.35714 7.42185C5.12034 7.42185 4.89324 7.51297 4.7258 7.67516C4.55835 7.83736 4.46429 8.05734 4.46429 8.28671C4.46429 8.51609 4.55835 8.73607 4.7258 8.89827C4.89324 9.06046 5.12034 9.15158 5.35714 9.15158H19.1964C19.4332 9.15158 19.6603 9.06046 19.8278 8.89827C19.9952 8.73607 20.0893 8.51609 20.0893 8.28671C20.0893 8.05734 19.9952 7.83736 19.8278 7.67516C19.6603 7.51297 19.4332 7.42185 19.1964 7.42185H5.35714ZM6.25 19.53V21.2597H8.03571V19.53H6.25ZM5.35714 17.8002C5.12034 17.8002 4.89324 17.8913 4.7258 18.0535C4.55835 18.2157 4.46429 18.4357 4.46429 18.6651V22.1246C4.46429 22.3539 4.55835 22.5739 4.7258 22.7361C4.89324 22.8983 5.12034 22.9894 5.35714 22.9894H8.92857C9.16537 22.9894 9.39248 22.8983 9.55992 22.7361C9.72736 22.5739 9.82143 22.3539 9.82143 22.1246V18.6651C9.82143 18.4357 9.72736 18.2157 9.55992 18.0535C9.39248 17.8913 9.16537 17.8002 8.92857 17.8002H5.35714ZM18.75 19.53C18.75 20.2181 18.4678 20.878 17.9655 21.3646C17.4631 21.8512 16.7818 22.1246 16.0714 22.1246C15.361 22.1246 14.6797 21.8512 14.1774 21.3646C13.6751 20.878 13.3929 20.2181 13.3929 19.53C13.3929 18.8418 13.6751 18.1819 14.1774 17.6953C14.6797 17.2087 15.361 16.9354 16.0714 16.9354C16.7818 16.9354 17.4631 17.2087 17.9655 17.6953C18.4678 18.1819 18.75 18.8418 18.75 19.53ZM16.0714 23.2644C14.283 23.2644 10.7143 24.1864 10.7143 26.0164V28.1786H21.4286V26.0164C21.4286 24.1864 17.8598 23.2644 16.0714 23.2644Z" fill="white"/>
</svg>
