<svg width="21" height="21" viewBox="0 0 21 21" fill="none" xmlns="http://www.w3.org/2000/svg">
<g clip-path="url(#clip0_159_1205)">
<path d="M1.59863 15.2626H4.09863V19.6376H1.59863V15.2626Z" fill="#448666"/>
<path d="M12.3799 14.0126C13.3277 14.0126 14.0986 14.7838 14.0986 15.7313C14.0986 15.8938 14.0761 16.051 14.0336 16.2001H14.8989L18.6402 14.4735C18.8499 14.3763 19.0833 14.3251 19.3152 14.3251H19.3627C19.4871 14.3251 19.6071 14.3423 19.7236 14.3691V5.88757C19.7236 5.19726 19.1639 4.63757 18.4736 4.63757H16.5986V2.76257C16.5986 2.07226 16.0389 1.51257 15.3486 1.51257H11.5986C10.9083 1.51257 10.3486 2.07226 10.3486 2.76257V4.63757H8.47363C7.78332 4.63757 7.22363 5.19726 7.22363 5.88757V14.691L7.90207 14.0126H12.3799ZM11.5986 2.76257H15.3486V4.63757H11.5986V2.76257ZM13.4736 6.51257C15.3721 6.51257 16.9111 8.05164 16.9111 9.95007C16.9111 11.8485 15.3721 13.3876 13.4736 13.3876C11.5752 13.3876 10.0361 11.8485 10.0361 9.95007C10.0361 8.05164 11.5752 6.51257 13.4736 6.51257Z" fill="#448666"/>
<path d="M12.8486 11.8251H14.0986V10.5751H15.3486V9.32507H14.0986V8.07507H12.8486V9.32507H11.5986V10.5751H12.8486V11.8251Z" fill="#448666"/>
<path d="M19.3627 14.9501H19.3152C19.1724 14.9501 19.0314 14.981 18.9021 15.0407L15.0361 16.8251H12.3799C12.9839 16.8251 13.4736 16.3354 13.4736 15.7313C13.4736 15.1273 12.9839 14.6376 12.3799 14.6376H8.16113L6.91113 15.8876H4.72363V19.3251H15.3486L19.8461 16.7954C20.1564 16.6207 20.3486 16.2923 20.3486 15.936C20.3486 15.3913 19.9074 14.9501 19.3627 14.9501ZM12.2236 17.4501H10.0361C9.86363 17.4501 9.72363 17.3101 9.72363 17.1376C9.72363 16.9651 9.86363 16.8251 10.0361 16.8251H12.2236C12.3961 16.8251 12.5361 16.9651 12.5361 17.1376C12.5361 17.3101 12.3961 17.4501 12.2236 17.4501Z" fill="#448666"/>
</g>
<defs>
<clipPath id="clip0_159_1205">
<rect width="20" height="20" fill="white" transform="translate(0.973633 0.575073)"/>
</clipPath>
</defs>
</svg>
