<svg width="24" height="24" viewBox="0 0 24 24" fill="none" xmlns="http://www.w3.org/2000/svg">
<path d="M13.75 5C14.612 5 15.439 5.342 16.048 5.952C16.658 6.561 17 7.388 17 8.25V8.423L20.864 6.10501C20.978 6.03701 21.108 5.99999 21.24 5.99799C21.373 5.99599 21.504 6.03 21.619 6.095C21.735 6.161 21.831 6.256 21.898 6.37C21.965 6.485 22 6.61499 22 6.74799V18.25C22 18.383 21.965 18.513 21.898 18.628C21.831 18.742 21.735 18.837 21.619 18.903C21.504 18.968 21.373 19.002 21.24 19C21.108 18.998 20.978 18.961 20.864 18.893L17 16.575V16.75C17 17.612 16.658 18.439 16.048 19.048C15.439 19.658 14.612 20 13.75 20H5.25C4.388 20 3.561 19.658 2.952 19.048C2.342 18.439 2 17.612 2 16.75V8.25C2 7.388 2.342 6.561 2.952 5.952C3.561 5.342 4.388 5 5.25 5H13.75ZM13.75 6.5H5.25C4.786 6.5 4.341 6.684 4.013 7.013C3.684 7.341 3.5 7.786 3.5 8.25V16.75C3.5 17.716 4.284 18.5 5.25 18.5H13.75C14.214 18.5 14.659 18.316 14.987 17.987C15.316 17.659 15.5 17.214 15.5 16.75V8.25C15.5 7.786 15.316 7.341 14.987 7.013C14.659 6.684 14.214 6.5 13.75 6.5ZM20.5 8.073L17 10.174V14.825L20.5 16.925V8.073Z" fill="#9B9B9B"/>
</svg>
