<svg width="24" height="24" viewBox="0 0 24 24" fill="none" xmlns="http://www.w3.org/2000/svg">
<g clip-path="url(#clip0_4718_15733)">
<path d="M19.0019 12.2648L18.4717 11.7345C18.4649 11.7409 17.8207 12.3746 16.8618 12.3746C15.9146 12.3746 15.2576 11.7398 15.2508 11.7334L14.7217 12.2648C14.7569 12.3 15.5962 13.1246 16.8618 13.1246C18.1274 13.1246 18.9667 12.3 19.0019 12.2648Z" fill="black"/>
<path d="M12.4717 11.7354C12.4649 11.7417 11.8207 12.3755 10.8618 12.3755C9.91455 12.3755 9.25755 11.7406 9.25193 11.7354L8.72168 12.2656C8.75693 12.3009 9.59618 13.1255 10.8618 13.1255C12.1274 13.1255 12.9667 12.3009 13.0019 12.2656L12.4717 11.7354Z" fill="black"/>
<path d="M15.8682 17.9907L15.6309 17.2793C14.2524 17.739 13.8717 17.739 12.4932 17.2793L12.2559 17.9907C13.0239 18.2468 13.5432 18.3747 14.0619 18.3747C14.5805 18.3747 15.1006 18.2468 15.8682 17.9907Z" fill="black"/>
<path d="M1.125 23.2499H4.5C4.70738 23.2499 4.875 23.0819 4.875 22.8749V20.6249C4.875 19.1774 6.05288 17.9999 7.5 17.9999H8.625C8.74275 17.9999 8.8545 17.9766 8.96137 17.9429C9.204 18.2624 9.46275 18.5691 9.7365 18.8609V23.2499H10.4865V19.5891C10.5101 19.6097 10.5323 19.6322 10.5559 19.6529C10.9826 20.0241 11.391 20.2982 11.8043 20.491C12.534 20.8307 13.3028 20.9972 14.0621 20.9972C15.2704 20.9972 16.4557 20.5754 17.4225 19.7567C17.4877 19.7016 17.5474 19.6382 17.6115 19.5812V23.2499H18.3615V18.8556C18.5516 18.6542 18.741 18.4517 18.9161 18.2372L18.3353 17.7621C17.913 18.2785 17.4427 18.757 16.938 19.1841C15.5887 20.3249 13.743 20.5656 12.12 19.8107C11.7712 19.648 11.4206 19.4114 11.0479 19.087C10.5026 18.6119 10.0043 18.0752 9.56213 17.494C9.68062 17.3166 9.75 17.104 9.75 16.8749V14.2499C9.75 13.6296 9.24525 13.1249 8.625 13.1249H7.5H7.4895C7.4055 12.88 7.33988 12.6617 7.29375 12.3992C7.30725 10.6352 8.55225 8.44374 9.999 7.73386C11.0666 7.20999 12.252 6.81324 13.3976 6.42999C13.4441 6.41424 13.4902 6.39886 13.5367 6.38349C14.9318 6.69849 16.6695 7.19911 17.9261 8.26336C18.5317 8.77674 19.0706 9.45961 19.6215 10.4132C19.7846 10.6952 19.9492 11.0001 20.1566 11.4021C20.2286 11.5424 20.3385 11.7396 20.4401 11.9181C20.589 12.181 20.7094 12.4615 20.7964 12.751L20.8283 12.8571C20.8774 13.0206 21.0379 13.1365 21.2003 13.1241C21.3705 13.1181 21.5156 12.9981 21.5531 12.832C21.5591 12.8054 21.7016 12.1731 21.7504 11.8641C21.8678 11.1201 21.9581 10.3105 22.035 9.31674C22.0901 8.60499 22.1426 7.84749 22.1257 7.10236C22.1021 6.06361 21.87 4.56174 20.9025 3.30249C20.1941 2.38074 19.1449 1.67086 17.8691 1.25011C16.8596 0.917113 15.7275 0.759238 14.3066 0.753238C12.8569 0.744988 11.6677 0.902113 10.6125 1.24186C9.2925 1.66674 8.19938 2.38899 7.45125 3.33061C6.6675 4.31761 6.2055 5.61474 6.11512 7.08249C6.03412 8.40024 6.24638 11.5465 6.56588 12.8399C6.58238 12.9066 6.61912 12.9614 6.66412 13.0075C6.67537 13.0469 6.68775 13.0859 6.69975 13.1249H4.125C2.26388 13.1249 0.75 14.6391 0.75 16.4999V22.8749C0.75 23.0819 0.917625 23.2499 1.125 23.2499ZM7.875 13.8749H8.625C8.832 13.8749 9 14.0432 9 14.2499V16.8749C9 17.0815 8.832 17.2499 8.625 17.2499H7.875V13.8749ZM20.3081 3.75999C21.1523 4.85836 21.3547 6.19336 21.3761 7.11999C21.3923 7.83099 21.3435 8.53786 21.2876 9.25936C21.2216 10.1125 21.1455 10.825 21.051 11.4756C20.9674 11.3275 20.8822 11.1734 20.8234 11.0594C20.6108 10.6461 20.4405 10.3315 20.2714 10.0386C19.6755 9.00811 19.0849 8.26224 18.4114 7.69149C17.3666 6.80686 16.053 6.28449 14.835 5.93799C15.1091 5.83936 15.3814 5.73774 15.6491 5.63199C16.9759 5.10624 18.8228 4.31499 20.1885 3.61111C20.229 3.65911 20.2691 3.70899 20.3081 3.75999ZM6.86475 7.12899C6.921 6.21286 7.17037 4.89136 8.03962 3.79749C8.69512 2.97211 9.66488 2.33574 10.8435 1.95624C11.8016 1.64799 12.8775 1.50361 14.2234 1.50361H14.3048C15.6442 1.50924 16.7029 1.65511 17.6351 1.96299C18.2156 2.15424 18.966 2.48761 19.632 3.05274C18.3049 3.72061 16.5592 4.46461 15.3735 4.93449C14.6572 5.21836 13.8968 5.47299 13.161 5.71899C11.9914 6.11011 10.782 6.51474 9.66937 7.06074C8.53012 7.61986 7.51912 8.91324 6.97275 10.3217C6.8685 9.11949 6.82087 7.83549 6.86475 7.12899ZM4.125 13.8749H7.125V17.272C5.44012 17.4595 4.125 18.8909 4.125 20.6249V22.4999H3.375V18.901C3.375 18.2136 3.06713 17.5731 2.5305 17.1441L1.50862 16.3266C1.59862 14.9601 2.73637 13.8749 4.125 13.8749ZM1.5 17.2802L2.06212 17.7299C2.41988 18.016 2.625 18.4431 2.625 18.901V22.4999H1.5V17.2802Z" fill="black"/>
<path d="M5.0625 17.0625C5.57963 17.0625 6 16.6418 6 16.125V15.5625C6 15.0457 5.57963 14.625 5.0625 14.625C4.54538 14.625 4.125 15.0457 4.125 15.5625V16.125C4.125 16.6418 4.54538 17.0625 5.0625 17.0625ZM4.875 15.5625C4.875 15.459 4.95938 15.375 5.0625 15.375C5.16562 15.375 5.25 15.459 5.25 15.5625V16.125C5.25 16.2285 5.16562 16.3125 5.0625 16.3125C4.95938 16.3125 4.875 16.2285 4.875 16.125V15.5625Z" fill="black"/>
<path d="M17.3403 16.4887C17.4007 16.4737 18.652 16.1388 19.7579 14.2042L19.8858 14.716L20.6129 14.5342L20.2379 13.0342C20.2105 12.9239 20.1344 12.832 20.0309 12.7844C19.9274 12.7368 19.8082 12.7387 19.7065 12.7897L18.2065 13.5397L18.5422 14.2105L19.0218 13.9709C18.112 15.4773 17.1659 15.7593 17.1543 15.7623L17.2495 16.1249L17.3403 16.4887Z" fill="black"/>
<path d="M19.9653 17.9885C20.0257 17.9735 21.277 17.6386 22.3829 15.704L22.5108 16.2159L23.2379 16.034L22.8629 14.534C22.8355 14.4238 22.7594 14.3319 22.6559 14.2843C22.5524 14.2366 22.4332 14.2389 22.3315 14.2895L20.8315 15.0395L21.1672 15.7104L21.6468 15.4708C20.737 16.9771 19.7909 17.2591 19.7793 17.2621L19.8745 17.6248L19.9653 17.9885Z" fill="black"/>
</g>
<defs>
<clipPath id="clip0_4718_15733">
<rect width="24" height="24" fill="white"/>
</clipPath>
</defs>
</svg>
