<svg width="44" height="45" viewBox="0 0 44 45" fill="none" xmlns="http://www.w3.org/2000/svg">
<rect y="0.508789" width="44" height="44" rx="22" fill="#F1FAF9"/>
<path fill-rule="evenodd" clip-rule="evenodd" d="M22.0003 21.1338C22.7904 21.1338 23.5482 20.8199 24.1069 20.2612C24.6656 19.7025 24.9795 18.9447 24.9795 18.1546C24.9795 17.3645 24.6656 16.6067 24.1069 16.048C23.5482 15.4893 22.7904 15.1755 22.0003 15.1755C21.2102 15.1755 20.4524 15.4893 19.8937 16.048C19.335 16.6067 19.0212 17.3645 19.0212 18.1546C19.0212 18.9447 19.335 19.7025 19.8937 20.2612C20.4524 20.8199 21.2102 21.1338 22.0003 21.1338ZM22.0003 22.0505C23.0336 22.0505 24.0245 21.64 24.7551 20.9094C25.4857 20.1788 25.8962 19.1879 25.8962 18.1546C25.8962 17.1214 25.4857 16.1305 24.7551 15.3999C24.0245 14.6692 23.0336 14.2588 22.0003 14.2588C20.9671 14.2588 19.9762 14.6692 19.2456 15.3999C18.5149 16.1305 18.1045 17.1214 18.1045 18.1546C18.1045 19.1879 18.5149 20.1788 19.2456 20.9094C19.9762 21.64 20.9671 22.0505 22.0003 22.0505Z" fill="black"/>
<path fill-rule="evenodd" clip-rule="evenodd" d="M22.176 16.0509C22.236 16.0559 22.2945 16.0726 22.348 16.1002C22.4016 16.1278 22.4491 16.1656 22.488 16.2116C22.5269 16.2576 22.5564 16.3108 22.5747 16.3681C22.5931 16.4255 22.5999 16.4859 22.5949 16.5459L22.319 19.84C22.3088 19.9612 22.251 20.0733 22.1581 20.1519C22.0652 20.2304 21.945 20.2688 21.8238 20.2586C21.7026 20.2485 21.5904 20.1906 21.5119 20.0977C21.4333 20.0049 21.3949 19.8846 21.4051 19.7634L21.6815 16.4694C21.6916 16.3482 21.7495 16.2361 21.8423 16.1576C21.9351 16.0792 22.0553 16.0408 22.1765 16.0509H22.176ZM17.6458 29.8422C18.436 29.8422 19.1937 29.5283 19.7524 28.9696C20.3111 28.4109 20.625 27.6531 20.625 26.863C20.625 26.0729 20.3111 25.3151 19.7524 24.7564C19.1937 24.1977 18.436 23.8838 17.6458 23.8838C16.8557 23.8838 16.0979 24.1977 15.5392 24.7564C14.9805 25.3151 14.6667 26.0729 14.6667 26.863C14.6667 27.6531 14.9805 28.4109 15.5392 28.9696C16.0979 29.5283 16.8557 29.8422 17.6458 29.8422ZM17.6458 30.7588C18.6791 30.7588 19.67 30.3484 20.4006 29.6178C21.1312 28.8872 21.5417 27.8962 21.5417 26.863C21.5417 25.8298 21.1312 24.8388 20.4006 24.1082C19.67 23.3776 18.6791 22.9672 17.6458 22.9672C16.6126 22.9672 15.6217 23.3776 14.8911 24.1082C14.1605 24.8388 13.75 25.8298 13.75 26.863C13.75 27.8962 14.1605 28.8872 14.8911 29.6178C15.6217 30.3484 16.6126 30.7588 17.6458 30.7588Z" fill="black"/>
<path fill-rule="evenodd" clip-rule="evenodd" d="M19.1387 28.3558C19.0527 28.4418 18.9361 28.49 18.8146 28.49C18.6931 28.49 18.5765 28.4418 18.4906 28.3558L16.1531 26.0183C16.0696 25.9319 16.0234 25.8161 16.0244 25.6959C16.0255 25.5758 16.0737 25.4608 16.1587 25.3758C16.2436 25.2909 16.3586 25.2426 16.4788 25.2416C16.5989 25.2406 16.7147 25.2868 16.8012 25.3702L19.1387 27.7077C19.2246 27.7937 19.2729 27.9103 19.2729 28.0318C19.2729 28.1533 19.2246 28.2699 19.1387 28.3558ZM26.3542 28.9255C27.1443 28.9255 27.9021 28.6117 28.4608 28.053C29.0195 27.4943 29.3334 26.7365 29.3334 25.9464C29.3334 25.1562 29.0195 24.3985 28.4608 23.8398C27.9021 23.2811 27.1443 22.9672 26.3542 22.9672C25.5641 22.9672 24.8063 23.2811 24.2476 23.8398C23.6889 24.3985 23.375 25.1562 23.375 25.9464C23.375 26.7365 23.6889 27.4943 24.2476 28.053C24.8063 28.6117 25.5641 28.9255 26.3542 28.9255ZM26.3542 29.8422C27.3874 29.8422 28.3784 29.4318 29.109 28.7011C29.8396 27.9705 30.25 26.9796 30.25 25.9464C30.25 24.9131 29.8396 23.9222 29.109 23.1916C28.3784 22.461 27.3874 22.0505 26.3542 22.0505C25.321 22.0505 24.33 22.461 23.5994 23.1916C22.8688 23.9222 22.4584 24.9131 22.4584 25.9464C22.4584 26.9796 22.8688 27.9705 23.5994 28.7011C24.33 29.4318 25.321 29.8422 26.3542 29.8422Z" fill="black"/>
<path fill-rule="evenodd" clip-rule="evenodd" d="M28.3058 25.1419C28.3288 25.1975 28.3405 25.2572 28.3404 25.3174C28.3403 25.3776 28.3284 25.4372 28.3052 25.4928C28.282 25.5484 28.2482 25.5989 28.2055 25.6414C28.1628 25.6839 28.1122 25.7175 28.0565 25.7404L25.0003 26.9999C24.8879 27.0463 24.7617 27.046 24.6494 26.9992C24.5371 26.9525 24.4481 26.863 24.4017 26.7506C24.3554 26.6382 24.3557 26.5119 24.4024 26.3997C24.4492 26.2874 24.5386 26.1983 24.6511 26.152L27.7072 24.8925C27.7629 24.8696 27.8226 24.8578 27.8828 24.8579C27.943 24.858 28.0026 24.87 28.0582 24.8931C28.1138 24.9163 28.1643 24.9502 28.2068 24.9929C28.2493 25.0355 28.2829 25.0862 28.3058 25.1419Z" fill="black"/>
</svg>
