<svg width="44" height="45" viewBox="0 0 44 45" fill="none" xmlns="http://www.w3.org/2000/svg">
<rect y="0.508789" width="44" height="44" rx="22" fill="#F1FAF9"/>
<g clip-path="url(#clip0_6401_1786)">
<path d="M15.8125 22.5087L24.475 13.8462C25.025 13.2962 25.85 12.8837 26.8125 12.8837C27.775 12.8837 28.6 13.2962 29.2875 13.8462C30.6625 15.2212 30.6625 17.4212 29.2875 18.6587L25.4375 22.5087H27.3625L30.1125 19.7587C32.0375 17.8337 32.0375 14.8087 30.1125 13.0212C29.15 12.0587 27.9125 11.6462 26.675 11.6462C25.4375 11.6462 24.3375 11.9212 23.375 12.8837L14.7125 21.6837C14.3 21.9587 14.025 22.3712 13.75 22.9212C14.4375 22.6462 15.125 22.5087 15.8125 22.5087Z" fill="black"/>
<path d="M21.0375 19.2087L17.7375 22.5087H24.2L21.0375 19.2087ZM28.1875 23.8837H15.8125C13.2 23.8837 11 26.0837 11 28.6962C11 31.3087 13.2 33.5087 15.8125 33.5087H28.1875C30.8 33.5087 33 31.3087 33 28.6962C33 26.0837 30.8 23.8837 28.1875 23.8837ZM28.1875 32.1337H22V26.6337H15.8125C14.3 26.6337 13.0625 27.4587 12.375 28.2837C12.65 26.6337 14.025 25.2587 15.8125 25.2587H28.1875C30.1125 25.2587 31.625 26.7712 31.625 28.6962C31.625 30.6212 30.1125 32.1337 28.1875 32.1337Z" fill="black"/>
</g>
<defs>
<clipPath id="clip0_6401_1786">
<rect width="22" height="22" fill="white" transform="translate(11 11.5088)"/>
</clipPath>
</defs>
</svg>
