<svg width="44" height="45" viewBox="0 0 44 45" fill="none" xmlns="http://www.w3.org/2000/svg">
<rect y="0.508789" width="44" height="44" rx="22" fill="#F1FAF9"/>
<path d="M20.0703 12.9268C18.9574 12.9268 17.9477 13.0419 17.2473 13.2172C16.8949 13.3049 16.6199 13.411 16.4652 13.503C16.4094 13.5365 16.3922 13.5537 16.375 13.5713C16.3922 13.5889 16.4094 13.6061 16.4652 13.6396C16.6199 13.7316 16.8949 13.8377 17.2473 13.9254C17.9477 14.1007 18.9574 14.2158 20.0703 14.2158C21.1832 14.2158 22.193 14.1007 22.8934 13.9254C23.2457 13.8377 23.5207 13.7316 23.6754 13.6396C23.7312 13.6061 23.7484 13.5889 23.7656 13.5713C23.7484 13.5537 23.7312 13.5365 23.6754 13.503C23.5207 13.411 23.2457 13.3049 22.8934 13.2172C22.193 13.0419 21.1832 12.9268 20.0703 12.9268ZM16.332 14.4362V16.158C16.6113 16.2998 16.9766 16.4416 17.2473 16.5104C17.9477 16.6865 18.9574 16.8025 20.0703 16.8025C21.1832 16.8025 22.193 16.6865 22.8934 16.5104C23.409 16.3857 23.4691 16.3729 23.8086 16.158V14.4362C23.598 14.5291 23.3574 14.6068 23.0824 14.6756C22.2875 14.8737 21.2348 14.9893 20.0703 14.9893C18.9059 14.9893 17.8531 14.8737 17.0582 14.6756C16.7832 14.6068 16.5426 14.5291 16.332 14.4362ZM16.7016 17.1635C16.3449 17.2881 15.9926 17.5115 15.7047 17.7994C15.2484 18.2506 14.957 18.8564 14.957 19.415V22.165C14.957 22.3799 15.0516 22.5646 15.2948 22.7752C15.5371 22.9814 15.9281 23.1834 16.4094 23.3467C17.3805 23.6689 18.7254 23.8408 20.0703 23.8408C21.4109 23.8408 22.7602 23.6689 23.7312 23.3467C24.2125 23.1834 24.6035 22.9814 24.8441 22.7752C25.0891 22.5646 25.1836 22.3799 25.1836 22.165V19.415C25.1836 18.8564 24.8914 18.2506 24.4359 17.7994C24.148 17.5115 23.8 17.2881 23.4391 17.1635C23.3273 17.1979 23.207 17.2322 23.0824 17.2623C22.2875 17.46 21.2348 17.576 20.0703 17.576C18.9059 17.576 17.8531 17.46 17.0582 17.2623C16.9336 17.2322 16.8133 17.1979 16.7016 17.1635ZM14.957 23.4928V26.29C14.957 26.5049 15.0516 26.6896 15.2948 26.9002C15.5371 27.1064 15.9281 27.3084 16.4094 27.4717C17.3805 27.7939 18.7254 27.9658 20.0703 27.9658C21.4109 27.9658 22.7602 27.7939 23.7312 27.4717C24.2125 27.3084 24.6035 27.1064 24.8441 26.9002C25.0891 26.6896 25.1836 26.5049 25.1836 26.29V23.4928C24.8484 23.7334 24.4402 23.9225 23.9719 24.0771C22.8805 24.4424 21.4754 24.6143 20.0703 24.6143C18.6609 24.6143 17.2602 24.4424 16.1688 24.0771C15.7004 23.9225 15.29 23.7334 14.957 23.4928ZM14.957 27.6178V30.415C14.957 30.6299 15.0516 30.8146 15.2948 31.0252C15.5371 31.2314 15.9281 31.4334 16.4094 31.5967C17.3805 31.9189 18.7254 32.0908 20.0703 32.0908C20.8223 32.0908 21.5828 32.035 22.2703 31.9318C22.1328 31.7385 22.0469 31.5193 22.0469 31.2701C22.0469 30.7631 22.4035 30.3635 22.8504 30.1143C23.1211 29.9596 23.4434 29.8521 23.7957 29.7877C23.8902 29.4053 24.1996 29.1002 24.5648 28.8939C24.7496 28.7908 24.9602 28.7049 25.1836 28.6404V27.6178C24.8484 27.8584 24.4402 28.0475 23.9719 28.2021C22.8805 28.5674 21.4754 28.7393 20.0703 28.7393C18.6609 28.7393 17.2602 28.5674 16.1688 28.2021C15.7004 28.0475 15.29 27.8584 14.957 27.6178ZM26.2105 29.2807C25.6992 29.2807 25.2395 29.401 24.943 29.5686C24.8441 29.6244 24.7711 29.6803 24.7109 29.7318C25.2523 29.7619 25.7508 29.8951 26.1418 30.1143C26.4082 30.2646 26.6445 30.4666 26.7863 30.7115C26.9152 30.3893 27.1902 30.1271 27.5168 29.9467C27.6027 29.8994 27.693 29.8564 27.7875 29.8135C27.723 29.7361 27.6242 29.6502 27.4781 29.5686C27.1816 29.401 26.7219 29.2807 26.2105 29.2807ZM29.1625 30.3334C28.6512 30.3334 28.1914 30.4537 27.8949 30.6213C27.5941 30.7889 27.4867 30.9693 27.4867 31.1025C27.4867 31.2357 27.5941 31.4162 27.8949 31.5838C28.1914 31.7514 28.6512 31.8717 29.1625 31.8717C29.6738 31.8717 30.1336 31.7514 30.4301 31.5838C30.7309 31.4162 30.8383 31.2357 30.8383 31.1025C30.8383 30.9693 30.7309 30.7889 30.4301 30.6213C30.1336 30.4537 29.6738 30.3334 29.1625 30.3334ZM24.4961 30.501C23.9848 30.501 23.525 30.6213 23.2285 30.7889C22.9277 30.9564 22.8203 31.1369 22.8203 31.2701C22.8203 31.4033 22.9277 31.5838 23.2285 31.7514C23.525 31.9189 23.9848 32.0393 24.4961 32.0393C25.0074 32.0393 25.4672 31.9189 25.7637 31.7514C26.0645 31.5838 26.1719 31.4033 26.1719 31.2701C26.1719 31.1369 26.0645 30.9564 25.7637 30.7889C25.4672 30.6213 25.0074 30.501 24.4961 30.501Z" fill="black"/>
</svg>
