<svg width="38" height="38" viewBox="0 0 38 38" fill="none" xmlns="http://www.w3.org/2000/svg">
<rect x="0.171875" y="0.890625" width="37.0283" height="37.0283" rx="11.1085" fill="url(#paint0_linear_4914_16725)"/>
<path d="M11.0349 21.9546L9.62148 20.3851C9.48968 20.2399 9.38965 20.0688 9.3278 19.8827C9.26595 19.6966 9.24364 19.4997 9.26231 19.3045C9.28097 19.1093 9.3402 18.9202 9.43619 18.7492C9.53218 18.5782 9.66283 18.4292 9.81975 18.3116C11.5872 17.0368 13.629 16.1944 15.7812 15.8519C17.7686 15.5169 19.8054 15.6235 21.747 16.1643C23.8603 16.7329 25.8099 17.7914 27.4379 19.2539C27.5812 19.3868 27.6954 19.5481 27.773 19.7275C27.8506 19.9069 27.89 20.1005 27.8886 20.296C27.8873 20.4915 27.8453 20.6845 27.7653 20.8629C27.6852 21.0413 27.569 21.201 27.4238 21.3319L25.8543 22.7453C25.6026 22.9765 25.2755 23.1082 24.9339 23.116C24.5923 23.1238 24.2595 23.0071 23.9976 22.7877C23.479 22.3451 22.912 21.9625 22.3075 21.6474C22.0685 21.5235 21.87 21.3337 21.7355 21.1005C21.601 20.8673 21.5363 20.6004 21.5488 20.3315L21.6149 19.0687C19.6907 18.4296 17.6296 18.3217 15.6491 18.7564L15.583 20.0191C15.5674 20.2879 15.4751 20.5466 15.317 20.7645C15.1589 20.9824 14.9417 21.1504 14.6911 21.2487C14.0569 21.499 13.4531 21.8202 12.8911 22.2063C12.6047 22.3993 12.2573 22.4803 11.9151 22.4339C11.5728 22.3875 11.2596 22.2169 11.0349 21.9546Z" stroke="#F7F7F7" stroke-width="1.38856" stroke-linecap="round" stroke-linejoin="round"/>
<defs>
<linearGradient id="paint0_linear_4914_16725" x1="-9.75751" y1="21.32" x2="47.6606" y2="29.8251" gradientUnits="userSpaceOnUse">
<stop stop-color="#FF808F"/>
<stop offset="1" stop-color="#C50018"/>
</linearGradient>
</defs>
</svg>
