<svg width="106" height="107" viewBox="0 0 106 107" fill="none" xmlns="http://www.w3.org/2000/svg">
<g clip-path="url(#clip0_4912_16940)">
<path opacity="0.4" d="M49.6955 4.48179C51.5155 5.68858 54.4937 5.68858 56.311 4.48179L61.117 1.28854C62.936 0.0801011 65.3804 0.601613 66.5502 2.44605L69.6415 7.32143C70.8113 9.16484 73.5302 10.3754 75.6829 10.0112L81.373 9.04704C83.5263 8.68246 85.5498 10.1509 85.8668 12.3113L86.7107 18.0115C87.0307 20.1723 89.0203 22.3877 91.1362 22.9326L96.7198 24.3727C98.8361 24.9197 100.085 27.0884 99.4975 29.1916L97.951 34.7332C97.3639 36.8362 98.2822 39.669 99.9936 41.027L104.526 44.6225C106.237 45.9804 106.497 48.4666 105.104 50.1504L101.425 54.5923C100.033 56.2744 99.7217 59.2351 100.732 61.1707L103.405 66.2794C104.416 68.216 103.645 70.5947 101.689 71.5655L96.5196 74.1312C94.5633 75.1026 93.0762 77.6816 93.2125 79.861L93.5696 85.6153C93.7079 87.7937 92.0326 89.6544 89.8494 89.7476L84.0874 89.9915C81.9059 90.0849 79.4981 91.8359 78.7354 93.8839L76.7309 99.2841C75.9682 101.332 73.684 102.351 71.6535 101.548L66.2852 99.4257C64.2558 98.6216 61.3435 99.2402 59.815 100.801L55.7833 104.919C54.2542 106.479 51.7543 106.479 50.2241 104.921L46.1859 100.8C44.6564 99.241 41.7441 98.6226 39.7135 99.4261L34.3479 101.548C32.3175 102.352 30.0332 101.333 29.2721 99.2845L27.2629 93.8843C26.5012 91.837 24.0934 90.0853 21.9109 89.9919L16.1509 89.748C13.9677 89.6546 12.2945 87.7939 12.4307 85.6157L12.7912 79.8615C12.9268 77.6827 11.4376 75.1031 9.48179 74.1317L4.31429 71.5659C2.35867 70.5949 1.58541 68.2168 2.59717 66.2798L5.26953 61.1711C6.28067 59.2356 5.96971 56.275 4.57577 54.5943L0.895786 50.1467C-0.49712 48.4656 -0.236261 45.9793 1.47402 44.6214L6.00759 41.0259C7.71788 39.668 8.63751 36.8368 8.05079 34.7328L6.50054 29.1889C5.9134 27.0859 7.16304 24.9187 9.27724 24.375L14.865 22.9318C16.9792 22.3875 18.9715 20.1721 19.2905 18.0113L20.1338 12.3111C20.4534 10.1507 22.4759 8.68225 24.6286 9.04683L30.3193 10.011C32.4726 10.3751 35.1911 9.16463 36.3592 7.32123L39.4491 2.44585C40.6172 0.601406 43.0633 0.0798941 44.8837 1.28834L49.6955 4.48179Z" fill="#448666"/>
<path d="M87.2947 53.4202C87.2947 72.3609 71.939 87.7149 53 87.7149C34.062 87.7149 18.7063 72.3609 18.7063 53.4202C18.7063 34.4853 34.0614 19.1309 53 19.1309C71.939 19.1309 87.2947 34.4853 87.2947 53.4202Z" fill="#448666"/>
<path d="M47.2824 69.4404L33.5554 55.7128L38.1287 51.1374L47.2824 60.2894L67.8719 39.6973L72.4452 44.2743L47.2824 69.4404Z" fill="white"/>
</g>
<defs>
<clipPath id="clip0_4912_16940">
<rect width="106" height="106" fill="white" transform="translate(0 0.363281)"/>
</clipPath>
</defs>
</svg>
