<svg width="53" height="53" viewBox="0 0 53 53" fill="none" xmlns="http://www.w3.org/2000/svg">
<rect x="0.282227" y="0.712891" width="52.1735" height="52.1735" rx="10" fill="#448666"/>
<path d="M25.999 37C31.5219 37 35.999 32.5228 35.999 27C35.999 21.4772 31.5219 17 25.999 17C20.4762 17 15.999 21.4772 15.999 27C15.999 32.5228 20.4762 37 25.999 37Z" stroke="white" stroke-width="2" stroke-linecap="round" stroke-linejoin="round"/>
<path d="M23.0889 24.0006C23.324 23.3322 23.788 22.7687 24.3988 22.4097C25.0096 22.0507 25.7278 21.9195 26.426 22.0393C27.1243 22.1591 27.7577 22.5221 28.2139 23.0641C28.6702 23.6061 28.9199 24.2921 28.9189 25.0006C28.9189 27.0006 25.9189 28.0006 25.9189 28.0006" stroke="white" stroke-width="2" stroke-linecap="round" stroke-linejoin="round"/>
<path d="M25.999 32H26.009" stroke="white" stroke-width="2" stroke-linecap="round" stroke-linejoin="round"/>
</svg>
