<svg width="46" height="46" viewBox="0 0 46 46" fill="none" xmlns="http://www.w3.org/2000/svg">
<g filter="url(#filter0_d_4912_16968)">
<path d="M19.3473 10.1934H16.5702C16.0791 10.1934 15.6082 10.3884 15.261 10.7356C14.9138 11.0828 14.7188 11.5537 14.7188 12.0448V14.8219M31.3815 14.8219V12.0448C31.3815 11.5537 31.1864 11.0828 30.8392 10.7356C30.492 10.3884 30.0211 10.1934 29.5301 10.1934H26.753M26.753 26.8561H29.5301C30.0211 26.8561 30.492 26.661 30.8392 26.3138C31.1864 25.9666 31.3815 25.4957 31.3815 25.0047V22.2276M14.7188 22.2276V25.0047C14.7188 25.4957 14.9138 25.9666 15.261 26.3138C15.6082 26.661 16.0791 26.8561 16.5702 26.8561H19.3473" stroke="white" stroke-width="1.85142" stroke-linecap="round" stroke-linejoin="round"/>
<rect x="4.99801" y="0.474573" width="36.1026" height="36.1026" rx="10.6456" stroke="white" stroke-width="0.925708" shape-rendering="crispEdges"/>
</g>
<defs>
<filter id="filter0_d_4912_16968" x="0.535156" y="0.0117188" width="45.0283" height="45.0273" filterUnits="userSpaceOnUse" color-interpolation-filters="sRGB">
<feFlood flood-opacity="0" result="BackgroundImageFix"/>
<feColorMatrix in="SourceAlpha" type="matrix" values="0 0 0 0 0 0 0 0 0 0 0 0 0 0 0 0 0 0 127 0" result="hardAlpha"/>
<feOffset dy="4"/>
<feGaussianBlur stdDeviation="2"/>
<feComposite in2="hardAlpha" operator="out"/>
<feColorMatrix type="matrix" values="0 0 0 0 0 0 0 0 0 0 0 0 0 0 0 0 0 0 0.25 0"/>
<feBlend mode="normal" in2="BackgroundImageFix" result="effect1_dropShadow_4912_16968"/>
<feBlend mode="normal" in="SourceGraphic" in2="effect1_dropShadow_4912_16968" result="shape"/>
</filter>
</defs>
</svg>
