<svg width="38" height="38" viewBox="0 0 38 38" fill="none" xmlns="http://www.w3.org/2000/svg">
<path d="M15.527 11.0723H12.7499C12.2588 11.0723 11.7879 11.2673 11.4407 11.6145C11.0935 11.9617 10.8984 12.4327 10.8984 12.9237V15.7008M27.5612 15.7008V12.9237C27.5612 12.4327 27.3661 11.9617 27.0189 11.6145C26.6717 11.2673 26.2008 11.0723 25.7098 11.0723H22.9326M22.9326 27.735H25.7098C26.2008 27.735 26.6717 27.54 27.0189 27.1927C27.3661 26.8455 27.5612 26.3746 27.5612 25.8836V23.1065M10.8984 23.1065V25.8836C10.8984 26.3746 11.0935 26.8455 11.4407 27.1927C11.7879 27.54 12.2588 27.735 12.7499 27.735H15.527" stroke="#333330" stroke-width="1.85142" stroke-linecap="round" stroke-linejoin="round"/>
<rect x="1.17721" y="1.35348" width="36.1026" height="36.1026" rx="10.6456" stroke="#333330" stroke-width="0.925708"/>
</svg>
