<svg width="25" height="25" viewBox="0 0 25 25" fill="none" xmlns="http://www.w3.org/2000/svg">
<path d="M21.4287 12.3438C21.4322 13.6636 21.1238 14.9657 20.5287 16.1438C19.8231 17.5555 18.7385 18.743 17.3962 19.5731C16.0539 20.4032 14.507 20.8432 12.9287 20.8438C11.6088 20.8472 10.3068 20.5388 9.12871 19.9438L3.42871 21.8438L5.32871 16.1438C4.73364 14.9657 4.42527 13.6636 4.42871 12.3438C4.42932 10.7655 4.86932 9.21863 5.69943 7.87633C6.52954 6.53403 7.71697 5.44935 9.12871 4.74378C10.3068 4.14871 11.6088 3.84034 12.9287 3.84378H13.4287C15.5131 3.95877 17.4818 4.83854 18.9579 6.31464C20.4339 7.79074 21.3137 9.75943 21.4287 11.8438V12.3438Z" stroke="white" stroke-width="2" stroke-linecap="round" stroke-linejoin="round"/>
</svg>
