<svg width="46" height="46" viewBox="0 0 46 46" fill="none" xmlns="http://www.w3.org/2000/svg">
<g filter="url(#filter0_d_4912_16972)">
<g clip-path="url(#clip0_4912_16972)">
<g clip-path="url(#clip1_4912_16972)">
<path d="M22.5926 8.34375C21.856 8.34375 21.1496 8.63634 20.6288 9.15715C20.108 9.67796 19.8154 10.3843 19.8154 11.1209V18.5265C19.8154 19.2631 20.108 19.9694 20.6288 20.4903C21.1496 21.0111 21.856 21.3037 22.5926 21.3037C23.3291 21.3037 24.0355 21.0111 24.5563 20.4903C25.0771 19.9694 25.3697 19.2631 25.3697 18.5265V11.1209C25.3697 10.3843 25.0771 9.67796 24.5563 9.15715C24.0355 8.63634 23.3291 8.34375 22.5926 8.34375V8.34375Z" stroke="white" stroke-width="1.85142" stroke-linecap="round" stroke-linejoin="round"/>
<path d="M29.0742 16.6738V18.5252C29.0742 20.2438 28.3915 21.892 27.1762 23.1073C25.961 24.3225 24.3128 25.0052 22.5942 25.0052C20.8756 25.0052 19.2274 24.3225 18.0122 23.1073C16.797 21.892 16.1143 20.2438 16.1143 18.5252V16.6738" stroke="white" stroke-width="1.85142" stroke-linecap="round" stroke-linejoin="round"/>
<path d="M22.5918 25.0059V28.7087" stroke="white" stroke-width="1.85142" stroke-linecap="round" stroke-linejoin="round"/>
<path d="M18.8916 28.709H26.2973" stroke="white" stroke-width="1.85142" stroke-linecap="round" stroke-linejoin="round"/>
</g>
</g>
<rect x="4.54" y="0.474573" width="36.1026" height="36.1026" rx="10.6456" stroke="white" stroke-width="0.925708" shape-rendering="crispEdges"/>
</g>
<defs>
<filter id="filter0_d_4912_16972" x="0.0771484" y="0.0117188" width="45.0283" height="45.0273" filterUnits="userSpaceOnUse" color-interpolation-filters="sRGB">
<feFlood flood-opacity="0" result="BackgroundImageFix"/>
<feColorMatrix in="SourceAlpha" type="matrix" values="0 0 0 0 0 0 0 0 0 0 0 0 0 0 0 0 0 0 127 0" result="hardAlpha"/>
<feOffset dy="4"/>
<feGaussianBlur stdDeviation="2"/>
<feComposite in2="hardAlpha" operator="out"/>
<feColorMatrix type="matrix" values="0 0 0 0 0 0 0 0 0 0 0 0 0 0 0 0 0 0 0.25 0"/>
<feBlend mode="normal" in2="BackgroundImageFix" result="effect1_dropShadow_4912_16972"/>
<feBlend mode="normal" in="SourceGraphic" in2="effect1_dropShadow_4912_16972" result="shape"/>
</filter>
<clipPath id="clip0_4912_16972">
<rect width="22.217" height="22.217" fill="white" transform="translate(11.4844 7.41797)"/>
</clipPath>
<clipPath id="clip1_4912_16972">
<rect width="22.217" height="22.217" fill="white" transform="translate(11.4844 7.41797)"/>
</clipPath>
</defs>
</svg>
