<svg width="45" height="43" viewBox="0 0 45 43" fill="none" xmlns="http://www.w3.org/2000/svg">
<ellipse cx="22.8677" cy="21.5" rx="22.1324" ry="21.5" fill="#448666"/>
<path d="M30.3645 21.2476C30.3712 20.7303 30.091 20.2549 29.636 20.0053L19.0316 14.179C18.5567 13.9106 17.9968 13.9435 17.5492 14.2492C17.0934 14.5599 16.8602 15.2997 16.9876 15.834L17.9775 19.9816C18.0791 20.4069 18.4598 20.7063 18.8977 20.7045L24.799 20.6862C25.1012 20.6801 25.3463 20.9252 25.3402 21.2274C25.3393 21.5244 25.0978 21.7659 24.7956 21.772L18.8887 21.7857C18.4508 21.7865 18.0683 22.0873 17.964 22.5133L16.9391 26.6773C16.8146 27.1694 16.9565 27.6606 17.3037 28.0078C17.3445 28.0487 17.3905 28.0946 17.4365 28.1303C17.8861 28.4772 18.475 28.5215 18.9777 28.2536L29.618 22.4843C30.0746 22.2422 30.3578 21.765 30.3645 21.2476Z" fill="white"/>
</svg>
