<svg width="242" height="281" viewBox="0 0 242 281" fill="none" xmlns="http://www.w3.org/2000/svg">
<g opacity="0.1">
<path fill-rule="evenodd" clip-rule="evenodd" d="M171.771 66.4787C171.119 71.6293 171.237 82.2065 172.004 87.2809C174.348 102.785 180.03 117.212 192.878 140.28C208.142 167.688 211.992 178.469 211.325 191.952C210.932 199.892 209.795 204.403 206.508 211.06C201.697 220.804 194.406 227.847 183.565 233.218C175.84 237.046 168.822 238.802 159.398 239.267C139.988 240.221 119.014 231.666 105.415 217.247C98.5892 210.01 93.8374 201.777 90.9901 192.256L89.7026 187.952L90.0109 193.885C91.0359 213.652 103.558 231.798 124.36 243.662C135.776 250.173 147.597 253.216 161.468 253.216C170.604 253.216 177.246 252.239 184.262 249.863C200.304 244.43 213.893 232.848 221.151 218.422C226.078 208.63 228.477 195.466 227.229 185.068C225.343 169.345 220.149 158.121 202.986 132.68C186.617 108.417 181.578 99.2496 177.042 85.4847C174.982 79.2337 174.135 75.3459 172.353 63.9805C172.273 63.4653 172.011 64.5895 171.771 66.4787Z" fill="black"/>
<path fill-rule="evenodd" clip-rule="evenodd" d="M163.318 105.849C163.318 119.078 166.038 128.372 174.793 145.056C188.357 170.905 190.144 175.24 190.757 183.777C191.658 196.336 184.224 208.989 172.637 214.619C166.361 217.668 161.538 218.815 154.844 218.852C147.866 218.89 142.092 217.583 135.453 214.463C118.089 206.303 109.748 191.916 111.868 173.784C113.522 159.652 121.35 143.552 135.554 125.07C137.798 122.151 139.949 119.346 140.334 118.837C141.987 116.654 134.921 122.768 129.108 128.55C115.223 142.361 107.249 154.911 103.343 169.1C101.735 174.944 101.398 187.786 102.709 193.307C105.97 207.049 116.033 218.925 130.363 225.947C139.014 230.186 144.421 231.419 154.53 231.46C164.787 231.501 169.43 230.505 177.442 226.545C193.132 218.791 202.237 204.396 202.237 187.345C202.237 175.882 197.961 166.014 183.911 145.056C170.953 125.727 166.98 117.358 164.813 104.831C164.273 101.707 163.715 99.0351 163.575 98.8914C163.434 98.7484 163.318 101.879 163.318 105.849Z" fill="black"/>
<path fill-rule="evenodd" clip-rule="evenodd" d="M138.483 139.481C130.765 150.324 125.793 163.203 125.163 173.987C124.496 185.385 127.893 194.672 135.815 203.112C141.731 209.415 142.782 209.903 140.599 205.332C132.633 188.66 131.498 166.336 137.64 147.131C138.684 143.868 140.193 139.723 140.994 137.919C141.795 136.116 142.333 134.641 142.189 134.641C142.045 134.641 140.378 136.819 138.483 139.481Z" fill="black"/>
<rect x="0.5" y="0.5" width="316" height="316" rx="158" stroke="black"/>
</g>
</svg>
