<svg width="24" height="24" viewBox="0 0 24 24" fill="none" xmlns="http://www.w3.org/2000/svg">
<rect width="24" height="24" rx="12" fill="white"/>
<path d="M17.3649 18.4004V17.0671C17.3649 16.3598 17.084 15.6815 16.5839 15.1814C16.0838 14.6813 15.4055 14.4004 14.6982 14.4004H9.36491C8.65766 14.4004 7.97939 14.6813 7.47929 15.1814C6.97919 15.6815 6.69824 16.3598 6.69824 17.0671V18.4004" stroke="#333330" stroke-width="1.6" stroke-linecap="round" stroke-linejoin="round"/>
<path d="M12.0309 11.7337C13.5037 11.7337 14.6976 10.5398 14.6976 9.06706C14.6976 7.5943 13.5037 6.40039 12.0309 6.40039C10.5582 6.40039 9.36426 7.5943 9.36426 9.06706C9.36426 10.5398 10.5582 11.7337 12.0309 11.7337Z" stroke="#333330" stroke-width="1.6" stroke-linecap="round" stroke-linejoin="round"/>
</svg>
