<svg width="23" height="23" viewBox="0 0 23 23" fill="none" xmlns="http://www.w3.org/2000/svg">
<path d="M16.7441 2.7752C17.0068 2.51256 17.3186 2.30422 17.6617 2.16208C18.0049 2.01994 18.3727 1.94678 18.7441 1.94678C19.1156 1.94678 19.4834 2.01994 19.8265 2.16208C20.1697 2.30422 20.4815 2.51256 20.7441 2.7752C21.0068 3.03785 21.2151 3.34965 21.3573 3.69281C21.4994 4.03597 21.5726 4.40377 21.5726 4.7752C21.5726 5.14664 21.4994 5.51444 21.3573 5.8576C21.2151 6.20076 21.0068 6.51256 20.7441 6.7752L7.24414 20.2752L1.74414 21.7752L3.24414 16.2752L16.7441 2.7752Z" stroke="#8DD9C2" stroke-width="2" stroke-linecap="round" stroke-linejoin="round"/>
</svg>
