<svg width="56" height="53" viewBox="0 0 56 53" fill="none" xmlns="http://www.w3.org/2000/svg">
<path d="M0 53V49.7251H0.0108701C1.39669 49.7797 2.7835 49.6463 4.13425 49.3284C4.50487 49.2387 4.85142 49.0676 5.14928 48.8274C5.44715 48.5871 5.68903 48.2835 5.85775 47.9382C6.20812 46.9194 6.35868 45.8415 6.30101 44.7646V15.3798C6.40063 14.3396 6.21335 13.2919 5.75992 12.3527C5.45465 12.0607 5.08813 11.8422 4.68767 11.7132C4.28721 11.5843 3.86313 11.5484 3.44702 11.6081H0.196869V8.332L15.6565 5.85051H19.8898V14.2593C19.6908 13.5875 19.4262 12.9374 19.0999 12.3185C18.7904 11.6933 18.3916 11.1175 17.9163 10.6096C17.6114 10.294 17.2588 10.0295 16.8715 9.82602C16.4582 9.61167 16.0176 9.45561 15.5623 9.36219C15.415 9.33045 15.2628 9.3036 15.1106 9.28285C14.6925 9.22817 14.2712 9.20248 13.8497 9.20595C13.5972 9.20595 13.3303 9.21327 12.9837 9.2267L12.4704 9.25111C12.0126 9.2743 11.5392 9.29749 11.0754 9.29749C10.2477 9.32304 9.42203 9.202 8.63566 8.93986C8.6129 8.9311 8.58876 8.92655 8.5644 8.92643H8.53179C8.50174 8.93152 8.4733 8.94367 8.44876 8.9619C8.42421 8.98014 8.40425 9.00394 8.39048 9.0314C8.37512 9.0614 8.36711 9.09467 8.36711 9.12844C8.36711 9.16221 8.37512 9.19549 8.39048 9.22548C8.5958 9.64048 8.78301 10.0909 8.96297 10.5279C9.23406 11.2375 9.56332 11.923 9.94731 12.5773C10.7609 13.9643 12.0828 14.9713 13.6262 15.3798C14.0293 15.4729 14.4411 15.522 14.8545 15.5262C14.9427 15.5262 15.0333 15.5262 15.1311 15.5262C15.4307 15.5262 15.735 15.5153 16.0382 15.5043C16.3413 15.4933 16.6421 15.4835 16.9392 15.4835C17.4375 15.4729 17.9353 15.5217 18.4223 15.6288C18.4701 15.641 18.5192 15.6475 18.5685 15.6483C18.5874 15.6499 18.6064 15.6499 18.6252 15.6483C18.6805 15.6414 18.7313 15.6139 18.7676 15.5713C18.804 15.5286 18.8234 15.4739 18.8221 15.4176C18.8704 14.8317 17.7931 13.3108 16.1903 12.7677C15.7809 12.6297 15.3509 12.5089 14.9463 12.4015C14.9311 12.3983 14.9175 12.3896 14.9082 12.377C14.8989 12.3644 14.8944 12.3488 14.8956 12.3331C14.8961 12.3174 14.9019 12.3024 14.912 12.2904C14.9221 12.2784 14.9359 12.2703 14.9512 12.2672H14.9717C15.3775 12.3185 15.706 12.3698 16.0056 12.4271C16.6293 12.5092 17.2282 12.7261 17.7616 13.0631C18.2949 13.4001 18.7502 13.8493 19.0963 14.3801C19.5296 15.0721 19.8196 15.8457 19.949 16.6541L19.9828 17.6306C19.9828 17.6867 19.9731 17.7416 19.9659 17.7966C19.9602 17.8357 19.9697 17.8755 19.9925 17.9076L20.0082 18.341C20.5674 16.1241 21.3501 13.9711 22.344 11.9157C23.2587 9.90287 24.459 8.03564 25.907 6.37293C26.839 5.34099 27.9265 4.46436 29.1293 3.77548C30.4152 3.05119 31.7927 2.5071 33.2237 2.15818C33.6948 2.03612 34.1718 1.93847 34.6477 1.85669C36.8752 1.51689 39.1281 1.37801 41.3799 1.44169C46.0419 1.47831 50.7668 1.78468 55.1305 0.0501996C55.2331 0.00533485 55.346 -0.00987692 55.4566 0.0062579C55.5569 0.0207374 55.6523 0.059335 55.7347 0.118807C55.8172 0.178278 55.8843 0.256886 55.9305 0.348022C55.9766 0.439158 56.0005 0.540161 56 0.642539C55.9995 0.744917 55.9747 0.84568 55.9277 0.936358C54.3575 4.40654 53.2802 8.43819 51.3647 11.7277C48.9232 16.1957 44.848 19.5203 40.0115 20.9897C38.7446 21.3277 37.4458 21.529 36.1369 21.5902C34.9013 21.6659 33.6428 21.6659 32.3855 21.6659C29.8555 21.5467 27.321 21.7688 24.849 22.3262C24.6418 22.3921 24.4239 22.4161 24.2076 22.397C22.0336 22.1273 25.4323 15.3346 31.6077 12.9984C32.8686 12.5211 34.1839 12.1 35.5077 11.6838C35.5544 11.6692 35.5949 11.639 35.6225 11.5981C35.65 11.5572 35.6631 11.5081 35.6594 11.4587C35.6558 11.4094 35.6357 11.3628 35.6024 11.3265C35.5691 11.2902 35.5246 11.2664 35.4762 11.259C35.4547 11.2548 35.4326 11.2548 35.411 11.259C34.3095 11.4372 33.2225 11.635 32.15 11.8827C28.1208 12.8141 24.6823 14.7341 22.5747 18.4166C21.4197 20.4199 20.6287 22.6157 20.2388 24.9005L20.2811 26.0967V44.7621C20.2127 45.8482 20.3981 46.9354 20.8222 47.9357C21.053 48.2993 21.356 48.6106 21.7119 48.8499C22.0678 49.0892 22.4689 49.2513 22.8899 49.326C24.5271 49.6458 26.1946 49.7789 27.8612 49.7227V52.9976H0V53Z" fill="#8DD9C2"/>
</svg>
