<svg width="56" height="56" viewBox="0 0 56 56" fill="none" xmlns="http://www.w3.org/2000/svg">
<rect x="1" y="1" width="54" height="54" rx="9" fill="#2C99CB"/>
<path d="M22.1333 31.7333L24.8 38.6667L26.4 37.0667L28.5333 39.2L30.1333 37.6L28 35.4667L29.6 33.8667L22.1333 31.7333Z" stroke="white" stroke-width="1.2" stroke-linecap="round" stroke-linejoin="round"/>
<path d="M14.1333 21.0667V18.2667C14.1333 17.1621 15.0288 16.2667 16.1333 16.2667H39.3333C40.4379 16.2667 41.3333 17.1621 41.3333 18.2667V21.0667M14.1333 21.0667V34.5333C14.1333 35.6379 15.0288 36.5333 16.1333 36.5333H21.0667M14.1333 21.0667H41.3333M41.3333 21.0667V34.5333C41.3333 35.6379 40.4379 36.5333 39.3333 36.5333H32.2667" stroke="white" stroke-width="1.2" stroke-linecap="round" stroke-linejoin="round"/>
<path d="M23.8144 25.3333C23.9168 25.3333 24.0107 25.3739 24.096 25.4549C24.1856 25.5317 24.2304 25.6299 24.2304 25.7493C24.2304 25.7877 24.224 25.8304 24.2112 25.8773L22.9504 29.5893C22.9248 29.6619 22.88 29.7195 22.816 29.7621C22.752 29.8048 22.6816 29.8283 22.6048 29.8325C22.528 29.8325 22.4555 29.8112 22.3872 29.7685C22.3189 29.7259 22.2656 29.664 22.2272 29.5829L21.3184 27.5157L20.4032 29.5829C20.3648 29.664 20.3115 29.7259 20.2432 29.7685C20.1749 29.8112 20.1024 29.8325 20.0256 29.8325C19.9488 29.8283 19.8784 29.8048 19.8144 29.7621C19.7504 29.7195 19.7056 29.6619 19.68 29.5893L18.4192 25.8773C18.4064 25.8304 18.4 25.7877 18.4 25.7493C18.4 25.6299 18.4427 25.5317 18.528 25.4549C18.6176 25.3739 18.7157 25.3333 18.8224 25.3333C18.9077 25.3333 18.9845 25.3568 19.0528 25.4037C19.1211 25.4464 19.168 25.5061 19.1936 25.5829L20.1472 28.4757L20.9792 26.4789C21.0133 26.4021 21.0624 26.3424 21.1264 26.2997C21.1904 26.2528 21.2629 26.2315 21.344 26.2357C21.4251 26.2315 21.4955 26.2528 21.5552 26.2997C21.6192 26.3424 21.6683 26.4021 21.7024 26.4789L22.4896 28.4565L23.4368 25.5829C23.4624 25.5061 23.5093 25.4464 23.5776 25.4037C23.6501 25.3568 23.7291 25.3333 23.8144 25.3333Z" fill="white"/>
<path d="M30.4919 25.3333C30.5943 25.3333 30.6882 25.3739 30.7735 25.4549C30.8631 25.5317 30.9079 25.6299 30.9079 25.7493C30.9079 25.7877 30.9015 25.8304 30.8887 25.8773L29.6279 29.5893C29.6023 29.6619 29.5575 29.7195 29.4935 29.7621C29.4295 29.8048 29.3591 29.8283 29.2823 29.8325C29.2055 29.8325 29.133 29.8112 29.0647 29.7685C28.9964 29.7259 28.9431 29.664 28.9047 29.5829L27.9959 27.5157L27.0807 29.5829C27.0423 29.664 26.989 29.7259 26.9207 29.7685C26.8524 29.8112 26.7799 29.8325 26.7031 29.8325C26.6263 29.8283 26.5559 29.8048 26.4919 29.7621C26.4279 29.7195 26.3831 29.6619 26.3575 29.5893L25.0967 25.8773C25.0839 25.8304 25.0775 25.7877 25.0775 25.7493C25.0775 25.6299 25.1202 25.5317 25.2055 25.4549C25.2951 25.3739 25.3932 25.3333 25.4999 25.3333C25.5852 25.3333 25.662 25.3568 25.7303 25.4037C25.7986 25.4464 25.8455 25.5061 25.8711 25.5829L26.8247 28.4757L27.6567 26.4789C27.6908 26.4021 27.7399 26.3424 27.8039 26.2997C27.8679 26.2528 27.9404 26.2315 28.0215 26.2357C28.1026 26.2315 28.173 26.2528 28.2327 26.2997C28.2967 26.3424 28.3458 26.4021 28.3799 26.4789L29.1671 28.4565L30.1143 25.5829C30.1399 25.5061 30.1868 25.4464 30.2551 25.4037C30.3276 25.3568 30.4066 25.3333 30.4919 25.3333Z" fill="white"/>
<path d="M37.1694 25.3333C37.2718 25.3333 37.3657 25.3739 37.451 25.4549C37.5406 25.5317 37.5854 25.6299 37.5854 25.7493C37.5854 25.7877 37.579 25.8304 37.5662 25.8773L36.3054 29.5893C36.2798 29.6619 36.235 29.7195 36.171 29.7621C36.107 29.8048 36.0366 29.8283 35.9598 29.8325C35.883 29.8325 35.8105 29.8112 35.7422 29.7685C35.6739 29.7259 35.6206 29.664 35.5822 29.5829L34.6734 27.5157L33.7582 29.5829C33.7198 29.664 33.6665 29.7259 33.5982 29.7685C33.5299 29.8112 33.4574 29.8325 33.3806 29.8325C33.3038 29.8283 33.2334 29.8048 33.1694 29.7621C33.1054 29.7195 33.0606 29.6619 33.035 29.5893L31.7742 25.8773C31.7614 25.8304 31.755 25.7877 31.755 25.7493C31.755 25.6299 31.7977 25.5317 31.883 25.4549C31.9726 25.3739 32.0707 25.3333 32.1774 25.3333C32.2627 25.3333 32.3395 25.3568 32.4078 25.4037C32.4761 25.4464 32.523 25.5061 32.5486 25.5829L33.5022 28.4757L34.3342 26.4789C34.3683 26.4021 34.4174 26.3424 34.4814 26.2997C34.5454 26.2528 34.6179 26.2315 34.699 26.2357C34.7801 26.2315 34.8505 26.2528 34.9102 26.2997C34.9742 26.3424 35.0233 26.4021 35.0574 26.4789L35.8446 28.4565L36.7918 25.5829C36.8174 25.5061 36.8643 25.4464 36.9326 25.4037C37.0051 25.3568 37.0841 25.3333 37.1694 25.3333Z" fill="white"/>
<ellipse cx="17.8667" cy="18.4" rx="0.533333" ry="0.533334" fill="white"/>
<circle cx="20" cy="18.4" r="0.533334" fill="white"/>
<ellipse cx="22.1333" cy="18.4" rx="0.533333" ry="0.533334" fill="white"/>
<rect x="1" y="1" width="54" height="54" rx="9" stroke="#2C99CB" stroke-width="2"/>
</svg>
