<svg width="56" height="56" viewBox="0 0 56 56" fill="none" xmlns="http://www.w3.org/2000/svg">
<rect x="1" y="1" width="54" height="54" rx="9" fill="#60549C"/>
<path d="M24 41.3333H32C38.6667 41.3333 41.3333 38.6667 41.3333 32V24C41.3333 17.3333 38.6667 14.6667 32 14.6667H24C17.3333 14.6667 14.6667 17.3333 14.6667 24V32C14.6667 38.6667 17.3333 41.3333 24 41.3333Z" stroke="white" stroke-width="1.5" stroke-linecap="round" stroke-linejoin="round"/>
<path d="M24.1333 28V26.0267C24.1333 23.48 25.9333 22.4533 28.1333 23.72L29.84 24.7067L31.5467 25.6933C33.7467 26.96 33.7467 29.04 31.5467 30.3067L29.84 31.2933L28.1333 32.28C25.9333 33.5467 24.1333 32.5067 24.1333 29.9733V28Z" stroke="white" stroke-width="1.5" stroke-miterlimit="10" stroke-linecap="round" stroke-linejoin="round"/>
<rect x="1" y="1" width="54" height="54" rx="9" stroke="#60549C" stroke-width="2"/>
</svg>
