<svg width="44" height="45" viewBox="0 0 44 45" fill="none" xmlns="http://www.w3.org/2000/svg">
<rect y="0.508789" width="44" height="44" rx="22" fill="#F1FAF9"/>
<path d="M28.7172 28.9402C28.5046 28.8913 28.3038 28.8451 28.116 28.7987C28.0669 28.7866 28.0451 28.7635 28.0401 28.7554V26.9463C28.2797 26.7613 28.5134 26.5568 28.7352 26.3354C29.4755 25.5968 30.0192 24.7425 30.3406 23.8327C31.5305 23.058 32.1097 21.7944 32.1097 19.9737C32.1097 18.1177 31.6493 16.4301 30.7781 15.0935C30.681 14.9444 30.4813 14.9024 30.3322 14.9995C30.1831 15.0967 30.141 15.2963 30.2382 15.4454C31.0408 16.6771 31.4651 18.243 31.4651 19.9737C31.4651 21.1798 31.1846 22.0976 30.6123 22.7531C30.6566 22.4642 30.6795 22.1724 30.6795 21.8791C30.6795 19.3132 30.1654 17.5164 29.1077 16.3862C28.2466 15.4662 27.048 15.019 25.4429 15.019C25.4406 15.019 25.438 15.019 25.4356 15.019C21.9425 15.022 20.1714 17.33 20.1714 21.8791C20.1714 22.1724 20.1943 22.4642 20.2386 22.7531C19.6665 22.0974 19.3861 21.1797 19.3861 19.9737C19.3861 15.0885 22.4193 12.9019 25.4254 12.9019C26.9798 12.9019 28.2939 13.3924 29.331 14.36C29.4612 14.4814 29.6651 14.4743 29.7865 14.3441C29.9079 14.214 29.9008 14.0101 29.7707 13.8887C28.6266 12.8214 27.124 12.2573 25.4254 12.2573C23.3632 12.2573 21.6348 13.0674 20.4268 14.6001C19.3401 15.979 18.7415 17.8874 18.7415 19.9737C18.7415 21.7944 19.3206 23.0581 20.5105 23.833C20.676 24.3015 20.9006 24.7552 21.1805 25.186L19.6883 26.0475C19.4206 25.8005 19.039 25.6962 18.6737 25.7909L17.5209 26.0897L17.4706 26.0025C17.2815 25.6751 16.8613 25.5625 16.5338 25.7516L15.6164 26.2812C15.2321 26.5031 14.9062 26.8202 14.674 27.1983C14.4509 27.5616 14.1253 27.8413 13.7325 28.007L13.3302 28.1767C13.1662 28.2459 13.0893 28.4349 13.1586 28.5989C13.2277 28.7629 13.4169 28.8397 13.5807 28.7706L13.983 28.6009C14.5004 28.3826 14.9293 28.0143 15.2232 27.5357C15.3996 27.2486 15.6469 27.0079 15.9387 26.8395L16.8561 26.3098C16.8758 26.2984 16.901 26.3052 16.9124 26.3249L18.3825 28.8711C18.3939 28.8907 18.3871 28.916 18.3674 28.9274L17.45 29.4571C17.1583 29.6255 16.826 29.7194 16.4892 29.7285C15.9278 29.7438 15.3944 29.931 14.9467 30.27L13.0608 31.6974C12.9358 31.7921 12.7561 31.7559 12.6776 31.6199L11.6794 29.8911C11.6011 29.7554 11.6592 29.5814 11.804 29.5203L12.1956 29.3551C12.3596 29.2859 12.4364 29.0969 12.3672 28.9329C12.298 28.7688 12.1089 28.6921 11.945 28.7612L11.5534 28.9264C11.3143 29.0274 11.1297 29.2264 11.0471 29.4725C10.9644 29.7185 10.9915 29.9886 11.1213 30.2133L12.1194 31.9421C12.3907 32.4119 13.0145 32.5409 13.4499 32.2113L15.3357 30.7839C15.6756 30.5265 16.0806 30.3844 16.5068 30.3728C16.9503 30.3607 17.3879 30.2371 17.7722 30.0152L18.6896 29.4856C19.017 29.2965 19.1296 28.8763 18.9406 28.5488L18.8903 28.4617L19.7255 27.6127C19.9902 27.3437 20.0907 26.9611 20.0106 26.6058L21.5589 25.7119C21.9216 26.1691 22.3449 26.5867 22.8111 26.9466V28.7554C22.8061 28.7635 22.7841 28.7866 22.7353 28.7987C22.5469 28.8452 22.346 28.8913 22.1334 28.9403C20.3262 29.3561 17.8512 29.9256 17.8512 31.9364V32.1482C17.8512 32.4859 18.1556 32.7605 18.5297 32.7605H32.3215C32.6956 32.7605 33 32.4858 33 32.1482V31.9364C33 29.9255 30.5246 29.356 28.7172 28.9402ZM19.266 27.1606L18.5559 27.8824L17.8553 26.6689L18.8354 26.4148C19.2721 26.3018 19.5829 26.8386 19.266 27.1606ZM20.8575 20.7559C22.2241 20.3631 23.7977 20.1556 25.4255 20.1556C27.055 20.1556 28.6294 20.3635 29.9958 20.757C30.0128 20.9908 30.0244 21.2326 30.0302 21.4823L29.1461 22.0717C28.9493 22.2027 28.7206 22.2719 28.4848 22.2719H27.1458C26.8785 22.2719 26.6336 22.1147 26.5222 21.8718L26.402 21.609C26.0205 20.7773 24.8323 20.7737 24.4487 21.6094L24.329 21.8714C24.2173 22.1147 23.9724 22.2718 23.7051 22.2718H22.3662C22.1303 22.2718 21.9017 22.2027 21.7051 22.0719L20.821 21.4825C20.8271 21.2323 20.8394 20.9903 20.8575 20.7559ZM22.2707 16.831C23.0228 16.0466 24.0582 15.6647 25.4362 15.6635H25.4428C26.8597 15.6635 27.9046 16.044 28.6371 16.8266C29.3075 17.543 29.739 18.6299 29.9267 20.069C28.5621 19.7036 27.0175 19.5111 25.4255 19.5111C23.8366 19.5111 22.2942 19.703 20.9304 20.0672C21.1267 18.6412 21.5751 17.5566 22.2707 16.831ZM22.1249 25.385L22.3265 25.2686C22.4806 25.1796 22.5334 24.9825 22.4444 24.8284C22.3554 24.6742 22.1582 24.6215 22.0042 24.7104L21.7412 24.8623C21.3052 24.2001 20.9096 23.3239 20.8306 22.2635L21.3479 22.6084C21.6508 22.8098 22.0029 22.9164 22.3662 22.9164H23.7051C24.2235 22.9164 24.6863 22.606 24.915 22.1398C25.0134 21.9391 25.0325 21.7986 25.193 21.6955C25.4167 21.5525 25.709 21.6439 25.816 21.8774L25.9362 22.1403C26.1526 22.6118 26.6275 22.9165 27.1459 22.9165H28.4849C28.8481 22.9165 29.2002 22.8099 29.5034 22.6082L30.0204 22.2635C29.8897 24.018 28.8916 25.2689 28.2799 25.8792C27.2327 26.9243 26.0661 27.4002 25.4255 27.4002C24.7849 27.4002 23.6183 26.9243 22.571 25.8792C22.4366 25.745 22.2834 25.5795 22.1249 25.385ZM32.3554 32.1107C32.3472 32.1135 32.3359 32.116 32.3215 32.116H18.5297C18.5153 32.116 18.504 32.1135 18.4957 32.1107V31.9363C18.4957 30.4386 20.5929 29.9561 22.2779 29.5684C22.4931 29.5189 22.6963 29.4721 22.8899 29.4243C23.223 29.3418 23.4556 29.0685 23.4556 28.7596V27.3883C24.1461 27.8041 24.8448 28.0447 25.4254 28.0447C26.0062 28.0447 26.7049 27.804 27.3955 27.3882V28.7596C27.3955 29.0683 27.6279 29.3417 27.9611 29.4244C28.1543 29.4721 28.3575 29.5188 28.5726 29.5683C30.258 29.956 32.3554 30.4385 32.3554 31.9363V32.1107H32.3554Z" fill="black"/>
<path d="M26.6938 24.934C26.8545 24.8577 26.923 24.6655 26.8467 24.5047C26.7703 24.3439 26.578 24.2755 26.4173 24.3518C25.7498 24.6688 25.1007 24.6688 24.4332 24.3518C24.2724 24.2754 24.0803 24.3439 24.0039 24.5047C23.9276 24.6655 23.996 24.8577 24.1568 24.934C24.5776 25.1339 25.0015 25.2338 25.4253 25.2338C25.8492 25.2338 26.2729 25.1339 26.6938 24.934Z" fill="black"/>
<path d="M12.9477 23.5824C13.6309 23.8084 13.8938 24.0713 14.1199 24.7545C14.1963 24.9855 14.4025 25.1348 14.6451 25.1348C14.8877 25.1348 15.0939 24.9855 15.1703 24.7545C15.3964 24.0713 15.6593 23.8084 16.3425 23.5824C16.5735 23.5059 16.7228 23.2998 16.7228 23.0572C16.7228 22.8146 16.5735 22.6084 16.3425 22.532C15.6593 22.3059 15.3964 22.043 15.1703 21.3598C15.0939 21.1288 14.8877 20.9795 14.6451 20.9795C14.4025 20.9795 14.1964 21.1288 14.1199 21.3598C13.8938 22.043 13.6309 22.3059 12.9477 22.5319C12.7167 22.6084 12.5674 22.8145 12.5674 23.0571C12.5674 23.2997 12.7167 23.5059 12.9477 23.5824ZM14.6451 21.8008C14.9016 22.4419 15.2604 22.8006 15.9014 23.0572C15.2604 23.3137 14.9016 23.6724 14.6451 24.3135C14.3886 23.6724 14.0298 23.3137 13.3888 23.0572C14.0298 22.8006 14.3886 22.4419 14.6451 21.8008Z" fill="black"/>
<path d="M14.6563 18.1759C15.3284 18.375 15.5286 18.5753 15.7278 19.2473C15.7868 19.4465 15.9658 19.5804 16.1732 19.5804C16.3805 19.5804 16.5596 19.4466 16.6185 19.2473C16.8176 18.5753 17.0179 18.3751 17.69 18.1759C17.8892 18.1169 18.0231 17.9379 18.023 17.7305C18.023 17.5231 17.8892 17.3441 17.69 17.2851C17.0179 17.086 16.8176 16.8857 16.6185 16.2137C16.5595 16.0145 16.3805 15.8806 16.1732 15.8806C15.9658 15.8806 15.7868 16.0145 15.7278 16.2137C15.5286 16.8857 15.3284 17.086 14.6563 17.2851C14.4571 17.3441 14.3232 17.5231 14.3232 17.7305C14.3232 17.9379 14.457 18.1169 14.6563 18.1759ZM16.1731 16.8669C16.3645 17.2806 16.6231 17.5392 17.0368 17.7305C16.6231 17.9218 16.3645 18.1804 16.1731 18.5941C15.9818 18.1804 15.7233 17.9218 15.3095 17.7305C15.7233 17.5392 15.9818 17.2806 16.1731 16.8669Z" fill="black"/>
</svg>
