<svg width="44" height="45" viewBox="0 0 44 45" fill="none" xmlns="http://www.w3.org/2000/svg">
<rect y="0.508789" width="44" height="44" rx="22" fill="#F1FAF9"/>
<path d="M28.4177 22.7517L27.9316 22.2657C27.9255 22.2715 27.3349 22.8525 26.4559 22.8525C25.5876 22.8525 24.9854 22.2705 24.9792 22.2646L24.4941 22.7517C24.5265 22.7841 25.2958 23.54 26.4559 23.54C27.6161 23.54 28.3854 22.7841 28.4177 22.7517Z" fill="black"/>
<path d="M22.4316 22.2659C22.4255 22.2717 21.8349 22.8527 20.9559 22.8527C20.0876 22.8527 19.4854 22.2707 19.4802 22.2659L18.9941 22.7519C19.0265 22.7842 19.7958 23.5402 20.9559 23.5402C22.1161 23.5402 22.8854 22.7842 22.9177 22.7519L22.4316 22.2659Z" fill="black"/>
<path d="M25.5457 28.0002L25.3281 27.3481C24.0645 27.7696 23.7156 27.7696 22.452 27.3481L22.2344 28.0002C22.9384 28.235 23.4145 28.3522 23.8899 28.3522C24.3653 28.3522 24.8421 28.235 25.5457 28.0002Z" fill="black"/>
<path d="M12.0312 32.8214H15.125C15.3151 32.8214 15.4688 32.6674 15.4688 32.4777V30.4152C15.4688 29.0883 16.5485 28.0089 17.875 28.0089H18.9062C19.0142 28.0089 19.1166 27.9876 19.2146 27.9567C19.437 28.2495 19.6742 28.5307 19.9251 28.7982V32.8214H20.6126V29.4657C20.6343 29.4846 20.6546 29.5053 20.6762 29.5242C21.0674 29.8645 21.4418 30.1158 21.8206 30.2924C22.4895 30.6039 23.1942 30.7565 23.8903 30.7565C24.9978 30.7565 26.0844 30.3698 26.9706 29.6194C27.0304 29.5688 27.0851 29.5107 27.1439 29.4585V32.8214H27.8314V28.7933C28.0057 28.6088 28.1793 28.4231 28.3398 28.2265L27.8073 27.791C27.4202 28.2643 26.9892 28.7029 26.5265 29.0945C25.2897 30.1402 23.5977 30.3608 22.11 29.6689C21.7903 29.5197 21.4689 29.3028 21.1272 29.0054C20.6274 28.5699 20.1706 28.078 19.7653 27.5452C19.8739 27.3826 19.9375 27.1877 19.9375 26.9777V24.5714C19.9375 24.0028 19.4748 23.5402 18.9062 23.5402H17.875H17.8654C17.7884 23.3157 17.7282 23.1156 17.6859 22.875C17.6983 21.258 18.8396 19.2491 20.1657 18.5984C21.1444 18.1182 22.231 17.7545 23.2812 17.4032C23.3238 17.3888 23.3661 17.3747 23.4087 17.3606C24.6874 17.6493 26.2804 18.1082 27.4323 19.0838C27.9874 19.5544 28.4814 20.1803 28.9864 21.0545C29.1359 21.313 29.2868 21.5925 29.4769 21.961C29.5429 22.0895 29.6436 22.2703 29.7368 22.434C29.8732 22.6749 29.9836 22.9321 30.0633 23.1974L30.0926 23.2947C30.1376 23.4446 30.2847 23.5508 30.4336 23.5395C30.5896 23.534 30.7227 23.424 30.757 23.2717C30.7625 23.2473 30.8932 22.6677 30.9378 22.3845C31.0454 21.7025 31.1283 20.9603 31.1987 20.0494C31.2493 19.3969 31.2974 18.7026 31.2819 18.0195C31.2603 17.0673 31.0475 15.6906 30.1606 14.5363C29.5113 13.6914 28.5495 13.0407 27.38 12.655C26.4547 12.3497 25.4169 12.205 24.1144 12.1995C22.7855 12.1919 21.6954 12.336 20.7281 12.6474C19.5181 13.0369 18.5161 13.6989 17.8303 14.5621C17.1119 15.4668 16.6884 16.6559 16.6055 18.0013C16.5313 19.2093 16.7258 22.0933 17.0187 23.2789C17.0338 23.3401 17.0675 23.3903 17.1088 23.4326C17.1191 23.4687 17.1304 23.5044 17.1414 23.5402H14.7812C13.0752 23.5402 11.6875 24.9282 11.6875 26.6339V32.4777C11.6875 32.6674 11.8412 32.8214 12.0312 32.8214ZM18.2188 24.2277H18.9062C19.096 24.2277 19.25 24.382 19.25 24.5714V26.9777C19.25 27.1671 19.096 27.3214 18.9062 27.3214H18.2188V24.2277ZM29.6158 14.9557C30.3896 15.9625 30.5752 17.1863 30.5948 18.0357C30.6096 18.6874 30.5649 19.3354 30.5137 19.9968C30.4532 20.7788 30.3834 21.4319 30.2968 22.0283C30.2201 21.8926 30.1421 21.7513 30.0881 21.6468C29.8932 21.268 29.7371 20.9796 29.5821 20.7111C29.0359 19.7665 28.4945 19.0828 27.8771 18.5596C26.9194 17.7487 25.7153 17.2698 24.5988 16.9522C24.85 16.8618 25.0996 16.7686 25.345 16.6717C26.5612 16.1898 28.2542 15.4644 29.5061 14.8192C29.5432 14.8632 29.58 14.9089 29.6158 14.9557ZM17.2927 18.0439C17.3442 17.2042 17.5728 15.9928 18.3697 14.9901C18.9705 14.2335 19.8595 13.6501 20.9399 13.3023C21.8182 13.0197 22.8044 12.8873 24.0381 12.8873H24.1127C25.3406 12.8925 26.311 13.0262 27.1655 13.3084C27.6977 13.4838 28.3855 13.7893 28.996 14.3074C27.7795 14.9196 26.1793 15.6016 25.0924 16.0323C24.4358 16.2925 23.7387 16.5259 23.0642 16.7514C21.9921 17.11 20.8835 17.4809 19.8636 17.9814C18.8193 18.4939 17.8925 19.6795 17.3917 20.9706C17.2961 19.8686 17.2525 18.6916 17.2927 18.0439ZM14.7812 24.2277H17.5312V27.3417C15.9868 27.5136 14.7812 28.8257 14.7812 30.4152V32.1339H14.0938V28.8349C14.0938 28.2048 13.8115 27.6177 13.3196 27.2245L12.3829 26.4751C12.4654 25.2225 13.5083 24.2277 14.7812 24.2277ZM12.375 27.3493L12.8903 27.7614C13.2182 28.0237 13.4062 28.4152 13.4062 28.8349V32.1339H12.375V27.3493Z" fill="black"/>
<path d="M15.6406 27.1494C16.1147 27.1494 16.5 26.7637 16.5 26.29V25.7744C16.5 25.3007 16.1147 24.915 15.6406 24.915C15.1666 24.915 14.7812 25.3007 14.7812 25.7744V26.29C14.7812 26.7637 15.1666 27.1494 15.6406 27.1494ZM15.4688 25.7744C15.4688 25.6795 15.5461 25.6025 15.6406 25.6025C15.7352 25.6025 15.8125 25.6795 15.8125 25.7744V26.29C15.8125 26.3849 15.7352 26.4619 15.6406 26.4619C15.5461 26.4619 15.4688 26.3849 15.4688 26.29V25.7744Z" fill="black"/>
<path d="M26.8961 26.6234C26.9514 26.6096 28.0985 26.3027 29.1122 24.5293L29.2295 24.9985L29.896 24.8318L29.5522 23.4568C29.5271 23.3557 29.4574 23.2715 29.3625 23.2278C29.2676 23.1842 29.1583 23.1859 29.0651 23.2326L27.6901 23.9201L27.9978 24.5351L28.4375 24.3155C27.6035 25.6963 26.7362 25.9548 26.7256 25.9575L26.8129 26.29L26.8961 26.6234Z" fill="black"/>
<path d="M29.3023 27.9985C29.3577 27.9848 30.5048 27.6778 31.5185 25.9044L31.6357 26.3736L32.3022 26.2069L31.9585 24.8319C31.9334 24.7308 31.8636 24.6466 31.7687 24.6029C31.6739 24.5593 31.5646 24.5614 31.4714 24.6078L30.0964 25.2953L30.4041 25.9102L30.8437 25.6906C30.0098 27.0714 29.1425 27.3299 29.1318 27.3327L29.2191 27.6651L29.3023 27.9985Z" fill="black"/>
</svg>
