<svg width="28" height="28" viewBox="0 0 28 28" fill="none" xmlns="http://www.w3.org/2000/svg">
<circle cx="14" cy="14" r="14" fill="#FED15E"/>
<g clip-path="url(#clip0_5196_19456)">
<path d="M18.7283 10.2502H16.9392L16.7308 9.62516C16.6304 9.32169 16.4368 9.05764 16.1776 8.87061C15.9184 8.68357 15.6067 8.5831 15.2871 8.5835H12.7129C12.3933 8.58325 12.0818 8.68379 11.8227 8.87081C11.5636 9.05782 11.37 9.32179 11.2696 9.62516L11.0608 10.2502H9.27167C8.86823 10.2506 8.48145 10.4111 8.19617 10.6963C7.9109 10.9816 7.75044 11.3684 7.75 11.7718V17.8968C7.75088 18.3 7.91154 18.6863 8.19676 18.9712C8.48199 19.2562 8.86852 19.4164 9.27167 19.4168H18.73C19.1331 19.4159 19.5195 19.2553 19.8044 18.9701C20.0893 18.6848 20.2496 18.2983 20.25 17.8952V11.7702C20.2491 11.367 20.0885 10.9807 19.8032 10.6957C19.518 10.4108 19.1315 10.2506 18.7283 10.2502ZM19.4167 17.8952C19.4164 18.0777 19.3439 18.2526 19.2148 18.3816C19.0858 18.5107 18.9108 18.5833 18.7283 18.5835H9.27167C9.08918 18.5833 8.91422 18.5107 8.78519 18.3816C8.65615 18.2526 8.58355 18.0777 8.58333 17.8952V11.7702C8.58399 11.588 8.65678 11.4134 8.78577 11.2848C8.91476 11.1561 9.08947 11.0837 9.27167 11.0835H11.3613C11.4487 11.0834 11.5338 11.0559 11.6047 11.0047C11.6756 10.9536 11.7286 10.8814 11.7562 10.7985L12.06 9.88725C12.1056 9.75018 12.1932 9.63097 12.3104 9.54653C12.4276 9.46209 12.5685 9.41671 12.7129 9.41683H15.2871C15.4316 9.41667 15.5725 9.46209 15.6897 9.54662C15.8069 9.63115 15.8945 9.75049 15.94 9.88766L16.2438 10.7985C16.2714 10.8814 16.3244 10.9536 16.3953 11.0047C16.4662 11.0559 16.5513 11.0834 16.6388 11.0835H18.7283C18.9108 11.0837 19.0858 11.1563 19.2148 11.2853C19.3439 11.4144 19.4164 11.5893 19.4167 11.7718V17.8952Z" fill="white"/>
<path d="M14 11.5C13.3819 11.5 12.7777 11.6833 12.2638 12.0267C11.7499 12.37 11.3494 12.8581 11.1129 13.4291C10.8764 14.0001 10.8145 14.6285 10.935 15.2347C11.0556 15.8408 11.3533 16.3977 11.7903 16.8347C12.2273 17.2717 12.7842 17.5694 13.3903 17.69C13.9965 17.8105 14.6249 17.7486 15.1959 17.5121C15.7669 17.2756 16.255 16.8751 16.5983 16.3612C16.9417 15.8473 17.125 15.2431 17.125 14.625C17.1241 13.7965 16.7946 13.0021 16.2087 12.4163C15.6229 11.8304 14.8285 11.5009 14 11.5ZM14 16.9167C13.5467 16.9167 13.1037 16.7823 12.7268 16.5305C12.35 16.2786 12.0562 15.9207 11.8828 15.502C11.7093 15.0832 11.6639 14.6225 11.7524 14.1779C11.8408 13.7334 12.0591 13.325 12.3795 13.0045C12.7 12.6841 13.1084 12.4658 13.5529 12.3774C13.9975 12.2889 14.4582 12.3343 14.877 12.5078C15.2957 12.6812 15.6536 12.975 15.9054 13.3518C16.1573 13.7287 16.2917 14.1718 16.2917 14.625C16.291 15.2326 16.0493 15.8151 15.6197 16.2447C15.1901 16.6744 14.6076 16.916 14 16.9167Z" fill="white"/>
<path d="M18.1667 12.7501C18.3968 12.7501 18.5833 12.5635 18.5833 12.3334C18.5833 12.1033 18.3968 11.9167 18.1667 11.9167C17.9365 11.9167 17.75 12.1033 17.75 12.3334C17.75 12.5635 17.9365 12.7501 18.1667 12.7501Z" fill="white"/>
</g>
<defs>
<clipPath id="clip0_5196_19456">
<rect width="13.3333" height="13.3333" fill="white" transform="translate(7.33203 7.3335)"/>
</clipPath>
</defs>
</svg>
