<svg width="19" height="19" viewBox="0 0 19 19" fill="none" xmlns="http://www.w3.org/2000/svg">
<path d="M14.166 2.00872C14.3849 1.78985 14.6447 1.61623 14.9307 1.49778C15.2167 1.37933 15.5232 1.31836 15.8327 1.31836C16.1422 1.31836 16.4487 1.37933 16.7347 1.49778C17.0206 1.61623 17.2805 1.78985 17.4993 2.00872C17.7182 2.22758 17.8918 2.48742 18.0103 2.77339C18.1287 3.05936 18.1897 3.36585 18.1897 3.67538C18.1897 3.98491 18.1287 4.29141 18.0103 4.57738C17.8918 4.86334 17.7182 5.12318 17.4993 5.34205L6.24935 16.592L1.66602 17.842L2.91602 13.2587L14.166 2.00872Z" stroke="black" stroke-width="1.5" stroke-linecap="round" stroke-linejoin="round"/>
</svg>
