<svg width="34" height="34" viewBox="0 0 34 34" fill="none" xmlns="http://www.w3.org/2000/svg">
<rect width="34" height="34" rx="7.93094" fill="#F1FAF9"/>
<path d="M23.3352 13.366H10.6457C9.98867 13.366 9.45605 13.8986 9.45605 14.5556V22.4865C9.45605 23.1436 9.98867 23.6762 10.6457 23.6762H23.3352C23.9922 23.6762 24.5248 23.1436 24.5248 22.4865V14.5556C24.5248 13.8986 23.9922 13.366 23.3352 13.366Z" stroke="#438465" stroke-width="1.58619" stroke-linejoin="round"/>
<path d="M15.0081 10.1936H18.9736V8.60742H15.0081V10.1936ZM19.3701 10.5902V13.366H20.9563V10.5902H19.3701ZM14.6116 13.366V10.5902H13.0254V13.366H14.6116ZM18.9736 10.1936C19.0788 10.1936 19.1796 10.2354 19.254 10.3098C19.3284 10.3841 19.3701 10.485 19.3701 10.5902H20.9563C20.9563 10.0643 20.7474 9.55999 20.3756 9.18815C20.0038 8.81632 19.4994 8.60742 18.9736 8.60742V10.1936ZM15.0081 8.60742C14.4823 8.60742 13.978 8.81632 13.6061 9.18815C13.2343 9.55999 13.0254 10.0643 13.0254 10.5902H14.6116C14.6116 10.485 14.6534 10.3841 14.7277 10.3098C14.8021 10.2354 14.903 10.1936 15.0081 10.1936V8.60742Z" fill="#438465"/>
<path d="M14.6113 18.5211H19.3699M16.9906 16.1418V20.9004" stroke="#438465" stroke-width="1.58619" stroke-linecap="round" stroke-linejoin="round"/>
</svg>
