<svg width="26" height="27" viewBox="0 0 26 27" fill="none" xmlns="http://www.w3.org/2000/svg">
<rect y="0.508789" width="26" height="26" rx="13" fill="#F1FAF9"/>
<path d="M6.5 19.5088H19.5M7.5 7.50879V19.5088M14.5 7.50879V19.5088M18.5 10.5088V19.5088M9.5 10.0088H10M9.5 12.0088H10M9.5 14.0088H10M12 10.0088H12.5M12 12.0088H12.5M12 14.0088H12.5M9.5 19.5088V17.2588C9.5 16.8448 9.836 16.5088 10.25 16.5088H11.75C12.164 16.5088 12.5 16.8448 12.5 17.2588V19.5088M7 7.50879H15M14.5 10.5088H19M16.5 13.0088H16.5053V13.0141H16.5V13.0088ZM16.5 15.0088H16.5053V15.0141H16.5V15.0088ZM16.5 17.0088H16.5053V17.0141H16.5V17.0088Z" stroke="#448666" stroke-linecap="round" stroke-linejoin="round"/>
</svg>
