<svg width="34" height="34" viewBox="0 0 34 34" fill="none" xmlns="http://www.w3.org/2000/svg">
<rect width="34" height="34" rx="7.93094" fill="#F1FAF9"/>
<path d="M13.9 16.4C12.9717 16.4 12.0815 16.0313 11.4251 15.3749C10.7687 14.7185 10.4 13.8283 10.4 12.9V10.1C10.4 9.91435 10.4737 9.7363 10.605 9.60503C10.7363 9.47375 10.9143 9.4 11.1 9.4H11.8C11.9857 9.4 12.1637 9.32625 12.295 9.19497C12.4262 9.0637 12.5 8.88565 12.5 8.7C12.5 8.51435 12.4262 8.3363 12.295 8.20503C12.1637 8.07375 11.9857 8 11.8 8H11.1C10.543 8 10.0089 8.22125 9.61508 8.61508C9.22125 9.0089 9 9.54305 9 10.1V12.9C9.0009 13.6908 9.19374 14.4696 9.56196 15.1695C9.93018 15.8693 10.4628 16.4693 11.114 16.918C11.7397 17.4696 12.2471 18.1423 12.6056 18.8954C12.9641 19.6486 13.1663 20.4666 13.2 21.3C13.2 22.5996 13.7162 23.8459 14.6352 24.7648C15.5541 25.6838 16.8004 26.2 18.1 26.2C19.3996 26.2 20.6459 25.6838 21.5648 24.7648C22.4838 23.8459 23 22.5996 23 21.3V20.502C23.6599 20.3316 24.2349 19.9264 24.6174 19.3624C24.9999 18.7984 25.1636 18.1142 25.0777 17.4381C24.9918 16.762 24.6623 16.1405 24.151 15.69C23.6396 15.2395 22.9815 14.9909 22.3 14.9909C21.6185 14.9909 20.9604 15.2395 20.449 15.69C19.9377 16.1405 19.6082 16.762 19.5223 17.4381C19.4364 18.1142 19.6001 18.7984 19.9826 19.3624C20.3651 19.9264 20.9401 20.3316 21.6 20.502V21.3C21.6 22.2283 21.2313 23.1185 20.5749 23.7749C19.9185 24.4313 19.0283 24.8 18.1 24.8C17.1717 24.8 16.2815 24.4313 15.6251 23.7749C14.9687 23.1185 14.6 22.2283 14.6 21.3C14.6354 20.4655 14.8398 19.6469 15.2008 18.8937C15.5617 18.1405 16.0718 17.4684 16.7 16.918C17.3486 16.4678 17.8785 15.8671 18.2442 15.1673C18.61 14.4675 18.8007 13.6896 18.8 12.9V10.1C18.8 9.54305 18.5788 9.0089 18.1849 8.61508C17.7911 8.22125 17.257 8 16.7 8H16C15.8143 8 15.6363 8.07375 15.505 8.20503C15.3737 8.3363 15.3 8.51435 15.3 8.7C15.3 8.88565 15.3737 9.0637 15.505 9.19497C15.6363 9.32625 15.8143 9.4 16 9.4H16.7C16.8857 9.4 17.0637 9.47375 17.195 9.60503C17.3263 9.7363 17.4 9.91435 17.4 10.1V12.9C17.4 13.3596 17.3095 13.8148 17.1336 14.2394C16.9577 14.664 16.6999 15.0499 16.3749 15.3749C16.0499 15.6999 15.664 15.9577 15.2394 16.1336C14.8148 16.3095 14.3596 16.4 13.9 16.4ZM22.3 19.2C21.9287 19.2 21.5726 19.0525 21.3101 18.79C21.0475 18.5274 20.9 18.1713 20.9 17.8C20.9 17.4287 21.0475 17.0726 21.3101 16.8101C21.5726 16.5475 21.9287 16.4 22.3 16.4C22.6713 16.4 23.0274 16.5475 23.2899 16.8101C23.5525 17.0726 23.7 17.4287 23.7 17.8C23.7 18.1713 23.5525 18.5274 23.2899 18.79C23.0274 19.0525 22.6713 19.2 22.3 19.2Z" fill="#438465"/>
</svg>
