<svg width="311" height="194" viewBox="0 0 311 194" fill="none" xmlns="http://www.w3.org/2000/svg">
<path d="M61.9166 0.945312H295.225C299.342 0.945312 303.291 2.58086 306.202 5.49214C309.113 8.40342 310.749 12.3519 310.749 16.4691V181.84H46.4492V16.4409C46.4567 12.3383 48.0877 8.40561 50.986 5.50204C53.8843 2.59848 57.8141 0.960224 61.9166 0.945312V0.945312Z" fill="#E0E0E0"/>
<path d="M310.751 193.864H0.275391C0.275391 190.705 1.53029 187.675 3.76403 185.441C5.99778 183.208 9.02739 181.953 12.1864 181.953H310.751V193.864Z" fill="#E0E0E0"/>
<path d="M300.981 12.5739H54.4629V181.953H300.981V12.5739Z" fill="white"/>
<path d="M300.953 181.84C300.953 181.84 300.953 180.767 300.953 178.735C300.953 176.703 300.953 173.655 300.953 169.76C300.953 161.885 300.953 150.369 300.784 135.635C300.784 106.168 300.615 63.9155 300.473 12.4612L301.066 13.0539H54.5764L55.3103 12.32C55.3103 72.8064 55.3103 130.244 55.3103 181.671L54.6611 180.993L232.225 181.332L283.03 181.53H296.55H300.022H301.235H300.107H296.691H283.313L232.761 181.699L54.7458 182.038H54.0684V181.84C54.0684 130.386 54.0684 72.9475 54.0684 12.4894V11.7556H54.8022H301.292H301.885V12.4894C301.885 64.0849 301.659 106.479 301.574 136.031C301.574 150.708 301.574 162.167 301.574 169.901C301.574 173.768 301.574 176.731 301.574 178.763C301.574 180.796 300.953 181.84 300.953 181.84Z" fill="#263238"/>
<path d="M309.45 181.84C309.45 182.263 242.81 182.574 160.619 182.574C78.4275 182.574 11.7598 182.263 11.7598 181.84C11.7598 181.416 78.3992 181.106 160.619 181.106C242.839 181.106 309.45 181.557 309.45 181.84Z" fill="#263238"/>
<path d="M177.699 162.054C213.474 162.054 242.475 133.053 242.475 97.2774C242.475 61.5023 213.474 32.5008 177.699 32.5008C141.923 32.5008 112.922 61.5023 112.922 97.2774C112.922 133.053 141.923 162.054 177.699 162.054Z" fill="#2C99CB"/>
<path d="M137.445 98.858L151.163 85.8744L170.102 103.318L207.387 68.2338L220.935 81.048L169.904 129.482L137.445 98.858Z" fill="white"/>
</svg>
